<svg version="1.2" xmlns="http://www.w3.org/2000/svg" viewBox="0 0 1855 360" width="1855" height="360">
	<title>New Project</title>
	<style>
		.s0 { fill: #ffffff } 
	</style>
	<path id="Develota" class="s0" aria-label="Develota"  d="m103.5 102v174q5.5 1 13.5 2 8 0.5 15 0.5 17 0 31-5 14.5-5 24.5-15.5 10.5-10.5 16-27 6-17 6-40.5 0-45-21-67.5-21-23-56-23-7 0-14.5 0.5-7 0.5-14.5 1.5zm28 247q-8.5 0-19.5-0.5-11-0.5-23-2-11.5-1.5-23.5-3.5-11.5-2.5-21.5-6.5-27.5-10.5-27.5-36.5v-233.5q0-10.5 5.5-16 6-6 16-9.5 21.5-7 45.5-9 24-2.5 43-2.5 39 0 70.5 9.5 32 9.5 54.5 29.5 23 19.5 35.5 49.5 12.5 30 12.5 71 0 40-12 70-12 29.5-34.5 50-22 20-53 30-31 10-68.5 10zm315 0q-29.5 0-55-8-25-8.5-44-25-18.5-16.5-29.5-41.5-10.5-25-10.5-58.5 0-33 10.5-56.5 11-24 28.5-39 17.5-15.5 40-22.5 22.5-7.5 46-7.5 26.5 0 48 8 22 8 37.5 22 16 14 24.5 33.5 9 19.5 9 42.5 0 17-9.5 26-9.5 9-26.5 11.5l-123.5 18.5q5.5 16.5 22.5 25 17 8 39 8 20.5 0 38.5-5 18.5-5.5 30-12.5 8 5 13.5 14 5.5 9 5.5 19 0 22.5-21 33.5-16 8.5-36 11.5-20 3-37.5 3zm-14-196.5q-12 0-21 4-8.5 4-14 10.5-5.5 6-8.5 14-2.5 7.5-3 15.5l85.5-14q-1.5-10-11-20-9.5-10-28-10zm295.5 182q-7 5.5-20.5 9-13.5 3.5-30.5 3.5-19.5 0-34-5-14-5-19.5-16-4.5-8.5-11-23.5-6-15.5-13-34-7-19-14.5-40.5-7.5-21.5-14.5-42.5-6.5-21-12-40.5-5.5-19.5-9-34.5 7-7 18.5-12 12-5.5 26-5.5 17.5 0 28.5 7.5 11.5 7 17 27l19.5 76.5q5.5 22.5 10.5 41 5 18 7.5 28h2.5q9.5-37 20-82 10.5-45 19-88.5 8.5-4.5 19-7 11-2.5 21-2.5 17.5 0 29.5 7.5 12 7.5 12 26 0 8-4 23.5-3.5 15-9.5 34.5-5.5 19-13.5 40.5-7.5 21.5-15.5 42-8 20.5-16 38.5-7.5 17.5-13.5 29zm211 14.5q-29.5 0-55-8-25-8.5-44-25-18.5-16.5-29.5-41.5-10.5-25-10.5-58.5 0-33 10.5-56.5 11-24 28.5-39 17.5-15.5 40-22.5 22.5-7.5 46-7.5 26.5 0 48 8 22 8 37.5 22 16 14 24.5 33.5 9 19.5 9 42.5 0 17-9.5 26-9.5 9-26.5 11.5l-123.5 18.5q5.5 16.5 22.5 25 17 8 39 8 20.5 0 38.5-5 18.5-5.5 30-12.5 8 5 13.5 14 5.5 9 5.5 19 0 22.5-21 33.5-16 8.5-36 11.5-20 3-37.5 3zm-14-196.5q-12 0-21 4-8.5 4-14 10.5-5.5 6-8.5 14-2.5 7.5-3 15.5l85.5-14q-1.5-10-11-20-9.5-10-28-10zm221.5-102v290q-5.5 1-16.5 3-10.5 1.5-21.5 1.5-11 0-20-1.5-8.5-1.5-14.5-6-6-4.5-9.5-12-3-8-3-20.5v-290q5.5-1 16-2.5 11-2 22-2 11 0 19.5 1.5 9 1.5 15 6 6 4.5 9 12.5 3.5 7.5 3.5 20zm280 169q0 31-9.5 55.5-9.5 24-27 40.5-17 16.5-41 25-24 8.5-53.5 8.5-29.5 0-53.5-9-24-9-41.5-25.5-17-17-26.5-41-9.5-24-9.5-54 0-29.5 9.5-53.5 9.5-24 26.5-40.5 17.5-17 41.5-26 24-9 53.5-9 29.5 0 53.5 9.5 24 9 41 26 17.5 16.5 27 40.5 9.5 24 9.5 53zm-175 0q0 30.5 11.5 47 12 16 33 16 21 0 32-16.5 11.5-16.5 11.5-46.5 0-30-11.5-46-11.5-16.5-32.5-16.5-21 0-32.5 16.5-11.5 16-11.5 46zm276.5-37.5v75.5q0 13 8 18.5 8.5 5.5 23.5 5.5 7.5 0 15.5-1 8-1.5 14-3.5 4.5 5.5 7.5 12.5 3.5 6.5 3.5 16 0 19-14.5 31-14 12-50 12-44 0-68-20-23.5-20-23.5-65v-214q5.5-1.5 15.5-3 10.5-2 22-2 22 0 34 8 12.5 7.5 12.5 32.5v32h65.5q3 5.5 5.5 14 3 8 3 18 0 17.5-8 25.5-7.5 7.5-20.5 7.5zm194 105q8.5 0 18.5-1.5 10.5-2 15.5-5v-40l-36 3q-14 1-23 6-9 5-9 15 0 10 7.5 16.5 8 6 26.5 6zm-4-196.5q27 0 49 5.5 22.5 5.5 38 17 16 11 24.5 28.5 8.5 17 8.5 40.5v112q0 13-7.5 21.5-7 8-17 14-32.5 19.5-91.5 19.5-26.5 0-48-5-21-5-36.5-15-15-10-23.5-25.5-8-15.5-8-36 0-34.5 20.5-53 20.5-18.5 63.5-23l65.5-7v-3.5q0-14.5-13-20.5-12.5-6.5-36.5-6.5-19 0-37 4-18 4-32.5 10-6.5-4.5-11-13.5-4.5-9.5-4.5-19.5 0-13 6-20.5 6.5-8 19.5-13.5 14.5-5.5 34-8 20-2.5 37.5-2.5z"/>
</svg>