<svg version="1.2" xmlns="http://www.w3.org/2000/svg" viewBox="0 0 1200 800" width="1200" height="800">
	<title>iStock-1439477915</title>
	<defs>
		<clipPath clipPathUnits="userSpaceOnUse" id="cp1">
			<path d="m921.12 643.76c0 2.12-1.73 3.85-3.85 3.85h-152.7c-2.12 0-3.85-1.73-3.85-3.85v-35.61c0-2.12 1.73-3.85 3.85-3.85h152.7c2.12 0 3.85 1.73 3.85 3.85z"/>
		</clipPath>
	</defs>
	<style>
		.s0 { opacity: .5;fill: #dbf1ff } 
		.s1 { fill: #c5eae2 } 
		.s2 { fill: #98d4fc } 
		.s3 { fill: #a2ddd0 } 
		.s4 { fill: #e0fbf0 } 
		.s5 { fill: #dbf1ff } 
		.s6 { fill: #2f627c } 
		.s7 { fill: #d6eefe } 
		.s8 { fill: #f1f9ff } 
		.s9 { fill: #4693b9 } 
		.s10 { fill: #387694 } 
		.s11 { fill: #29566d } 
		.s12 { fill: #2a817d } 
		.s13 { fill: #ffd471 } 
		.s14 { fill: #fefefe } 
		.s15 { fill: #ffbc33 } 
		.s16 { fill: #eaf6fe } 
		.s17 { opacity: .5;mix-blend-mode: screen;fill: #e9f7ff } 
		.s18 { fill: #ffffff } 
		.s19 { fill: #20615e } 
		.s20 { fill: #ffa18a } 
		.s21 { fill: #091317 } 
		.s22 { fill: #12252e } 
		.s23 { fill: #254d62 } 
		.s24 { fill: #a55852 } 
		.s25 { fill: #25716d } 
		.s26 { fill: #8dc5ea } 
		.s27 { fill: #ee9681 } 
		.s28 { fill: #ffc84b } 
		.s29 { fill: #4087aa } 
		.s30 { fill: #c1e5fd } 
		.s31 { fill: #bf7968 } 
		.s32 { fill: #adddfd } 
		.s33 { fill: #ffdd8d } 
	</style>
	<g id="_Artboards_">
	</g>
	<g id="Layer 1">
		<path id="&lt;Path&gt;" class="s0" d="m61.1 728.7h1072.6c0 0 27.8-125.6-20.8-195.1-59-84.1-123.5-50.7-149.4-84.6-34.4-44.9-24.8-223.7-242.6-212-127.3 6.9-176.5 148.6-217.6 148.6-52.2 0-124.7-61-256-23.8-226.4 64.2-186.2 366.9-186.2 366.9z"/>
		<path id="&lt;Path&gt;" class="s1" d="m50 733c0 19.2 246.2 34.7 550 34.7 303.8 0 550-15.5 550-34.7 0-19.1-246.2-34.6-550-34.6-303.8 0-550 15.5-550 34.6z"/>
		<g id="&lt;Group&gt;">
			<g id="&lt;Group&gt;" style="opacity: .6">
				<path id="&lt;Compound Path&gt;" fill-rule="evenodd" class="s2" d="m481 670.9c-3.2 0-5.8-2.6-5.8-5.8 0-3.1 2.6-5.7 5.8-5.7 3.1 0 5.7 2.6 5.7 5.7 0 3.2-2.6 5.8-5.7 5.8zm0-10.2c-2.5 0-4.5 2-4.5 4.4 0 2.5 2 4.5 4.5 4.5 2.4 0 4.4-2 4.4-4.5 0-2.4-2-4.4-4.4-4.4z"/>
			</g>
			<g id="&lt;Group&gt;" style="opacity: .6">
				<path id="&lt;Compound Path&gt;" fill-rule="evenodd" class="s2" d="m1053.7 646.9c-3.9 0-7.1-3.2-7.1-7.2 0-3.9 3.2-7.1 7.1-7.1 3.9 0 7.1 3.2 7.1 7.1 0 4-3.2 7.2-7.1 7.2zm0-12.7c-3.1 0-5.5 2.5-5.5 5.5 0 3.1 2.4 5.5 5.5 5.5 3 0 5.5-2.4 5.5-5.5 0-3-2.5-5.5-5.5-5.5z"/>
			</g>
			<g id="&lt;Group&gt;" style="opacity: .6">
				<path id="&lt;Compound Path&gt;" fill-rule="evenodd" class="s2" d="m738.2 686.5c-5 0-9-4-9-8.9 0-4.9 4-8.9 9-8.9 4.9 0 8.9 4 8.9 8.9 0 4.9-4 8.9-8.9 8.9zm0-15.8c-3.9 0-7 3.1-7 6.9 0 3.8 3.1 6.9 7 6.9 3.8 0 6.9-3.1 6.9-6.9 0-3.8-3.1-6.9-6.9-6.9z"/>
			</g>
			<g id="&lt;Group&gt;" style="opacity: .6">
				<path id="&lt;Compound Path&gt;" fill-rule="evenodd" class="s2" d="m132.2 392.5c-3.9 0-7.1-3.2-7.1-7.1 0-3.9 3.2-7.1 7.1-7.1 3.9 0 7.1 3.2 7.1 7.1 0 3.9-3.2 7.1-7.1 7.1zm0-12.6c-3 0-5.5 2.5-5.5 5.5 0 3.1 2.5 5.5 5.5 5.5 3.1 0 5.5-2.4 5.5-5.5 0-3-2.4-5.5-5.5-5.5z"/>
			</g>
			<g id="&lt;Group&gt;" style="opacity: .7">
				<path id="&lt;Compound Path&gt;" fill-rule="evenodd" class="s2" d="m923.6 580.5c-2.9 0-5.3-2.4-5.3-5.4 0-2.9 2.4-5.3 5.3-5.3 2.9 0 5.3 2.4 5.3 5.3 0 3-2.4 5.4-5.3 5.4zm0-9.5c-2.3 0-4.1 1.9-4.1 4.1 0 2.3 1.8 4.2 4.1 4.2 2.3 0 4.1-1.9 4.1-4.2 0-2.2-1.8-4.1-4.1-4.1z"/>
			</g>
			<g id="&lt;Group&gt;" style="opacity: .7">
				<path id="&lt;Compound Path&gt;" fill-rule="evenodd" class="s2" d="m1089.6 554.8c-2.7 0-5-2.3-5-5.1 0-2.7 2.3-5 5-5 2.8 0 5.1 2.3 5.1 5 0 2.8-2.3 5.1-5.1 5.1zm0-9c-2.1 0-3.9 1.8-3.9 3.9 0 2.2 1.8 3.9 3.9 3.9 2.2 0 3.9-1.7 3.9-3.9 0-2.1-1.7-3.9-3.9-3.9z"/>
			</g>
			<g id="&lt;Group&gt;" style="opacity: .7">
				<path id="&lt;Compound Path&gt;" fill-rule="evenodd" class="s2" d="m686.4 651.9c-2.8 0-5.1-2.3-5.1-5 0-2.8 2.3-5.1 5.1-5.1 2.7 0 5 2.3 5 5.1 0 2.7-2.3 5-5 5zm0-8.9c-2.2 0-3.9 1.7-3.9 3.9 0 2.1 1.7 3.9 3.9 3.9 2.1 0 3.9-1.8 3.9-3.9 0-2.2-1.8-3.9-3.9-3.9z"/>
			</g>
			<g id="&lt;Group&gt;" style="opacity: .7">
				<path id="&lt;Compound Path&gt;" fill-rule="evenodd" class="s2" d="m175 557.8c-2.8 0-5-2.3-5-5.1 0-2.7 2.2-5 5-5 2.8 0 5.1 2.3 5.1 5 0 2.8-2.3 5.1-5.1 5.1zm0-9c-2.1 0-3.9 1.8-3.9 3.9 0 2.2 1.8 3.9 3.9 3.9 2.2 0 3.9-1.7 3.9-3.9 0-2.1-1.7-3.9-3.9-3.9z"/>
			</g>
			<g id="&lt;Group&gt;" style="opacity: .6">
				<path id="&lt;Compound Path&gt;" fill-rule="evenodd" class="s2" d="m93 639.7c-4.1 0-7.4-3.4-7.4-7.5 0-4.1 3.3-7.4 7.4-7.4 4.1 0 7.5 3.3 7.5 7.4 0 4.1-3.4 7.5-7.5 7.5zm0-13.2c-3.1 0-5.7 2.6-5.7 5.7 0 3.2 2.6 5.8 5.7 5.8 3.2 0 5.8-2.6 5.8-5.8 0-3.1-2.6-5.7-5.8-5.7z"/>
			</g>
			<g id="&lt;Group&gt;" style="opacity: .6">
				<path id="&lt;Compound Path&gt;" fill-rule="evenodd" class="s2" d="m129.1 487.4c-2.7 0-4.8-2.2-4.8-4.8 0-2.6 2.1-4.8 4.8-4.8 2.6 0 4.7 2.2 4.7 4.8 0 2.6-2.1 4.8-4.7 4.8zm0-8.5c-2.1 0-3.7 1.7-3.7 3.7 0 2 1.6 3.7 3.7 3.7 2 0 3.6-1.7 3.6-3.7 0-2-1.6-3.7-3.6-3.7z"/>
			</g>
			<g id="&lt;Group&gt;" style="opacity: .6">
				<path id="&lt;Compound Path&gt;" fill-rule="evenodd" class="s2" d="m1028.7 456.6c-3.2 0-5.7-2.5-5.7-5.7 0-3.1 2.5-5.6 5.7-5.6 3.1 0 5.6 2.5 5.6 5.6 0 3.2-2.5 5.7-5.6 5.7zm0-10c-2.5 0-4.4 1.9-4.4 4.3 0 2.5 1.9 4.4 4.4 4.4 2.4 0 4.3-1.9 4.3-4.4 0-2.4-1.9-4.3-4.3-4.3z"/>
			</g>
		</g>
		<g id="&lt;Group&gt;">
			<path id="&lt;Path&gt;" class="s3" d="m1074.8 726.5c0 0-22.7-33.7-8.2-46.6 8.9-7.9 13.2 17.4 13.2 17.4 0 0 5-48.3 21.4-38.1 8 5-8.8 49.5-8.8 49.5 0 0 11.9-23.1 21.4-16.8 15.2 10.3-21.1 34.2-21.1 34.2z"/>
			<path id="&lt;Path&gt;" class="s3" d="m1127 692.7c0.2 0 0.5-0.2 0.5-0.4 0.1-0.2 1.3-5.2-1.5-9.4-1.9-2.9-5.2-4.6-9.8-5.3-0.3 0-0.6 0.2-0.6 0.5-0.1 0.3 0.1 0.6 0.4 0.6 4.3 0.6 7.4 2.2 9.1 4.8 2.5 3.8 1.4 8.4 1.3 8.5 0 0.3 0.1 0.6 0.4 0.7q0.1 0 0.2 0z"/>
			<path id="&lt;Path&gt;" class="s3" d="m1058.2 677.6c0.2-0.1 0.3-0.2 0.4-0.4 0.9-3 2.4-5 4.5-5.8 4.2-1.6 9.4 1.6 9.5 1.6 0.3 0.2 0.6 0.1 0.8-0.1 0.1-0.3 0-0.6-0.2-0.8-0.2-0.2-5.8-3.5-10.4-1.7q-3.8 1.4-5.3 6.5c-0.1 0.3 0.1 0.6 0.4 0.7q0.1 0 0.3 0z"/>
			<path id="&lt;Path&gt;" class="s4" d="m1083.5 726.3l11.7-54.7c0.1-0.3-0.1-0.6-0.4-0.7-0.3-0.1-0.6 0.1-0.7 0.4l-11.8 55z"/>
			<path id="&lt;Path&gt;" class="s4" d="m1089.7 726.2l21.7-26.3c0.2-0.2 0.1-0.6-0.1-0.8-0.3-0.2-0.6-0.1-0.8 0.1l-22.2 27z"/>
			<path id="&lt;Path&gt;" class="s4" d="m1079.5 726.4l-8.9-40.1c-0.1-0.3-0.4-0.5-0.7-0.4-0.3 0-0.5 0.3-0.4 0.6l8.8 39.9z"/>
		</g>
		<path id="&lt;Path&gt;" class="s5" d="m586.6 186.8c-0.1-1.6-0.5-3.3-1.2-4.8-0.5-1.2-1.2-2.3-2.3-3.1-3.8-2.5-9.9-0.8-11.8 3.4-0.2 0.4-0.7 0.1-0.6-0.3 1-2.1 1.2-4.4 0.7-6.6-0.4-1.9-1.2-3.8-2.5-5.3-1.6-1.7-3.8-2.5-6-2.4-2.6 0.2-5.1 1.5-7 3.1-0.9 0.8-1.7 1.6-2.5 2.5-0.5 0.6-0.9 1.3-1.2 2.1q-0.2 0.6-0.4 1.3c-0.1 0.4-0.7 0.3-0.6-0.1q0-0.1 0-0.1 0 0 0 0 0.1-0.7 0.3-1.3c0.7-3.6 0.2-7.6-1.1-11.1-1.3-3.3-3.6-6.6-7.1-8.1-3.7-1.5-8-0.4-10.9 2.3-3.1 3-4.6 7.3-5.5 11.4-0.5 2.4-0.8 4.8-0.5 7.3 0.2 3 1.1 5.9 1.2 8.9 0 0.2-0.3 0.4-0.5 0.3-1.1-0.7-2.2-1.4-3.5-1.8-1.2-0.3-2.6-0.2-3.8 0.4-1.9 0.9-3.8 3.4-3.4 5.7 0.1 0.4-0.4 0.6-0.6 0.3-1-1.6-2.1-3.2-3.5-4.6-1.1-1.1-2.6-2.2-4.3-2.5-1.8-0.3-3.5 0.5-4.8 1.8-2.6 2.4-3.6 6.6-2 9.8h82.9c1.7-2.5 2.6-5.5 2.5-8.5z"/>
		<path id="&lt;Path&gt;" class="s5" d="m338.6 139c-1.2-3.4-0.7-8.2 2.9-10 2.9-1.5 6.5-0.4 7.9 2.5 0.3 0.5 1 0.1 0.8-0.4-1.3-2.8-2.5-7.2 1.1-8.9 2.8-1.4 6.3 0.7 8.1 3.1q0.2 0.4 0.4 0.8c0.4 0.4 1.1 0 0.8-0.4-3-4.3-4.5-9.8-4.6-14.9-0.1-4.6 1.1-9.5 4.7-12.6 3.7-3.3 9.3-3.8 13.8-1.8 4.7 2.1 8.3 6.3 10.7 10.8 2.3 4.4 3.9 9.4 3.6 14.5 0 0.4 0.8 0.5 0.9 0.1 0.4-2.5 1-5 2.2-7.2 1-1.9 2.4-3.6 4.3-4.6 1.9-1.1 4.2-1.2 6.3-0.8 3.7 0.8 7.9 3.4 9 7.3q0.1 0.7 0.2 1.3c0.1 0.5 0.9 0.4 0.9-0.1q0 0-0.1-0.1 0 0 0-0.1 0-0.5-0.1-1c-0.8-4.4-0.1-9 1.9-13 1.8-3.7 4.7-6.9 8.5-8.4 4.4-1.6 9.3-0.8 13.2 1.5 4.2 2.6 7.1 6.8 7.9 11.6 1 6.1-2 11.5-4 17.1-0.2 0.3 0.3 0.7 0.6 0.4 2.6-1.8 5.8-3.1 8.9-1.2 2.4 1.5 3.7 4.6 2.4 7.3-0.3 0.5 0.5 0.9 0.7 0.4 1-2 2.5-3.9 4.7-4.6 3.4-1.2 7.2 0.2 9.6 2.7 2.6 2.8 3.5 6.7 1.8 10.1l-129.5-0.1q-0.3-0.6-0.5-1.3z"/>
		<path id="&lt;Path&gt;" class="s5" d="m862.7 166c-2-3.1-2.9-6.7-2.5-10.4 0.4-3.3 2.2-6.6 5.4-7.8 4.8-1.7 12.4 0.5 13.8 6 0.2 0.6 1.1 0.4 1-0.3-0.9-2.7-1.3-5.7-0.8-8.5 0.5-2.4 1.7-4.7 4-5.8 2-0.9 4.5-0.8 6.7-0.2 3.6 1 7.8 3.5 9.4 7.2q0.3 0.9 0.6 1.7c0.3 0.7 1.1 0.4 1-0.2q-0.2-0.9-0.5-1.8c-1-3.2-1.3-6.6-1-10 0.4-3.5 1.5-7 3.7-9.8 2.5-3 6.2-4.8 10.1-5 4.6-0.3 9.2 1.3 12.9 3.9 1.8 1.2 3.5 2.5 4.9 4.1 0.7 0.9 1.5 1.9 2 3q0.2 1.6 0.7 3.1c0.2 0.5 1 0.4 1-0.2 0.1-1.1-0.2-2.2-0.7-3.2-0.6-4.8 0.8-10 2.9-14.2 2.3-4.7 6-9.4 11.1-10.8 5.3-1.5 10.6 1.2 14.1 5.1 4 4.4 6.3 10.3 7.6 16 1.2 5.5 1.7 11.5 0.6 17.1-0.1 0.6 0.8 0.9 1 0.3 1.2-4.3 2.9-8.5 5.5-12.1 2.2-3 5.3-5.6 9.1-6 4.1-0.4 8.4 1.6 11.2 4.7 5.5 6 4.7 15.6 1.1 22.4-0.3 0.6 0.5 1 0.9 0.5 1.5-2 3.6-3.6 6.1-4 3.9-0.6 7.8 1.5 9.9 4.6 1.1 1.6 1.7 3.4 1.6 5.3-0.1 2.2-1.1 4.1-2.6 5.7q-0.2 0.2-0.1 0.4h-151.2q-0.3-0.4-0.5-0.8z"/>
		<g id="&lt;Group&gt;">
			<g id="&lt;Group&gt;">
				<g id="&lt;Group&gt;">
					<g id="&lt;Group&gt;">
						<path id="&lt;Compound Path&gt;" class="s6" d="m861 290.5h-522c-5 0-9 4-9 9v295.3h540v-295.3c0-5-4-9-9-9z"/>
						<path id="&lt;Path&gt;" class="s7" d="m857.7 566.4c0 2-1.5 3.5-3.5 3.5h-508.4c-2 0-3.5-1.5-3.5-3.5v-259.9c0-1.9 1.5-3.5 3.5-3.5h508.4c2 0 3.5 1.6 3.5 3.5z"/>
						<path id="&lt;Path&gt;" class="s8" d="m857.7 327.9h-515.4v-21.4c0-1.9 1.5-3.5 3.5-3.5h508.4c2 0 3.5 1.6 3.5 3.5z"/>
						<path id="&lt;Path&gt;" class="s9" d="m680.7 711.7c17.4 24.5-180 25.4-161.2 1 21.5-28 20-93.3 20-93.3h121.1c0 0-4 71.8 20.1 92.3z"/>
						<path id="&lt;Path&gt;" class="s10" d="m580.6 618v42.4c0 10.7 8.7 19.4 19.4 19.4 10.7 0 19.4-8.7 19.4-19.4v-42.4z"/>
						<path id="&lt;Path&gt;" class="s11" d="m870 582.6v26.8c0 5.7-4.6 10.3-10.3 10.3h-519.4c-5.7 0-10.3-4.6-10.3-10.3v-26.8z"/>
						<path id="&lt;Path&gt;" class="s11" d="m721.7 736.6h-243.4c-6.1 0-11-4.9-11-11v-3.4c0-6.1 4.9-11 11-11h243.4c6.1 0 11 4.9 11 11v3.4c0 6.1-4.9 11-11 11z"/>
					</g>
					<g id="&lt;Group&gt;">
						<g id="&lt;Group&gt;">
							<path id="&lt;Path&gt;" class="s12" d="m361.9 315.8c0 2.7-2.3 5-5.1 5-2.8 0-5-2.3-5-5 0-2.8 2.2-5.1 5-5.1 2.8 0 5.1 2.3 5.1 5.1z"/>
							<path id="&lt;Path&gt;" class="s13" d="m378.4 315.8c0 2.7-2.3 5-5.1 5-2.7 0-5-2.3-5-5 0-2.8 2.3-5.1 5-5.1 2.8 0 5.1 2.3 5.1 5.1z"/>
							<path id="&lt;Path&gt;" class="s9" d="m394.9 315.8c0 2.7-2.3 5-5 5-2.8 0-5.1-2.3-5.1-5 0-2.8 2.3-5.1 5.1-5.1 2.7 0 5 2.3 5 5.1z"/>
						</g>
						<path id="&lt;Path&gt;" class="s2" d="m848.2 318c0 1.9-1.6 3.5-3.5 3.5h-417.7c-1.9 0-3.5-1.6-3.5-3.5v-4.8c0-1.9 1.6-3.5 3.5-3.5h417.7c1.9 0 3.5 1.6 3.5 3.5z"/>
						<g id="&lt;Group&gt;">
							<g id="&lt;Group&gt;">
								<path id="&lt;Compound Path&gt;" fill-rule="evenodd" class="s14" d="m429.6 318.8c-1.9 0-3.5-1.5-3.5-3.4 0-1.9 1.6-3.5 3.5-3.5 1.9 0 3.4 1.6 3.4 3.5 0 1.9-1.5 3.4-3.4 3.4zm0-5.8c-1.3 0-2.4 1.1-2.4 2.4 0 1.3 1.1 2.3 2.4 2.3 1.3 0 2.3-1 2.3-2.3 0-1.3-1-2.4-2.3-2.4z"/>
							</g>
							<g id="&lt;Group&gt;">
								<path id="&lt;Path&gt;" class="s14" d="m432.4 319.2q-0.3 0-0.4-0.1l-1-1.2c-0.2-0.2-0.2-0.5 0.1-0.7 0.2-0.2 0.5-0.2 0.7 0l1 1.2c0.2 0.2 0.2 0.5-0.1 0.7q-0.1 0.1-0.3 0.1z"/>
							</g>
						</g>
						<path id="&lt;Path&gt;" class="s14" d="m840.1 317.6h-399.5c-0.9 0-1.7-0.7-1.7-1.6v-0.8c0-0.9 0.8-1.6 1.7-1.6h399.5c0.9 0 1.6 0.7 1.6 1.6v0.8c0 0.9-0.7 1.6-1.6 1.6z"/>
					</g>
				</g>
			</g>
			<g id="&lt;Group&gt;">
				<path id="&lt;Path&gt;" class="s15" d="m672 444.9c0 1.3-1 2.4-2.4 2.4h-127.4c-1.3 0-2.4-1.1-2.4-2.4v-87.4c0-1.3 1.1-2.3 2.4-2.3h127.4c1.4 0 2.4 1 2.4 2.3z"/>
				<g id="&lt;Group&gt;">
					<g id="&lt;Group&gt;">
						<path id="&lt;Path&gt;" class="s16" d="m655.7 333.9h-124.3c-1.4 0-2.5 1.1-2.5 2.5v93.7c0 1.3 1 2.3 2.3 2.3h124.7c1.3 0 2.3-1 2.3-2.3v-93.7c0-1.4-1.1-2.5-2.5-2.5z"/>
						<path id="&lt;Path&gt;" class="s6" d="m655.7 333.9h-124.3c-1.4 0-2.5 1.1-2.5 2.5v5.9h129.3v-5.9c0-1.4-1.1-2.5-2.5-2.5z"/>
						<g id="&lt;Group&gt;">
							<path id="&lt;Path&gt;" class="s2" d="m638.9 338.1c0 1.1-0.9 1.9-1.9 1.9-1.1 0-1.9-0.8-1.9-1.9 0-1 0.8-1.9 1.9-1.9 1 0 1.9 0.9 1.9 1.9z"/>
							<path id="&lt;Path&gt;" class="s13" d="m645.1 338.1c0 1-0.8 1.9-1.9 1.9-1 0-1.9-0.9-1.9-1.9 0-1.1 0.9-1.9 1.9-1.9 1.1 0 1.9 0.8 1.9 1.9z"/>
							<path id="&lt;Path&gt;" class="s3" d="m651.4 338.1c0 1-0.9 1.9-1.9 1.9-1.1 0-1.9-0.9-1.9-1.9 0-1.1 0.8-1.9 1.9-1.9 1 0 1.9 0.8 1.9 1.9z"/>
						</g>
					</g>
					<g id="&lt;Group&gt;">
						<path id="&lt;Path&gt;" class="s2" d="m590 351.6c0 0.7-0.7 1.3-1.4 1.3h-52.8c-0.8 0-1.4-0.6-1.4-1.3v-2.1c0-0.8 0.6-1.4 1.4-1.4h52.8c0.7 0 1.4 0.6 1.4 1.4z"/>
						<path id="&lt;Path&gt;" class="s9" d="m570.8 356.5c0 0.8-0.6 1.4-1.4 1.4h-33.6c-0.8 0-1.4-0.6-1.4-1.4 0-0.7 0.6-1.3 1.4-1.3h33.6c0.8 0 1.4 0.6 1.4 1.3z"/>
						<g id="&lt;Group&gt;">
							<g id="&lt;Group&gt;">
								<path id="&lt;Path&gt;" class="s2" d="m652.7 365.6c0 0.2-0.2 0.3-0.3 0.3h-117.6c-0.2 0-0.4-0.1-0.4-0.3v-0.4c0-0.1 0.2-0.3 0.4-0.3h117.6c0.1 0 0.3 0.2 0.3 0.3z"/>
							</g>
							<g id="&lt;Group&gt;">
								<path id="&lt;Path&gt;" class="s2" d="m652.7 369c0 0.2-0.2 0.4-0.3 0.4h-117.6c-0.2 0-0.4-0.2-0.4-0.4v-0.3c0-0.2 0.2-0.3 0.4-0.3h117.6c0.1 0 0.3 0.1 0.3 0.3z"/>
							</g>
							<g id="&lt;Group&gt;">
								<path id="&lt;Path&gt;" class="s2" d="m652.7 372.5c0 0.2-0.2 0.3-0.3 0.3h-117.6c-0.2 0-0.4-0.1-0.4-0.3v-0.4c0-0.1 0.2-0.3 0.4-0.3h117.6c0.1 0 0.3 0.2 0.3 0.3z"/>
							</g>
							<g id="&lt;Group&gt;">
								<path id="&lt;Path&gt;" class="s2" d="m652.7 375.9c0 0.2-0.2 0.4-0.3 0.4h-117.6c-0.2 0-0.4-0.2-0.4-0.4v-0.3c0-0.2 0.2-0.3 0.4-0.3h117.6c0.1 0 0.3 0.1 0.3 0.3z"/>
							</g>
							<g id="&lt;Group&gt;">
								<path id="&lt;Path&gt;" class="s2" d="m636.2 379.4c0 0.2-0.1 0.3-0.3 0.3h-101.1c-0.2 0-0.4-0.1-0.4-0.3v-0.3c0-0.2 0.2-0.4 0.4-0.4h101.1c0.2 0 0.3 0.2 0.3 0.4z"/>
							</g>
							<g id="&lt;Group&gt;">
								<path id="&lt;Path&gt;" class="s2" d="m652.7 382.8c0 0.2-0.2 0.4-0.3 0.4h-117.6c-0.2 0-0.4-0.2-0.4-0.4v-0.3c0-0.2 0.2-0.3 0.4-0.3h117.6c0.1 0 0.3 0.1 0.3 0.3z"/>
							</g>
							<g id="&lt;Group&gt;">
								<path id="&lt;Path&gt;" class="s2" d="m652.7 386.3c0 0.2-0.2 0.3-0.3 0.3h-117.6c-0.2 0-0.4-0.1-0.4-0.3v-0.3c0-0.2 0.2-0.4 0.4-0.4h117.6c0.1 0 0.3 0.2 0.3 0.4z"/>
							</g>
							<g id="&lt;Group&gt;">
								<path id="&lt;Path&gt;" class="s2" d="m652.7 389.7c0 0.2-0.2 0.4-0.3 0.4h-117.6c-0.2 0-0.4-0.2-0.4-0.4v-0.3c0-0.2 0.2-0.3 0.4-0.3h117.6c0.1 0 0.3 0.1 0.3 0.3z"/>
							</g>
							<g id="&lt;Group&gt;">
								<path id="&lt;Path&gt;" class="s2" d="m652.7 393.2c0 0.2-0.2 0.3-0.3 0.3h-117.6c-0.2 0-0.4-0.1-0.4-0.3v-0.3c0-0.2 0.2-0.4 0.4-0.4h117.6c0.1 0 0.3 0.2 0.3 0.4z"/>
							</g>
							<g id="&lt;Group&gt;">
								<path id="&lt;Path&gt;" class="s2" d="m652.7 396.6c0 0.2-0.2 0.4-0.3 0.4h-117.6c-0.2 0-0.4-0.2-0.4-0.4v-0.3c0-0.2 0.2-0.3 0.4-0.3h117.6c0.1 0 0.3 0.1 0.3 0.3z"/>
							</g>
							<g id="&lt;Group&gt;">
								<path id="&lt;Path&gt;" class="s2" d="m599.2 400.1c0 0.2-0.1 0.3-0.3 0.3h-64.1c-0.2 0-0.4-0.1-0.4-0.3v-0.3c0-0.2 0.2-0.4 0.4-0.4h64.1c0.2 0 0.3 0.2 0.3 0.4z"/>
							</g>
						</g>
					</g>
				</g>
				<g id="&lt;Group&gt;">
					<path id="&lt;Path&gt;" class="s13" d="m627 356.1c-1.3 0-3.1 0.8-4 1.7l-13.3 13.3c-1 1-2.8 1.7-4.1 1.7h-62.9c-1.4 0-2.4 1.1-2.4 2.4v70.7c0 1.3 1 2.3 2.4 2.3h127.4c1.3 0 2.4-1 2.4-2.3v-87.4c0-1.3-1.1-2.4-2.4-2.4z"/>
				</g>
			</g>
			<g id="&lt;Group&gt;">
				<path id="&lt;Path&gt;" class="s17" d="m494 554.7h-135.8c-1.4 0-2.6-1.2-2.6-2.7v-84.7c0-1.4 1.2-2.6 2.6-2.6h135.8c1.5 0 2.7 1.2 2.7 2.6v84.7c0 1.5-1.2 2.7-2.7 2.7z"/>
				<path id="&lt;Path&gt;" class="s18" d="m486 498.2h-13.7l-13.2-9.6-13.1 10.3-13.5-4.9-12.9 19.5h-13.5l-13.3 9.8-13-15-13.2 5.1v25.2h119.4z"/>
				<g id="&lt;Group&gt;">
					<path id="&lt;Path&gt;" class="s13" d="m392.7 523.9l-13-15.1-12.9 4.9-0.3-0.7 13.5-5.2 12.9 15 13.1-9.7h13.4l12.9-19.6 13.6 5 13.2-10.4 13.3 9.7h13.6v0.8h-13.8l-13.1-9.5-13 10.3-13.5-4.9-12.8 19.4h-13.6z"/>
				</g>
				<path id="&lt;Path&gt;" class="s12" d="m368.1 513.4c0 0.8-0.6 1.4-1.5 1.4-0.8 0-1.4-0.6-1.4-1.4 0-0.9 0.6-1.5 1.4-1.5 0.9 0 1.5 0.6 1.5 1.5z"/>
				<path id="&lt;Path&gt;" class="s12" d="m381.3 508.3c0 0.8-0.7 1.5-1.5 1.5-0.8 0-1.4-0.7-1.4-1.5 0-0.8 0.6-1.5 1.4-1.5 0.8 0 1.5 0.7 1.5 1.5z"/>
				<path id="&lt;Path&gt;" class="s12" d="m394.3 523.3c0 0.9-0.7 1.5-1.5 1.5-0.8 0-1.5-0.6-1.5-1.5 0-0.8 0.7-1.4 1.5-1.4 0.8 0 1.5 0.6 1.5 1.4z"/>
				<path id="&lt;Path&gt;" class="s12" d="m407.6 513.5c0 0.8-0.7 1.5-1.5 1.5-0.8 0-1.5-0.7-1.5-1.5 0-0.8 0.7-1.5 1.5-1.5 0.8 0 1.5 0.7 1.5 1.5z"/>
				<path id="&lt;Path&gt;" class="s12" d="m421.1 513.5c0 0.8-0.7 1.5-1.5 1.5-0.8 0-1.4-0.7-1.4-1.5 0-0.8 0.6-1.5 1.4-1.5 0.8 0 1.5 0.7 1.5 1.5z"/>
				<path id="&lt;Path&gt;" class="s12" d="m434 494c0 0.8-0.7 1.5-1.5 1.5-0.8 0-1.5-0.7-1.5-1.5 0-0.8 0.7-1.5 1.5-1.5 0.8 0 1.5 0.7 1.5 1.5z"/>
				<path id="&lt;Path&gt;" class="s12" d="m447.5 498.9c0 0.8-0.7 1.5-1.5 1.5-0.8 0-1.5-0.7-1.5-1.5 0-0.8 0.7-1.4 1.5-1.4 0.8 0 1.5 0.6 1.5 1.4z"/>
				<path id="&lt;Path&gt;" class="s12" d="m460.6 488.6c0 0.8-0.7 1.5-1.5 1.5-0.8 0-1.5-0.7-1.5-1.5 0-0.8 0.7-1.5 1.5-1.5 0.8 0 1.5 0.7 1.5 1.5z"/>
				<path id="&lt;Path&gt;" class="s12" d="m473.8 498.2c0 0.9-0.7 1.5-1.5 1.5-0.8 0-1.5-0.6-1.5-1.5 0-0.8 0.7-1.4 1.5-1.4 0.8 0 1.5 0.6 1.5 1.4z"/>
				<path id="&lt;Path&gt;" class="s12" d="m487.4 498.2c0 0.9-0.6 1.5-1.4 1.5-0.9 0-1.5-0.6-1.5-1.5 0-0.8 0.6-1.4 1.5-1.4 0.8 0 1.4 0.6 1.4 1.4z"/>
			</g>
			<g id="&lt;Group&gt;">
				<g id="&lt;Group&gt;">
					<path id="&lt;Compound Path&gt;" fill-rule="evenodd" class="s8" d="m624.2 470.8v77.8c0 3.4-2.7 6.1-6.1 6.1h-97.4c-3.4 0-6.1-2.7-6.1-6.1v-77.8c0-3.4 2.7-6.1 6.1-6.1h97.4c3.4 0 6.1 2.7 6.1 6.1zm-1.4 77.8v-77.8c0-2.6-2.1-4.7-4.7-4.7h-97.4c-2.6 0-4.7 2.1-4.7 4.7v77.8c0 2.6 2.1 4.7 4.7 4.7h97.4c2.6 0 4.7-2.1 4.7-4.7z"/>
				</g>
				<g id="&lt;Group&gt;">
					<g id="&lt;Group&gt;">
						<path id="&lt;Path&gt;" class="s13" d="m610.1 483.9c0 1-0.9 1.9-1.9 1.9h-78.9c-1.1 0-1.9-0.9-1.9-1.9v-5c0-1.1 0.8-1.9 1.9-1.9h78.9c1 0 1.9 0.8 1.9 1.9z"/>
					</g>
					<g id="&lt;Group&gt;">
						<path id="&lt;Path&gt;" class="s6" d="m610.1 492.2c0 1-0.9 1.9-1.9 1.9h-78.9c-1.1 0-1.9-0.9-1.9-1.9v-0.4c0-1 0.8-1.9 1.9-1.9h78.9c1 0 1.9 0.9 1.9 1.9z"/>
					</g>
					<g id="&lt;Group&gt;">
						<path id="&lt;Path&gt;" class="s6" d="m587.1 500.5c0 1-0.8 1.9-1.9 1.9h-55.9c-1.1 0-1.9-0.9-1.9-1.9v-0.4c0-1 0.8-1.9 1.9-1.9h55.9c1.1 0 1.9 0.9 1.9 1.9z"/>
					</g>
					<g id="&lt;Group&gt;">
						<path id="&lt;Path&gt;" class="s9" d="m599.2 508.8c0 1-0.8 1.9-1.9 1.9h-68c-1.1 0-1.9-0.9-1.9-1.9v-0.4c0-1 0.8-1.9 1.9-1.9h68c1.1 0 1.9 0.9 1.9 1.9z"/>
					</g>
					<g id="&lt;Group&gt;">
						<path id="&lt;Path&gt;" class="s9" d="m587.1 517.1c0 1-0.8 1.9-1.9 1.9h-55.9c-1.1 0-1.9-0.9-1.9-1.9v-0.4c0-1 0.8-1.9 1.9-1.9h55.9c1.1 0 1.9 0.9 1.9 1.9z"/>
					</g>
					<g id="&lt;Group&gt;">
						<path id="&lt;Path&gt;" class="s12" d="m587.1 525.4c0 1-0.8 1.9-1.9 1.9h-55.9c-1.1 0-1.9-0.9-1.9-1.9v-0.4c0-1 0.8-1.9 1.9-1.9h55.9c1.1 0 1.9 0.9 1.9 1.9z"/>
					</g>
					<g id="&lt;Group&gt;">
						<path id="&lt;Path&gt;" class="s12" d="m572.9 533.7c0 1-0.8 1.9-1.8 1.9h-41.8c-1.1 0-1.9-0.9-1.9-1.9v-0.4c0-1 0.8-1.9 1.9-1.9h41.8c1 0 1.8 0.9 1.8 1.9z"/>
					</g>
					<g id="&lt;Group&gt;">
						<path id="&lt;Path&gt;" class="s12" d="m548.1 542c0 1-0.9 1.9-1.9 1.9h-16.9c-1.1 0-1.9-0.9-1.9-1.9v-0.4c0-1 0.8-1.9 1.9-1.9h16.9c1 0 1.9 0.9 1.9 1.9z"/>
					</g>
				</g>
			</g>
			<g id="&lt;Group&gt;">
				<g id="&lt;Group&gt;">
					<path id="&lt;Path&gt;" class="s8" d="m415.5 434.6h-56.8c-1.7 0-3.1-1.5-3.1-3.2v-85.1c0-1.7 1.4-3.1 3.1-3.1h56.8c1.7 0 3.1 1.4 3.1 3.1v85.1c0 1.7-1.4 3.2-3.1 3.2z"/>
				</g>
				<path id="&lt;Path&gt;" class="s9" d="m381.2 370.6h-16.3c-0.8 0-1.4-0.6-1.4-1.4v-16.3c0-0.8 0.6-1.4 1.4-1.4h16.3c0.8 0 1.4 0.6 1.4 1.4v16.3c0 0.8-0.6 1.4-1.4 1.4z"/>
				<path id="&lt;Path&gt;" class="s6" d="m408.6 370.6h-16.3c-0.8 0-1.4-0.6-1.4-1.4v-16.3c0-0.8 0.6-1.4 1.4-1.4h16.3c0.8 0 1.4 0.6 1.4 1.4v16.3c0 0.8-0.6 1.4-1.4 1.4z"/>
				<path id="&lt;Path&gt;" class="s12" d="m381.2 398.2h-16.3c-0.8 0-1.4-0.7-1.4-1.4v-16.4c0-0.7 0.6-1.3 1.4-1.3h16.3c0.8 0 1.4 0.6 1.4 1.3v16.4c0 0.7-0.6 1.4-1.4 1.4z"/>
				<path id="&lt;Path&gt;" class="s19" d="m408.6 398.2h-16.3c-0.8 0-1.4-0.7-1.4-1.4v-16.4c0-0.7 0.6-1.3 1.4-1.3h16.3c0.8 0 1.4 0.6 1.4 1.3v16.4c0 0.7-0.6 1.4-1.4 1.4z"/>
				<path id="&lt;Path&gt;" class="s9" d="m381.2 425.7h-16.3c-0.8 0-1.4-0.6-1.4-1.3v-16.4c0-0.7 0.6-1.4 1.4-1.4h16.3c0.8 0 1.4 0.7 1.4 1.4v16.4c0 0.7-0.6 1.3-1.4 1.3z"/>
				<path id="&lt;Path&gt;" class="s12" d="m408.6 425.7h-16.3c-0.8 0-1.4-0.6-1.4-1.3v-16.4c0-0.7 0.6-1.4 1.4-1.4h16.3c0.8 0 1.4 0.7 1.4 1.4v16.4c0 0.7-0.6 1.3-1.4 1.3z"/>
			</g>
		</g>
		<g id="&lt;Group&gt;">
			<g id="&lt;Group&gt;">
				<path id="&lt;Path&gt;" class="s3" d="m121.3 729.1c0 0 27.7-50.6 9.3-57.1-12.1-4.2-16 43.1-16 43.1 0 0-1.1-52.5-17.2-45.8-12.1 5.1 4.1 43 4.1 43 0 0-17.6-14.3-19.9-5.3-3.5 14.2 16.8 22.3 16.8 22.3z"/>
				<path id="&lt;Path&gt;" class="s4" d="m115.6 729.1l13.4-41.9c0.1-0.2 0-0.5-0.3-0.6-0.2 0-0.4 0.1-0.5 0.3l-13.5 42.2z"/>
				<path id="&lt;Path&gt;" class="s4" d="m112.2 729.2l-9.6-45.7c-0.1-0.3-0.3-0.4-0.5-0.4-0.3 0.1-0.4 0.3-0.4 0.5l9.6 45.6z"/>
				<path id="&lt;Path&gt;" class="s4" d="m107.2 729.2l-18.2-15.7c-0.2-0.1-0.5-0.1-0.6 0.1-0.2 0.2-0.1 0.5 0 0.6l17.5 15z"/>
				<path id="&lt;Path&gt;" class="s3" d="m141.5 668.4l0.7-0.5c0-0.1-5.6-8.2-13.7-6.6l0.2 0.9c7.5-1.5 12.8 6.1 12.8 6.2z"/>
			</g>
			<path id="&lt;Path&gt;" class="s3" d="m72.1 708.1l0.8-0.2c-0.8-3.5-0.5-6.2 1.1-7.9 2.4-2.8 7.1-2.4 7.2-2.4l0.1-0.9c-0.3 0-5.3-0.5-8 2.7-1.7 2-2.1 4.9-1.2 8.7z"/>
		</g>
		<g id="&lt;Group&gt;">
			<path id="&lt;Path&gt;" class="s3" d="m646.9 748.1c0 0-36-67.6-6.8-66.9 12.1 0.3 22.5 54.1 22.5 54.1 0 0-2.4-49.1 21.6-41.4 13.1 4.2-6.6 41.4-6.6 41.4 0 0 17.8-24 27.8-17.2 16.4 11.1-13.6 30.2-13.6 30.2z"/>
			<path id="&lt;Path&gt;" class="s3" d="m631.1 748.1c0 0-6.3-35.8-20.3-35.2-9.9 0.4-0.9 24.7 7.5 35.2 0 0 12.4 0 12.8 0z"/>
			<path id="&lt;Path&gt;" class="s4" d="m655.6 748.2l-15-53.1c-0.1-0.3-0.4-0.5-0.8-0.4-0.3 0.1-0.5 0.4-0.4 0.8l14.8 52.7z"/>
			<path id="&lt;Path&gt;" class="s4" d="m668.1 748.2l10.3-42.9c0.1-0.3-0.1-0.7-0.5-0.8-0.3-0.1-0.7 0.1-0.8 0.5l-10.4 43.2z"/>
			<path id="&lt;Path&gt;" class="s4" d="m624.5 748.1l-9.6-24c-0.1-0.3-0.5-0.5-0.8-0.3-0.4 0.1-0.5 0.5-0.4 0.8l9.4 23.5z"/>
			<path id="&lt;Path&gt;" class="s4" d="m679.1 748.3l18.9-21.3c0.2-0.3 0.2-0.7-0.1-0.9-0.3-0.3-0.7-0.3-0.9 0l-19.7 22.2z"/>
			<path id="&lt;Path&gt;" class="s3" d="m654.7 679.7q0.1 0 0.3-0.1c0.3-0.1 0.5-0.5 0.4-0.8-0.3-0.7-6.1-15.8-16.1-19.3-3.6-1.3-7.4-0.8-11.1 1.4-0.3 0.2-0.4 0.6-0.2 0.9 0.1 0.3 0.6 0.4 0.9 0.2 3.3-2 6.7-2.4 10-1.2 9.3 3.3 15.1 18.3 15.2 18.4 0.1 0.3 0.4 0.5 0.6 0.5z"/>
		</g>
		<g id="&lt;Group&gt;">
			<g id="&lt;Group&gt;">
				<path id="&lt;Path&gt;" class="s20" d="m216.9 565.8h10q-0.1-1.7-0.1-3.4c0-4 0.5-7.9 1-11.8 0.5-3.8 1.2-7.5 2.6-11.1 0.7-1.9 1.5-3.7 1.9-5.7q0.5-2.3 0.3-4.7h-14.2c0.2 2.8 0.3 5.6-0.6 8.3-0.5 1.5-1 2.9-1.4 4.4q-0.5 2.2-0.7 4.4c-0.7 6.3 0.3 12.6 1.1 18.8q0.1 0.4 0.1 0.8z"/>
				<path id="&lt;Path&gt;" class="s13" d="m227.1 565.8q0.1-1.4 0.3-2.9c0 0-3.1 0.3-11.3-0.1 0 0 0.1 1.3 0.3 3z"/>
				<path id="&lt;Path&gt;" class="s21" d="m238.8 585.9c-0.2-1.3-1.1-2.1-2.1-2.8-2-1.3-8-3.1-8.6-3.6-1.3-1.1-1.5-2.9-1.5-4.5 0.2-3.4 0.6-6.8 0.9-10.1 0 0-4.3 1-11.6-0.2 0 0 0.5 6 0.8 9.1 0.1 1.4 0.2 2.9 0.1 4.4-0.1 1.3-0.4 2.5-0.6 3.8-0.3 1.3-0.5 2.5-0.6 3.8 0 0.3 0 0.7 0 0.7 0.8 0.9 2.7 0.8 3.6 0.8 2.3-0.1 4.5-0.5 6.7-0.3 3 0.2 5.9 0.6 8.8 0.7 1 0.1 2 0.1 2.9-0.1 1.2-0.3 1.3-1.4 1.2-1.7z"/>
			</g>
			<g id="&lt;Group&gt;">
				<path id="&lt;Path&gt;" class="s20" d="m199.8 565.8h10q-0.1-1.7-0.1-3.4c0-4 0.5-7.9 1-11.8 0.5-3.8 1.2-7.5 2.6-11.1 0.7-1.9 1.5-3.7 1.9-5.7q0.5-2.3 0.3-4.7h-14.2c0.1 2.8 0.3 5.6-0.6 8.3-0.5 1.5-1.1 2.9-1.4 4.4q-0.5 2.2-0.7 4.4c-0.7 6.3 0.3 12.6 1.1 18.8q0 0.4 0.1 0.8z"/>
				<path id="&lt;Path&gt;" class="s13" d="m209.9 565.8q0.2-1.4 0.4-2.9c0 0-3.1 0.3-11.3-0.1 0 0 0.1 1.3 0.2 3z"/>
				<path id="&lt;Path&gt;" class="s22" d="m221.7 585.9c-0.2-1.3-1.1-2.1-2.1-2.8-2-1.3-8-3.1-8.7-3.6-1.2-1.1-1.4-2.9-1.4-4.5 0.1-3.4 0.6-6.8 0.9-10.1 0 0-4.3 1-11.6-0.2 0 0 0.5 6 0.8 9.1 0.1 1.4 0.2 2.9 0.1 4.4-0.1 1.3-0.4 2.5-0.6 3.8-0.3 1.3-0.6 2.5-0.6 3.8 0 0.3 0 0.7 0 0.7 0.8 0.9 2.7 0.8 3.6 0.8 2.3-0.1 4.4-0.5 6.7-0.3 3 0.2 5.9 0.6 8.8 0.7 1 0.1 2 0.1 2.9-0.1 1.2-0.3 1.3-1.4 1.2-1.7z"/>
			</g>
			<path id="&lt;Compound Path&gt;" class="s20" d="m266.3 418.2c-0.7-0.7-1.4 0.8-1.7 1.2-0.8 1.1-1.9 1.7-3 2.4q0.5-0.6 1-1.2c0.3-0.3 0.7-0.6 1-1 0.3-0.3 0.5-0.8 0.7-1.3 0.2-0.4 0.5-0.8 0.6-1.2 0.1-0.3 0.2-0.5 0-0.7-0.4-0.5-1.1 0-1.5 0.4q0.1-0.3 0-0.6c-0.4-0.8-1.1-0.1-1.4 0.2-1.1 1-2.2 2-3.3 3-0.5 0.4-1 0.9-1.5 1.2q-0.1 0.1-0.3 0.2-0.3-0.1-0.6-0.3c0-0.1 0.2-0.5 0.2-0.5 0.2-0.3 0.3-0.5 0.3-0.7 0.2-0.4 0.2-1.4-0.5-1.3-0.4 0.1-0.8 0.7-1 1-0.4 0.4-0.7 0.9-1 1.4-0.5 0.9-0.6 1.9-0.6 2.9 0 1.4-0.1 2.8-0.6 4.1q-0.4 1.1-1 2c-0.4 0.6-0.9 1.1-1.2 1.7 0 0 4.6 2 5.7 2.3 0.2-2.2 2.3-3.7 3.7-5.3 0.7-0.7 1.3-1.4 2.1-2 0.7-0.6 1.6-1.1 2.2-1.9 0.6-0.7 1-1.5 1.5-2.3 0.1-0.3 0.5-0.9 0-1.1-0.5-0.2-1 0.5-1.3 0.8q-0.1 0.1-0.3 0.2 0.4-0.4 0.8-0.9c0.4-0.5 1.6-2 1-2.7z"/>
			<path id="&lt;Compound Path&gt;" fill-rule="evenodd" class="s2" d="m251.1 444.3c-2.5 3.2-5.1 7.2-9.2 7.8-4.3 0.5-8.4-1.3-12-3.5-0.6-0.4-3-1.7-3.7-2.1 0.7 3.2 0.3 6.3 0 8.8-0.7 6.4 1.7 10.9 3.3 17.1q2.4 9.3 4.3 18.7 4 18.6 6.3 37.6c-15.5 2.3-32.2 6-47.8 0q0.8-14.3 1.5-28.7c0.5-8.3 0.9-16.7 2-25-1 1.2-2.7 4.2-2.7 4.2-2.9-1.9-13.6-9.6-15.1-11.7-2.6-3.6-1.8-7-0.5-10.9 0.9-2.6 2-5.1 2.8-7.7 0.9-2.7 5.1-14.3 10.4-18.9 4.8-4.1 9.9-4 18.1-3.4 4.8 0.3 8.9-0.3 14.2 1.9 2.7 1.1 5.4 3.9 8.6 6.8 4.6 4.1 6.5 7.7 10.1 4.5 3.3-3 6.6-7.8 9.8-11 2.6 1.5 3.6 2.4 6.5 3.1-2.9 4.1-3.9 8.5-6.9 12.4zm-52.3 18c0 0-0.5-3.3-0.5-3.4-0.9-4.6-2.3-7.9-3.7-12.5-1.2 5.1-5.1 10.4-8.2 14.6 1.2 0.9 8.5 10 10.4 12 0.7-3.6 1.8-6.4 2-10.7z"/>
			<g id="&lt;Group&gt;">
				<path id="&lt;Path&gt;" class="s23" d="m194.4 495.5l-4.2-5.3 33.3-26.1 4.1 5.3z"/>
				<path id="&lt;Path&gt;" class="s23" d="m239.3 459l-7.3 5.8-3.1-3.9 7.3-5.8c-2.9-2-7-2-10 0.3-3.6 2.9-4.3 8.2-1.4 11.9 2.9 3.7 8.2 4.3 11.9 1.4 2.9-2.3 3.9-6.3 2.6-9.7z"/>
				<path id="&lt;Path&gt;" class="s23" d="m184.3 502.3l7.4-5.8-3.1-3.9-7.4 5.8c-1.3-3.4-0.3-7.3 2.7-9.7 3.7-2.8 9-2.2 11.9 1.5 2.8 3.6 2.2 8.9-1.5 11.8-2.9 2.4-7 2.4-10 0.3z"/>
				<path id="&lt;Path&gt;" class="s9" d="m196.7 489.4c-0.3-0.4-0.2-0.9 0.2-1.2l25.1-19.8c0.4-0.3 0.9-0.2 1.2 0.1 0.3 0.4 0.3 1-0.1 1.3l-25.1 19.8c-0.4 0.3-1 0.2-1.3-0.2z"/>
			</g>
			<path id="&lt;Path&gt;" class="s20" d="m201.9 418.3c-0.1-1.5-0.3-2.5-0.3-2.5 0 0 2.4-0.4 2.9-2.7 0 0 1.8-12.7 6.1-13.1 5.2-0.6 7.5 0.8 8.5 5.8 0.5 2.1 1.6 2.8 2.7 3.8 0.4 0.3 0.1 1.1-0.5 1.1h-0.8c-0.1 0.1-0.3 0.2-0.3 0.4 0.1 1.4 0 2.8-0.3 4-0.7 2.8-0.4 5.8-5.3 5.7q-0.8 0-1.7-0.1c0 0 0.2 3.4 1.3 8.5 0.1 0.6 0.2 1.2 0.2 1.2-1.8 2.3-7.7 1.4-10.3-0.9-1-0.9-2.5-2.4-2.5-2.7 0.6-2.8 0.6-6.1 0.3-8.5z"/>
			<path id="&lt;Compound Path&gt;" class="s20" d="m204.2 488.5c0.8-0.6-0.6-1.5-0.9-1.8-1-1-1.4-2.2-1.9-3.4q0.5 0.6 1 1.2c0.3 0.4 0.5 0.8 0.8 1.1 0.3 0.3 0.8 0.6 1.2 0.9 0.4 0.3 0.7 0.6 1.1 0.8 0.2 0.2 0.5 0.3 0.7 0.1 0.6-0.3 0.2-1.1-0.2-1.6q0.3 0.2 0.7 0.1c0.8-0.2 0.2-1-0.1-1.4-0.8-1.2-1.6-2.4-2.4-3.7-0.3-0.5-0.8-1.1-1-1.7q0-0.1-0.1-0.2 0.2-0.3 0.4-0.6c0.1 0 0.4 0.3 0.5 0.3q0.3 0.2 0.6 0.4c0.4 0.2 1.4 0.4 1.4-0.3 0-0.4-0.6-0.9-0.8-1.2-0.4-0.4-0.8-0.8-1.3-1.2-0.8-0.7-1.8-0.9-2.8-1-1.4-0.2-2.7-0.6-3.9-1.3q-1-0.5-1.8-1.3c-0.6-0.5-1-1-1.5-1.4-0.1 0-2.7 4.2-3.2 5.2 2.2 0.6 3.3 2.9 4.6 4.5 0.6 0.8 1.3 1.6 1.7 2.4 0.5 0.8 0.8 1.8 1.5 2.5 0.6 0.7 1.4 1.2 2.1 1.8 0.3 0.2 0.8 0.7 1.1 0.2 0.2-0.4-0.4-1.1-0.6-1.4q-0.1-0.1-0.2-0.3 0.4 0.5 0.8 0.9c0.4 0.4 1.7 1.9 2.5 1.4z"/>
			<path id="&lt;Path&gt;" class="s2" d="m197.6 473.6c0 0-1.5 1-2.8 2.6-1 1.3-1.7 3-1.7 3l-3.7-2.5 4.3-7.3z"/>
			<path id="&lt;Path&gt;" class="s24" d="m192.5 406.3c1.1-0.7 2.2-0.7 2.9-0.5-0.5-2.6-0.4-4.2 0.3-5.8 1.3-3.1 3.8-5.5 7-6.8 6.9-2.6 7.5 0.6 11.3 0.4 1.4-0.1 2.6-0.6 3.8 0.3 1.3 0.8 2 2.4 2 3.9 0 5-4 3.8-6 5.6-1.5 1.3-2.6 3.6-2.8 4.3-0.7 2-2.9 2.8-3.8 4.7-1 2-1.3 5-3 6.5-1.3 1.2-4.3 0-5.5-1.4-0.4 0.4-1.9 0.8-3.5 0.5-1.9-0.5-3.3-2.7-4.2-5.4-0.9-3 0.2-5.4 1.5-6.3z"/>
		</g>
		<g id="&lt;Group&gt;">
			<path id="&lt;Path&gt;" class="s23" d="m784.9 735.8c-0.6 0-1-0.6-1-1.3v-134.4c0-0.7-0.6-1.2-1.3-1.2h-6.7c-0.7 0-1.2 0.5-1.2 1.2v134.4c0 0.7-0.5 1.3-1 1.3-0.5 0-1 0.4-1 1 0 0.5 0.5 1 1 1 0.5 0 1.5 0 2.2 0h6.7c0.7 0 1.7 0 2.3 0 0.5 0 0.9-0.5 0.9-1 0-0.6-0.4-1-0.9-1z"/>
			<path id="&lt;Path&gt;" class="s23" d="m908.8 735.8c-0.6 0-1-0.6-1-1.3v-134.4c0-0.7-0.6-1.2-1.3-1.2h-6.7c-0.6 0-1.2 0.5-1.2 1.2v134.4c0 0.7-0.4 1.3-1 1.3-0.5 0-1 0.4-1 1 0 0.5 0.5 1 1 1 0.6 0 1.6 0 2.2 0h6.7c0.7 0 1.7 0 2.3 0 0.5 0 0.9-0.5 0.9-1 0-0.6-0.4-1-0.9-1z"/>
			<path id="&lt;Path&gt;" class="s23" d="m903.2 675.2h-120.9v-6.9h120.9z"/>
			<g id="&lt;Clip Group&gt;" clip-path="url(#cp1)">
				<g id="&lt;Group&gt;">
					<path id="&lt;Path&gt;" class="s24" d="m923.9 649.5h-166v-47.1h166z"/>
					<path id="&lt;Path&gt;" class="s13" d="m782.3 649.5l26.3-47.1h-11.7l-26.3 47.1z"/>
					<path id="&lt;Path&gt;" class="s13" d="m819.4 649.5l26.3-47.1h-11.7l-26.3 47.1z"/>
					<path id="&lt;Path&gt;" class="s13" d="m855.9 649.5l26.3-47.1h-11.7l-26.3 47.1z"/>
					<path id="&lt;Path&gt;" class="s13" d="m890.2 649.5l26.3-47.1h-11.7l-26.3 47.1z"/>
					<path id="&lt;Path&gt;" class="s13" d="m757.9 602.4v19.9l11.1-19.9z"/>
					<path id="&lt;Path&gt;" class="s13" d="m923.9 632.4l-9.5 17.1h9.5z"/>
				</g>
			</g>
		</g>
		<g id="&lt;Group&gt;">
			<g id="&lt;Group&gt;">
				<path id="&lt;Compound Path&gt;" class="s3" d="m977.1 491.3c-9.5 2.5-19.7 7.3-24.1 17.1-3.6 8.1-6.7 19.1 2.7 24.3 10.6 5.9 23.1 4.7 32.7-1.4 7.9-5 13.6-11.6 16.7-16.8q5.7-9.3 11.4-18.7c0.4-0.6 0-1.5-0.7-1.5-6.8-0.5-13.5-1.5-20.3-2.9-6.3-1.3-12.2-1.7-18.4-0.1z"/>
				<path id="&lt;Path&gt;" class="s4" d="m1016 495.3c-4.1 2.3-8.3 4.6-12.7 6.3q-0.5 0.2-1.1 0.4 2 0.1 4 0.2c1.7 0.2 3.3 0.5 4.9 1.3 0.5 0.2 0.2 1.1-0.3 0.8-1.5-0.7-3.1-1.1-4.8-1.2-2-0.2-3.9-0.2-5.8-0.3q-0.2 0-0.2-0.1c-3.3 1-6.6 1.7-9.8 2.7-3.5 1.1-6.9 2.4-10.2 4 3.3 2.6 8.1 2.6 12 3q3.6 0.3 7.2 0.7c1.8 0.2 3.7 0.4 5 1.8 0.4 0.4-0.3 1-0.7 0.6-1.5-1.7-4.5-1.5-6.6-1.7q-3.7-0.4-7.4-0.8c-3.6-0.3-7.5-0.7-10.3-3.2-4.8 2.3-9.4 5-13.9 7.7q-2.3 1.3-4.5 2.7c10.6 5.3 22.6 7.1 34.3 4.8 0.5-0.1 0.6 0.8 0.1 0.9-12 2.3-24.4 0.4-35.3-5.1-3 1.9-5.9 3.9-8.5 6.4-0.4 0.4-0.9-0.3-0.5-0.7q1.4-1.3 3-2.6 0 0 0 0c1.2-5.6 3.2-11 5.9-16.1 2.7-5.1 6-10.8 11.2-13.7 0.4-0.3 0.8 0.5 0.3 0.8-2.7 1.5-4.7 3.9-6.5 6.5q-2.4 3.4-4.3 7.1c-2.5 4.6-4.3 9.5-5.5 14.6q2.1-1.6 4.5-3.1c0-0.2 0.2-0.3 0.4-0.2q1.2-0.8 2.4-1.6 2.6-1.5 5.2-3c1.4-4.2 3.2-8.1 5.7-11.8 2.8-4.1 5.7-8.1 8.5-12.2 0.4-0.5 1.1 0 0.8 0.5-2.8 3.9-5.6 7.8-8.3 11.8-2.4 3.4-4.2 7.1-5.6 11q3.1-1.7 6.2-3.4 1.9-1 3.9-2c0.1-0.2 0.3-0.3 0.6-0.3q3.8-1.8 7.8-3.3 0 0 0 0c1.8-2.2 2.4-5.1 3.7-7.6 1.3-2.7 3.5-4.4 6-6.1 0.5-0.3 1.1 0.4 0.6 0.7-1.3 0.8-2.5 1.7-3.6 2.7-1.1 1.1-1.9 2.3-2.5 3.7-0.9 2.1-1.6 4.3-2.8 6.1 4.2-1.3 8.5-2.1 12.6-3.5 5.1-1.8 9.8-4.4 14.5-7 0.5-0.3 0.9 0.5 0.4 0.8z"/>
			</g>
			<g id="&lt;Group&gt;">
				<path id="&lt;Compound Path&gt;" class="s3" d="m975.4 575c3.9 1 8 1.2 12.2 0.1 4.3-1.2 8.4-3.4 12.4-5.5 0.6-0.4 0.8-1.3 0.1-1.6-3-1.2-3.9-4.6-5.1-7.4-1.1-2.3-2.1-4.6-3.4-6.8-2.5-4.4-5.7-8.3-10.1-10.9-2.4-1.3-5-2.1-7.7-2.5q-1.7-0.4-3.5-0.6c-6.2-0.5-13.6 1.7-18.6 6.7-2.5 2.5-1.6 5-0.7 7.7 1.2 3.5 3 6.8 5.3 9.6 4.7 5.8 11.7 9.4 19.1 11.2z"/>
				<path id="&lt;Path&gt;" class="s4" d="m958 564.8c0.7-2.5 0-4.9-1.5-6.9-0.9-1.2-1.7-2.2-2.1-3.6-0.4-1.3-0.6-2.7-0.7-4.1 2.6 0.4 5.3 0.9 7.9 1.7q0.1 0 0.2 0c3.1 6.1 1.3 13.2 4 19.4 0.2 0.4 0.9 0.2 0.7-0.3-2.6-5.9-1-12.8-3.7-18.7 3 1 5.9 2.4 8.6 4.1q1.4 0.8 2.8 1.7c0.6 1.7 0.6 3.5 0.8 5.3q0.3 2.3 1.4 4.4c1.5 2.7 3.7 5 5.1 7.8 0.3 0.4 1 0.1 0.7-0.3-1.4-2.7-3.5-5-5-7.7-0.9-1.5-1.3-3.2-1.5-5-0.1-1.3-0.2-2.6-0.5-3.9 3 1.9 6.1 3.8 9.3 5.4 1.9 3.7 4.1 7.7 8.5 8.8 0.4 0.1 0.6-0.6 0.1-0.8-3.7-0.9-5.8-4.2-7.4-7.4q1.8 0.9 3.7 1.7c3.5 1.4 7.1 2.4 10.9 2.8 0.5 0.1 0.6-0.7 0.1-0.7-5.4-0.6-10.5-2.5-15.3-4.9-0.1-0.2-0.3-0.3-0.4-0.2q-0.8-0.4-1.6-0.8 1.6-0.8 3.3-1.3c2.4-0.7 5.1-0.9 7.7-1.1 0.4 0 0.4-0.7-0.1-0.7-4 0.3-8.1 0.6-11.6 2.6q-0.6-0.3-1.2-0.6c-2.2-1.3-4.3-2.6-6.4-4q-0.1 0-0.1 0-1.7-1.1-3.4-2.1c2.2-2 5.3-2.5 8.2-2.9 3.1-0.3 6.1-0.8 9-2.2 0.4-0.2 0.2-0.9-0.3-0.7-1.6 0.7-3.3 1.3-5 1.7-1.7 0.3-3.5 0.4-5.2 0.7-2.7 0.3-5.4 1.1-7.4 3-2.5-1.4-5-2.7-7.8-3.5-1.7-0.6-3.4-1-5.2-1.4 1.9-3 5.7-3.8 9-4.4 3.5-0.7 6.7-1.7 9.5-3.9 0.4-0.3-0.1-0.9-0.4-0.6-1.6 1.2-3.3 2.1-5.1 2.7-2 0.7-4.2 1-6.2 1.5-3 0.7-6 1.9-7.6 4.6-2-0.4-3.9-0.7-5.9-1-0.5-0.1-0.6 0.7-0.1 0.8q1 0.1 2.1 0.3c0.3 2.5 0.6 5 2.1 7.1 0.8 1.1 1.7 2.1 2.2 3.5 0.4 1.3 0.4 2.6 0.1 3.9-0.1 0.5 0.6 0.7 0.7 0.2z"/>
			</g>
			<g id="&lt;Group&gt;">
				<path id="&lt;Path&gt;" class="s25" d="m974.8 701c0.6-2.4 2.2-4.4 3.8-6.2 3.3-3.7 6.9-7.3 10.6-10.7h25.1c-0.7 2-1.8 3.9-3.2 5.5-1.2 1.4-2.7 2.5-4.2 3.6-1.6 1.1-3.1 2.3-4.6 3.6q-0.5 0.4-1 0.9c3.7 1.3 7.9 4.9 11.4 6.7l-1.2 12.1c-3-0.4-19.5-3.8-22.4-4.8 0 0-4.5-0.4-7-1.1-1.9-0.5-5.6-2.3-6.7-4.1-1-1.6-1.1-3.7-0.6-5.5z"/>
				<path id="&lt;Path&gt;" class="s26" d="m949.3 669.6c5.4 0.7 24.2 1.6 26.8 1.4 0-0.2 6.3-21 15.1-27.8 6 3.9 3.5 20.7 3.5 20.7-0.7 1.8-1.7 4.7-2.5 6.5-0.6 1.5-0.9 2.1-2.4 2.9-1.5 1-3.2 1.4-4.9 1.9-1.9 0.4-3.8 0.9-5.6 1.7-1.8 0.7-3.6 1.6-5.4 2.3-1.8 0.7-5 1.5-6.9 1.7-2 0.1-19.3-3.6-19.3-3.7 0-2.3 1.6-7.6 1.6-7.6z"/>
				<path id="&lt;Path&gt;" class="s6" d="m975.8 449.4h-50.2c-1.1 0-2 0.9-2 2v1.5c0 1.1 0.9 2 2 2h21.7v280.6c0 1.1 0.9 2 2 2h2.8c1.1 0 2-0.9 2-2v-280.6h21.7c1.1 0 2-0.9 2-2v-1.5c0-1.1-0.9-2-2-2z"/>
				<path id="&lt;Path&gt;" class="s20" d="m949.5 667.2q0 0.1 0 0c0.5-0.1 0.8-0.1 1.5-0.4 0.4-0.2 2.2-1 2.6-1 0.3 0 0.7 0.1 0.8 0.4 0.1 0.3-0.1 0.7-0.3 0.9-0.3 0.4-0.7 0.6-1.1 0.8-0.3 0.1-1.7 1-2.9 1.8 1.5 2.2 4 4.4-0.7 2.4-0.3 0.5 3.1 1.4 2.2 3.2 0 0.4 0.2 1.5-1.4 1.4 1.2 2.5-8.1-0.2-5.4-4.9 1.5-1.7-0.2-2.7 4.7-4.6z"/>
				<path id="&lt;Compound Path&gt;" class="s20" d="m952.5 688.3c-4.5 4.7-2.5 5.1-1.3 4.5-0.3 1.6 1 1.4 1.4 0.7 4.4-0.7 6.3-7.7 10.4-6.3 0 0-0.8-2.4-1.3-6.3-13 0.2-11.6 4.8-7.9 3.3-5.2 5.3-4.6 4.4-5.2 5.2-0.7 4.3 3.8-1.3 3.9-1.1z"/>
				<path id="&lt;Path&gt;" class="s20" d="m1000.7 640.7c-1.5 1.2-6.2 7.5-8.8 5.9l-3.5-16.2 10.7-2.4c0 0 0.2 1 0.6 2.5 0.6 2.4 2.6 4.4 4.3 6.9 0.1 0.2-3 3.1-3.3 3.3z"/>
				<path id="&lt;Path&gt;" class="s20" d="m999.1 628c-3.2 1.1-7.1-8.3-13-11.6-17.9-3.3-5 39.1 13 11.6z"/>
				<path id="&lt;Path&gt;" class="s24" d="m977.1 620.6c-0.9-0.4-1.9-0.4-2.6-1.1-0.6-0.6-0.9-1.3-1-2.1-0.4-2.2-0.9-4.1-0.1-6.1 1.1-2.9 4.4-4.6 6-4.9 3.5-0.7 8.7-1.1 13 0.4 1.2 0.4 1.9 1.5 3 2 7.1 3.1 3.8 10.9 4.1 12.5 0.6 2.7 2.2 5.8 1.3 8.5-0.5 1.3-2.9 2.3-4.4 2.4-0.8 0.1-1.4-0.1-1.8-0.5-0.2-0.3-0.2-0.6 0-0.9-4.6-6.9 3.3-3.7-10.1-9.9-1.3-0.8-4-0.1-6.3-0.7 0 0.2-0.3 0.5-1.1 0.4q0 0 0 0z"/>
				<path id="&lt;Path&gt;" class="s20" d="m993.5 623.1c0.1 1.2-0.3 2.2-1.6 2.4-1.1 0.1-2.2-0.6-2.4-1.8-0.3-1.2 0.4-2.4 1.5-2.6 2-0.5 2.4 0.8 2.5 2z"/>
				<path id="&lt;Path&gt;" class="s2" d="m961 680.5c4.1-1.9 8-2.6 11.9-3.9 2.1-0.7 13.1-5.7 14.2-6q0 0 0-0.1c-0.3-1-0.4-1.9-0.4-3 0-1.4 0.7-8.4 1.2-10.9 0.5-2.6 1-5.2 1.6-7.8q0.6-2.9 1.7-5.6 0.2 1.1 0.4 2c1.2-3 5.4-6.1 8.6-7.7 4.1-1.9 7.7-1.7 11.5 0.7 3.9 2.5 6.3 5.6 8.4 9.8 5.1 10.4 6.8 13 11.3 23.3 2.2 5.2 4.4 12.7 2.5 19.3-0.1 0-0.2-0.1-0.2-0.1-9-5.8-19.7-6.6-29.7-4.7-3.1 0.5-9.4 2-9.4 2q-1.4-3.2-2.8-6.4c-1.3 0.3-2.5 0.6-3.7 1-1.9 0.6-3.7 1.2-5.6 1.8q-2.8 0.8-5.7 1.4-5.7 1.2-11.4 1.6c-1.1 0-4.5 0.3-4.5 0.3 1.2-3.9 0-7.1 0.1-7z"/>
				<path id="&lt;Path&gt;" class="s12" d="m997.9 696.6c0.2 4.7-1.3 9.5-1.4 14.2h-12c-0.5-1.8-4-17.1-4.2-20.1 0 0-1.3-4.3-1.7-6.8-0.2-2 0-6.1 1.2-7.8 1.2-1.6 3-2.4 4.9-2.7 2.5-0.3 4.9 0.4 7.2 1.2 5 1.7 9.8 3.7 14.6 6q0.3 0.1 0.5 0.1c2.3 0.7 4.3 1.9 6.5 2.7 2.1 0.8 4.4 1.3 6.7 1.8 2.2 0.5 4.5 1 6.7 1.9q3.6 1.3 6.8 3.4c-2.5 6-7.7 10.9-14.2 12.5-3.4 0.8-7 0.7-10.4-0.4-1.7-0.6-3.3-1.5-4.9-2.5-1.6-1-3.3-2-5-2.9q-0.7-0.3-1.3-0.6z"/>
				<path id="&lt;Path&gt;" class="s22" d="m969.6 734.9c0.3-1.5 1.3-2.6 2.5-3.4 2.4-1.5 9.6-3.6 10.4-4.3 1.4-1.3 1.7-3.5 1.6-5.4-0.1-4-0.6-8-1-12.1 0 0 5.1 1.3 13.9-0.1 0 0-0.6 7.2-0.9 10.8-0.2 1.7-0.3 3.5-0.2 5.3 0.1 1.5 0.5 3 0.8 4.6 0.3 1.5 0.6 3 0.6 4.5 0 0.3 0 0.9 0 0.9-0.9 1-3.2 0.9-4.3 0.8-2.7-0.1-5.3-0.5-8-0.3-3.5 0.2-7 0.8-10.5 0.9-1.2 0.1-2.4 0-3.5-0.1-1.4-0.4-1.5-1.7-1.4-2.1z"/>
				<path id="&lt;Path&gt;" class="s22" d="m1030.8 736c-1.4-0.6-2.2-1.9-2.7-3.2-1-2.6-1.5-10.1-2-11.1-0.9-1.7-3-2.4-4.8-2.8-4-0.7-8.1-1.1-12.1-1.6 0 0 2.4-4.7 2.9-13.5 0 0 6.9 2.1 10.3 3.2 1.7 0.5 3.4 1 5.2 1.3 1.5 0.2 3.1 0.2 4.6 0.2 1.6 0.1 3.1 0.1 4.6 0.4 0.3 0 0.8 0.2 0.8 0.2 0.8 1.1 0.2 3.3-0.1 4.4-0.7 2.6-1.6 5-2.1 7.7-0.5 3.5-0.7 7-1.3 10.5-0.3 1.2-0.5 2.3-0.9 3.3-0.7 1.3-2 1.2-2.4 1z"/>
			</g>
		</g>
		<g id="&lt;Group&gt;">
			<g id="&lt;Group&gt;">
				<path id="&lt;Compound Path&gt;" class="s27" d="m894.7 382.1c0 0.4-0.2 0.7-0.3 1-0.4 1.3-0.8 2.7-1.8 3.6-0.7 0.6-1.5 1.1-2 1.9-0.3 0.5-0.4 1.1 0.2 1.4 0.7 0.4 1.5 0.1 2.1-0.3-0.2 0.5-0.4 1.1 0.2 1.3 0.7 0.3 1.8-0.2 2.5-0.7-0.2 0.4-0.4 0.9 0 1.3 0.5 0.4 1.2 0.3 1.7 0.2 0.2-0.1 0.6-0.4 0.8-0.3 0.1 0 0.3 0.3 0.5 0.3 0.7 0.2 1.4-0.4 1.8-0.9 1.4-1.4 2.6-3 3.2-4.9 0.4-1.1 0.4-2.3 0.7-3.4 0.3-1.1 1.2-1.9 1.7-3-1.5-1-3.8-2.6-5.8-3.9-0.6 1.4-1.8 2.4-3.3 2.8-1.1 0.3-2.4 0.3-3.5 1-1 0.5-1.9 1.6-2.6 2.5-0.4 0.4-0.9 1.2-0.3 1.7 0.7 0.5 1.6-0.4 2.1-0.7q0.9-0.5 1.8-1c0.4-0.2 0.4-0.3 0.3 0.1z"/>
				<path id="&lt;Path&gt;" class="s28" d="m909.6 358.2c2.1-3.5 2.2-7.1 2.5-11h13.9c0 0-0.3 6-0.4 6-0.5 3.7-1.5 7.3-3.7 10.4-2.1 2.9-4.7 5.5-7.1 8.2-2.7 3.1-5.4 6.3-8.4 9.2q-2.8-3.5-7.3-4.3c1.3-3.3 2.8-6.5 4.6-9.5 1.8-3.1 4-6 5.9-9z"/>
				<path id="&lt;Path&gt;" class="s29" d="m957.9 397.1c-0.7 1.5-1.5 3-1.8 4.6-0.5 2-0.1 4 0.3 6 1.5 6.2 1.9 12.3 1.3 18.7h-12.5c0-3.4-2.5-15-3.5-17.3-0.8-2.2-1.9-4.3-2.5-6.5-1.3-4.8-0.1-9.8 0.7-14.5 0.9-5.2 2-10.3 2.8-15.5 0.8-5.3 1.3-10.7 1.2-16.2h23.2c3.1 10.7-0.5 22-5 31.9-1.4 2.9-2.8 5.9-4.2 8.8z"/>
				<path id="&lt;Path&gt;" class="s21" d="m930.7 448.7c0.3-1.6 1.3-2.6 2.6-3.5 2.3-1.6 9.7-3.7 10.5-4.4 1.5-1.3 1.8-3.5 1.7-5.5-0.1-4.1-0.6-8.2-1-12.3 0 0 5.2 1.3 14.1-0.2 0 0-0.6 7.4-0.9 11.1-0.2 1.8-0.3 3.6-0.2 5.4 0.1 1.5 0.5 3.1 0.8 4.6 0.3 1.6 0.6 3.1 0.7 4.7 0 0.3 0 0.9 0 0.9-1 1-3.3 0.9-4.4 0.8-2.8-0.1-5.4-0.5-8.2-0.3-3.6 0.2-7.2 0.8-10.8 0.9-1.2 0.1-2.4 0.1-3.5-0.1-1.4-0.4-1.5-1.7-1.4-2.1z"/>
				<path id="&lt;Path&gt;" class="s9" d="m967.2 397.6c-0.7 1.5-1.5 3-1.8 4.6-0.5 2-0.1 4 0.3 6 1.5 6.2 1.9 12.3 1.3 18.7h-12.5c0-3.4-2.5-15-3.5-17.3-0.8-2.2-1.9-4.3-2.5-6.5-1.3-4.7-0.1-9.8 0.7-14.5 0.9-5.2 2-10.3 2.8-15.4 0.8-5.4 1.3-10.8 1.2-16.2h23.2c3.1 10.6-0.5 21.9-5 31.8-1.4 2.9-2.8 5.9-4.2 8.8z"/>
				<g id="&lt;Group&gt;">
					<g id="&lt;Group&gt;">
						<path id="&lt;Path&gt;" class="s20" d="m907.7 320.5c-1.1-1-1.8-1.7-1.8-1.7 0 0-1.7 1.7-3.8 0.7 0 0-12.9-8-15.8-4.9-3.4 3.6-1.7 8.4 1.6 12.1 1.4 1.5 1.4 2.8 1.5 4.2 0 0.6 0.8 0.8 1.2 0.3l0.4-0.5c0.1-0.2 0.3-0.2 0.4-0.1 1.2 0.9 2.3 1.6 3.4 2 2.6 1.1 4.7 3.1 7.5-0.8q0.5-0.6 0.9-1.3l6.7 6.7c2.8-0.1 3.3-7.4 3.8-9.1 0.1-0.2 1.1-4.1 0.8-4.2-2.5-1.2-5.1-1.8-6.8-3.4z"/>
						<path id="&lt;Path&gt;" class="s22" d="m906.7 315.9c-1.8-2.7-5.4-14.6-16.8-12.5-6.8 1.2-16.2 11.8-9.8 18.2 3.5 3.5 7.6-3.4 15.7 0.6-0.1 0 0.3-1.5 0.7-1.6-1.7-1.1 2.6 1.4 5.7 1.5 1.6 0 4.9-0.1 6.1-2.8 1.1-2.4-1-2.4-1.6-3.4z"/>
						<path id="&lt;Path&gt;" class="s20" d="m898.5 319.6c0.8 0.9 1 2 0 2.7-0.8 0.7-2 0.6-2.8-0.2-0.8-0.8-0.8-2.1-0.1-2.8 1.3-1.3 2.3-0.6 2.9 0.3z"/>
					</g>
				</g>
				<path id="&lt;Path&gt;" class="s22" d="m940 449.2c0.3-1.6 1.3-2.6 2.6-3.5 2.3-1.6 9.7-3.7 10.5-4.4 1.5-1.3 1.8-3.5 1.7-5.5-0.1-4.1-0.6-8.2-1-12.3 0 0 5.2 1.3 14.1-0.1 0 0-0.6 7.3-0.9 11-0.2 1.8-0.3 3.6-0.2 5.4 0.1 1.5 0.5 3.1 0.8 4.6 0.3 1.6 0.6 3.1 0.7 4.7 0 0.3 0 0.9 0 0.9-1 1-3.3 0.9-4.4 0.8-2.8-0.1-5.4-0.5-8.2-0.3-3.6 0.2-7.2 0.8-10.8 0.9-1.2 0.1-2.4 0.1-3.5-0.1-1.4-0.4-1.5-1.7-1.4-2.1z"/>
			</g>
			<g id="&lt;Group&gt;">
				<g id="&lt;Group&gt;">
					<path id="&lt;Path&gt;" class="s30" d="m656.2 377.1v173.1c0 2.5 2 4.5 4.4 4.5h239.2c2.5 0 4.5-2 4.5-4.5v-173.1z"/>
					<path id="&lt;Path&gt;" class="s9" d="m899.4 365.7h-238.3c-2.7 0-4.9 2.2-4.9 4.9v11.2h248.1v-11.2c0-2.7-2.2-4.9-4.9-4.9z"/>
					<g id="&lt;Group&gt;">
						<g id="&lt;Group&gt;">
							<path id="&lt;Path&gt;" class="s2" d="m867.3 373.8c0 2-1.6 3.7-3.7 3.7-2 0-3.7-1.7-3.7-3.7 0-2.1 1.7-3.7 3.7-3.7 2.1 0 3.7 1.6 3.7 3.7z"/>
							<path id="&lt;Path&gt;" class="s13" d="m879.5 373.7c0 2.1-1.6 3.7-3.7 3.7-2 0-3.7-1.6-3.7-3.7 0-2 1.7-3.7 3.7-3.7 2.1 0 3.7 1.7 3.7 3.7z"/>
							<path id="&lt;Path&gt;" class="s12" d="m891.7 373.7c0 2.1-1.6 3.7-3.7 3.7-2 0-3.7-1.6-3.7-3.7 0-2 1.7-3.7 3.7-3.7 2.1 0 3.7 1.7 3.7 3.7z"/>
						</g>
					</g>
				</g>
				<g id="&lt;Group&gt;">
					<path id="&lt;Path&gt;" class="s6" d="m773.3 399.6c0 1.4-1.1 2.6-2.6 2.6h-101.3c-1.4 0-2.6-1.2-2.6-2.6v-4c0-1.5 1.2-2.7 2.6-2.7h101.3c1.5 0 2.6 1.2 2.6 2.7z"/>
					<path id="&lt;Path&gt;" class="s3" d="m736.5 409.1c0 1.4-1.2 2.6-2.6 2.6h-64.5c-1.4 0-2.6-1.2-2.6-2.6 0-1.4 1.2-2.6 2.6-2.6h64.5c1.4 0 2.6 1.2 2.6 2.6z"/>
					<g id="&lt;Group&gt;">
						<g id="&lt;Group&gt;">
							<path id="&lt;Path&gt;" class="s16" d="m807.7 426.5c0 0.3-0.3 0.6-0.7 0.6h-139.5c-0.4 0-0.7-0.3-0.7-0.6v-0.7c0-0.3 0.3-0.6 0.7-0.6h139.5c0.4 0 0.7 0.3 0.7 0.6z"/>
						</g>
						<g id="&lt;Group&gt;">
							<path id="&lt;Path&gt;" class="s16" d="m807.7 433.1c0 0.4-0.3 0.7-0.7 0.7h-139.5c-0.4 0-0.7-0.3-0.7-0.7v-0.7c0-0.3 0.3-0.6 0.7-0.6h139.5c0.4 0 0.7 0.3 0.7 0.6z"/>
						</g>
						<g id="&lt;Group&gt;">
							<path id="&lt;Path&gt;" class="s16" d="m807.7 439.7c0 0.4-0.3 0.7-0.7 0.7h-139.5c-0.4 0-0.7-0.3-0.7-0.7v-0.6c0-0.4 0.3-0.7 0.7-0.7h139.5c0.4 0 0.7 0.3 0.7 0.7z"/>
						</g>
						<g id="&lt;Group&gt;">
							<path id="&lt;Path&gt;" class="s16" d="m807.7 446.3c0 0.4-0.3 0.7-0.7 0.7h-139.5c-0.4 0-0.7-0.3-0.7-0.7v-0.6c0-0.4 0.3-0.7 0.7-0.7h139.5c0.4 0 0.7 0.3 0.7 0.7z"/>
						</g>
						<g id="&lt;Group&gt;">
							<path id="&lt;Path&gt;" class="s16" d="m776.1 453c0 0.3-0.3 0.6-0.6 0.6h-108c-0.4 0-0.7-0.3-0.7-0.6v-0.7c0-0.4 0.3-0.7 0.7-0.7h108c0.3 0 0.6 0.3 0.6 0.7z"/>
						</g>
						<g id="&lt;Group&gt;">
							<path id="&lt;Path&gt;" class="s16" d="m807.7 459.6c0 0.3-0.3 0.6-0.7 0.6h-139.5c-0.4 0-0.7-0.3-0.7-0.6v-0.7c0-0.3 0.3-0.6 0.7-0.6h139.5c0.4 0 0.7 0.3 0.7 0.6z"/>
						</g>
						<g id="&lt;Group&gt;">
							<path id="&lt;Path&gt;" class="s16" d="m807.7 466.2c0 0.4-0.3 0.6-0.7 0.6h-139.5c-0.4 0-0.7-0.2-0.7-0.6v-0.7c0-0.3 0.3-0.6 0.7-0.6h139.5c0.4 0 0.7 0.3 0.7 0.6z"/>
						</g>
						<g id="&lt;Group&gt;">
							<path id="&lt;Path&gt;" class="s16" d="m807.7 472.8c0 0.4-0.3 0.7-0.7 0.7h-139.5c-0.4 0-0.7-0.3-0.7-0.7v-0.6c0-0.4 0.3-0.7 0.7-0.7h139.5c0.4 0 0.7 0.3 0.7 0.7z"/>
						</g>
						<g id="&lt;Group&gt;">
							<path id="&lt;Path&gt;" class="s16" d="m807.7 479.4c0 0.4-0.3 0.7-0.7 0.7h-139.5c-0.4 0-0.7-0.3-0.7-0.7v-0.6c0-0.4 0.3-0.7 0.7-0.7h139.5c0.4 0 0.7 0.3 0.7 0.7z"/>
						</g>
						<g id="&lt;Group&gt;">
							<path id="&lt;Path&gt;" class="s16" d="m807.7 486c0 0.4-0.3 0.7-0.7 0.7h-139.5c-0.4 0-0.7-0.3-0.7-0.7v-0.6c0-0.4 0.3-0.7 0.7-0.7h139.5c0.4 0 0.7 0.3 0.7 0.7z"/>
						</g>
						<g id="&lt;Group&gt;">
							<path id="&lt;Path&gt;" class="s16" d="m751.1 492.7c0 0.3-0.3 0.6-0.7 0.6h-82.9c-0.4 0-0.7-0.3-0.7-0.6v-0.7c0-0.4 0.3-0.6 0.7-0.6h82.9c0.4 0 0.7 0.2 0.7 0.6z"/>
						</g>
					</g>
				</g>
				<g id="&lt;Group&gt;">
					<path id="&lt;Path&gt;" class="s8" d="m883.1 486.6h-56.7c-1.8 0-3.2-1.4-3.2-3.1v-85.1c0-1.8 1.4-3.2 3.2-3.2h56.7c1.7 0 3.2 1.4 3.2 3.2v85.1c0 1.7-1.5 3.1-3.2 3.1z"/>
					<g id="&lt;Group&gt;">
						<path id="&lt;Path&gt;" class="s13" d="m847.7 410.6c-2.4 1.1-4.5 2.7-6.1 4.8l4.3 2.4c1-1.1 2.2-2 3.6-2.7z"/>
						<path id="&lt;Path&gt;" class="s9" d="m864.7 431.9c-1.9 3.1-5.2 5.2-9 5.5v4.9c5.6-0.3 10.5-3.4 13.3-7.9z"/>
						<path id="&lt;Path&gt;" class="s19" d="m842.9 425.7c0-2.3 0.7-4.5 1.9-6.3l-4.3-2.5c-1.5 2.6-2.4 5.6-2.4 8.8 0 8.9 6.9 16.1 15.7 16.6v-4.9c-6.1-0.5-10.9-5.5-10.9-11.7z"/>
						<path id="&lt;Path&gt;" class="s12" d="m854.7 409q-2.7 0-5.2 0.8l1.8 4.6q1.6-0.5 3.4-0.5c6.6 0 11.8 5.3 11.8 11.8 0 1.6-0.3 3.1-0.9 4.5l4.3 2.5c1-2.2 1.5-4.5 1.5-7 0-9.2-7.4-16.7-16.7-16.7z"/>
					</g>
					<g id="&lt;Group&gt;">
						<g id="&lt;Group&gt;" style="opacity: .5">
							<path id="&lt;Path&gt;" class="s3" d="m879.4 455.7c0 1.1-0.9 2-2 2h-44.3c-1.1 0-2-0.9-2-2v-1.4c0-1.1 0.9-2 2-2h44.3c1.1 0 2 0.9 2 2z"/>
						</g>
						<g id="&lt;Group&gt;" style="opacity: .5">
							<path id="&lt;Path&gt;" class="s3" d="m879.4 466.2c0 1.1-0.9 2-2 2h-44.3c-1.1 0-2-0.9-2-2v-1.5c0-1.1 0.9-2 2-2h44.3c1.1 0 2 0.9 2 2z"/>
						</g>
						<g id="&lt;Group&gt;" style="opacity: .5">
							<path id="&lt;Path&gt;" class="s3" d="m879.4 476.6c0 1.1-0.9 2-2 2h-44.3c-1.1 0-2-0.9-2-2v-1.4c0-1.1 0.9-2 2-2h44.3c1.1 0 2 0.9 2 2z"/>
						</g>
					</g>
				</g>
				<g id="&lt;Group&gt;">
					<g id="&lt;Group&gt;">
						<path id="&lt;Path&gt;" class="s12" d="m691 514.3q0 0 0.1 0v15.6h15.7q0 0.1 0 0.2c0 8.7-7.1 15.8-15.8 15.8-8.8 0-15.8-7.1-15.8-15.8 0-8.8 7-15.8 15.8-15.8z"/>
					</g>
					<g id="&lt;Group&gt;">
						<path id="&lt;Path&gt;" class="s2" d="m694.7 512c8.6 0.1 15.5 7.1 15.6 15.7h-15.6z"/>
					</g>
				</g>
				<g id="&lt;Group&gt;">
					<g id="&lt;Group&gt;">
						<path id="&lt;Path&gt;" class="s13" d="m729.8 505.3c-7.4 0.1-13.4 6.1-13.5 13.5h13.5z"/>
					</g>
					<path id="&lt;Path&gt;" class="s3" d="m733 507.2q-0.1 0-0.2 0v13.5h-13.4q0 0.1 0 0.1c0 7.5 6.1 13.6 13.6 13.6 7.5 0 13.6-6.1 13.6-13.6 0-7.5-6.1-13.6-13.6-13.6z"/>
				</g>
				<g id="&lt;Group&gt;">
					<g id="&lt;Group&gt;">
						<path id="&lt;Path&gt;" class="s8" d="m885.4 511c0-1.1-0.9-2-2-2h-104.6c-1.1 0-2 0.9-2 2v1.8c0 1.1 0.9 2 2 2h104.6c1.1 0 2-0.9 2-2z"/>
					</g>
					<g id="&lt;Group&gt;">
						<path id="&lt;Path&gt;" class="s13" d="m846 511c0-1.1-0.9-2-2-2h-65.2c-1.1 0-2 0.9-2 2v1.8c0 1.1 0.9 2 2 2h65.2c1.1 0 2-0.9 2-2z"/>
					</g>
					<g id="&lt;Group&gt;">
						<g id="&lt;Group&gt;">
							<path id="&lt;Path&gt;" class="s8" d="m885.4 522.9c0-1.1-0.9-2-2-2h-104.6c-1.1 0-2 0.9-2 2v1.8c0 1.1 0.9 2 2 2h104.6c1.1 0 2-0.9 2-2z"/>
						</g>
						<g id="&lt;Group&gt;">
							<path id="&lt;Path&gt;" class="s12" d="m824.5 522.9c0-1.1-0.9-2-2-2h-43.7c-1.1 0-2 0.9-2 2v1.8c0 1.1 0.9 2 2 2h43.7c1.1 0 2-0.9 2-2z"/>
						</g>
					</g>
					<g id="&lt;Group&gt;">
						<g id="&lt;Group&gt;">
							<path id="&lt;Path&gt;" class="s8" d="m885.4 534.6c0-1.1-0.9-2-2-2h-104.6c-1.1 0-2 0.9-2 2v1.8c0 1.1 0.9 2 2 2h104.6c1.1 0 2-0.9 2-2z"/>
						</g>
						<g id="&lt;Group&gt;">
							<path id="&lt;Path&gt;" class="s23" d="m804.1 534.6c0-1.1-0.9-2-2-2h-23.3c-1.1 0-2 0.9-2 2v1.8c0 1.1 0.9 2 2 2h23.3c1.1 0 2-0.9 2-2z"/>
						</g>
					</g>
				</g>
			</g>
			<path id="&lt;Compound Path&gt;" class="s20" d="m899.6 386c-0.1 0.3-0.3 0.6-0.4 0.9-0.6 1.2-1.2 2.5-2.3 3.3-0.7 0.5-1.6 0.9-2.2 1.6-0.4 0.5-0.6 1.1 0 1.5 0.6 0.4 1.4 0.2 2.2 0-0.3 0.4-0.6 1 0 1.3 0.6 0.3 1.8-0.1 2.5-0.4-0.3 0.4-0.5 0.8-0.1 1.3 0.3 0.4 1 0.4 1.6 0.3 0.2 0 0.6-0.2 0.8-0.2 0.2 0.1 0.3 0.4 0.5 0.5 0.7 0.3 1.4-0.3 1.9-0.7 1.6-1.2 3-2.7 3.8-4.5 0.5-1 0.7-2.2 1.1-3.2 0.5-1.1 1.5-1.8 2.1-2.8-1.3-1.2-3.5-3.1-5.2-4.6-0.8 1.3-2.1 2.1-3.6 2.3-1.2 0.2-2.5 0.1-3.7 0.5-1.1 0.5-2 1.4-2.9 2.2-0.4 0.4-1 1.1-0.5 1.6 0.6 0.6 1.7-0.1 2.2-0.4q0.9-0.4 1.9-0.7c0.4-0.2 0.4-0.3 0.3 0.2z"/>
			<path id="&lt;Compound Path&gt;" class="s13" d="m904.1 381.4q4.4 0.7 7.3 4.3c3-2.9 5.6-6.1 8.4-9.3 2.4-2.7 4.9-5.3 7-8.2 2.3-3.1 3.3-6.7 3.7-10.4q0.8 0.4 1.5 0.9c4.6 3.3 7.9 8.1 9.4 13.5 2.8-1.7 13.6-3 16-3.6 4.7-1.4 20.3-9.4 20.3-10 0.1-1.6-3.2-8.6-4-10.1-3.6-6.7-8.6-12.6-14.6-17.2-13-10-30.3-13-46-8.7-2.7-0.3-1.4 6.3-1.8 9.4-0.2 1-1.6 5-1.6 5 0 2.4-0.5 4.2 0.5 7.2 0.5 1.6 1.3 3 2.6 4 1.3 1 2.9 1.7 4.4 2.4q0 0.3-0.1 0.7c-0.3 4.2-0.4 7.9-2.6 11.6-1.9 3-4.1 5.8-5.9 8.9q-2.6 4.6-4.5 9.6z"/>
			<g id="&lt;Group&gt;">
				<path id="&lt;Path&gt;" class="s15" d="m914.5 322.5c-1.1 2.7-0.6 5.8-1.1 8.6-0.4 2.5-1.4 5-3 7-0.1 0.1-0.2-0.1-0.1-0.2 1.7-2.1 2.6-4.7 3-7.4 0.4-2.6 0-5.5 1.1-8 0-0.1 0.2-0.1 0.1 0z"/>
			</g>
			<g id="&lt;Group&gt;">
				<path id="&lt;Path&gt;" class="s15" d="m917.1 350.4c-0.9-6.1-1.7-12.6 0.9-18.4 0.1-0.1 0.3 0 0.2 0.1-2.6 5.7-1.8 12.2-1 18.2 0.1 0.2-0.1 0.2-0.1 0.1z"/>
			</g>
			<g id="&lt;Group&gt;">
				<path id="&lt;Path&gt;" class="s15" d="m930.5 357.7q0.9-4.7 1.7-9.4c0.6-3.3 1.3-6.5 1-9.9-0.2-2.9-1-5.9-2.8-8.3-1.8-2.3-4.8-3.8-7.8-3.3-0.2 0.1-0.2-0.1-0.1-0.2 2.6-0.4 5.2 0.5 7.1 2.3 2.1 2 3.1 4.9 3.6 7.7 0.5 3.5 0.1 6.8-0.5 10.2q-1 5.5-2 10.9c0 0.1-0.2 0.1-0.2 0z"/>
			</g>
		</g>
		<g id="&lt;Group&gt;">
			<g id="&lt;Group&gt;">
				<g id="&lt;Group&gt;">
					<g id="&lt;Group&gt;">
						<path id="&lt;Path&gt;" class="s22" d="m460.3 563.4h3.5l0.1-22.2h-3.6z"/>
						<path id="&lt;Path&gt;" class="s6" d="m452.4 541.2h19.9c1.4 0 2.5-1.1 2.5-2.5v-3.2h-24.9v3.1c0 1.4 1.1 2.6 2.5 2.6z"/>
					</g>
				</g>
			</g>
			<g id="&lt;Group&gt;">
				<path id="&lt;Compound Path&gt;" class="s31" d="m453.7 562.9c0 0 0.7-0.6 1-0.8 0.6-0.5 1.2-1 1.8-1.4 0.7-0.5 1.4-0.8 2.2-1 0.7-0.1 1.4-0.1 2.1-0.4 1-0.4 1.8-1.2 2.3-2.1 0.1 0.3 0.4 0.5 0.8 0.4 0.2-0.1 0.4-0.3 0.4-0.6 0.2 0.2 0.5 0.3 0.8 0 0.7-0.6 0.8-1.8 0.7-2.6-0.4-2-1.9-3.7-4.1-3.7-1.7 0.1-2.3 0.9-3 1.8-0.7 1-1.2 1.8-2.2 2.5-1.9 1.6-4.1 3-6.3 4.2 0 0.1 1.8 3.2 3.5 3.7z"/>
				<path id="&lt;Path&gt;" class="s31" d="m430.3 699.9c0.2 3.7 0.9 7.3 0.8 11.1-0.3 7.3-2.5 14.3-4.6 21.1h-6.2c0.1-3.9 0.3-7.9 0.3-11.8-0.1-3.8-0.6-7.6-0.4-11.4 0.1-1.9 0.3-3.7 0.2-5.6-0.1-2-0.4-3.9-0.7-5.8-0.4-3-0.7-6-0.2-9h12.3q0 0.1 0 0.1c-0.9 3.7-1.7 7.5-1.5 11.3z"/>
				<path id="&lt;Path&gt;" class="s31" d="m402.2 699.9c-0.2 3.7-1 7.3-0.8 11.1 0.3 7.3 2.4 14.3 4.5 21.1h6.2c-0.1-3.9-0.2-7.9-0.2-11.8 0-3.8 0.6-7.6 0.4-11.4-0.1-1.9-0.3-3.7-0.2-5.6 0.1-2 0.4-3.9 0.6-5.8 0.5-3 0.8-6 0.2-9h-12.3q0.1 0.1 0.1 0.1c0.8 3.7 1.7 7.5 1.5 11.3z"/>
				<path id="&lt;Path&gt;" class="s31" d="m408 566.7c-0.5-0.6-1-1.1-1.4-1.8-1.1-1.6-2.1-3.3-3.7-4.5l-13.3 4.5q-0.1 0.1-0.1 0.2c-0.8 1.9-1 4-0.9 6 0.1 2.4 0.5 4.8 1.5 7 0.2 0.6 1.3 2.8 2.4 3.2q0.3 1.1 0.6 2.2c0.2 0.8 0.4 1.8 0.7 2.6l13.5-4.6q-0.4-1.5-0.9-2.9c0.8-1 1.5-2.2 1.6-3.6 0.1-0.8-0.1-1.6-0.3-2.5-0.4-1.4-0.5-2.5 0.4-3.7 0.3-0.5 0.6-0.9 0.4-1.4-0.1-0.3-0.3-0.5-0.5-0.7z"/>
				<path id="&lt;Path&gt;" class="s12" d="m361.1 621.7c0.8-3.1 3-5.8 4.8-8.4 1.8-2.6 3.6-5.2 5.6-7.6 4.1-5.1 8.7-9.3 14.2-12.7 1.7-1 3.5-2.1 4.6-3.8 1-1.3 1.6-2.7 2.8-3.8 1.6-1.5 3.8-2.3 5.9-2.8 2.5-1.2 7.9-2.2 8.1-2.2 4.3-0.2 5.6-0.1 9.7-1.7 4.2-1.7 10.6-5.4 14-8.3 6.5-5.6 14.3-9.4 22-13.2 0.7 2 3.8 5.1 3.8 5.1-6.7 5.2-11.4 12.6-18.3 17.8-3.7 2.8-7.1 5.3-9.7 9.2-1 1.4-1.7 2.9-2.5 4.4-1.3 5.5-1.8 11.1-1.5 16.7 0.5 7 2.4 13.5 5.3 19.9 2.7 6.2 4.7 12.2 5.9 18.9 1.1 6.8 1.8 13.7 2.4 20.6q0.6 8.7 0.8 17.5c-14.8 3.9-30 4.4-45.1 3.1-0.6-10.5-0.2-21.1 1.1-31.6 0.8-5.8 2.1-11.6 2.9-17.4 1-6.3 0.5-12.6-1.2-18.7-1.7-6-4.1-11.8-7.2-17.2-2.8 3.6-5.8 7.2-8.9 10.6-1.6 1.8-3.3 3.5-5.2 5 6.9 2.7 14.1 4.6 21.4 5.7 0 0-1.7 1.8-2.5 7.5 0 0-8-1.4-12-1.9-3.6-0.4-7.2-0.5-10.8-1-5.1-0.7-12.2-3.2-10.4-9.7z"/>
				<path id="&lt;Compound Path&gt;" class="s22" d="m385.5 572.5c0.3 2 0.7 4.1 1.5 6 1 2.5 3 3.9 5.5 4.5q-0.2 0.7-0.4 1.3c-0.3 1.3-0.5 2.5-0.5 3.8 0 1.7 0.8 3.7 2.5 4.4 1.7 0.7 3.7-0.2 4.9-1.4 2.1-2.3 2.1-5.5 0.5-7.8 1.3-0.6 2.4-1.6 3.2-2.8 0.9-1.3 1.5-2.8 1.7-4.4 0.3-1.7-0.3-3.4-0.2-5.2 0.1-1.9 1-3.6 1.5-5.4q0.5-1.7 0.4-3.4c0.3-0.9 0.4-6.3-5.8-8-6.7-1.9-11.2 1.3-13.4 4.1-1.8 2.2-2.9 4.1-2.9 8.1 0 2.8 1.2 4.4 1.5 6.2z"/>
				<path id="&lt;Compound Path&gt;" class="s31" d="m394.4 633.5c0.6 0.1 1.2 0.3 1.6 0.7 0.4 0.4 0.7 0.8 1.1 1 0.7 0.4 1.4-0.2 1.6-0.9 0.2-0.5 0.2-1 0.3-1.5 0-0.6 0.2-1.1 0.3-1.7 0-1.1-0.2-2.7-1.5-3.4l0.1 0.3c-0.2 0.3-0.5 0.2-0.8 0.1-0.4-0.1-0.5-0.2-0.9-0.4q0 0 0 0c-0.5 0.8-0.9 1.7-1.2 2.6-0.3 0.9-0.6 3.2-0.6 3.2z"/>
				<path id="&lt;Path&gt;" class="s2" d="m402.9 722.1q-0.1-1-0.3-2-0.1-0.4-0.1-0.4c2.9 0.6 6.7 0.4 9.5 0.2 0 0 0 0.9 0.1 2.2z"/>
				<path id="&lt;Compound Path&gt;" class="s22" d="m412.3 735.3c-0.1-2.2 0.2-4.4 0.3-6.6 0.1-2.3-0.2-6.9-0.2-6.9-2.8 0.2-6.7 0.4-9.6-0.2q0 0 0 0.4 0.6 3.2 0.9 6.4 0.2 1.4 0.3 2.8c0 1.1 0.2 2.4 0 3.4-0.3 1.6-1.4 2.8-1.3 4.4 0 1.3 1 2.1 1.8 2.8 1.1 0.9 1.9 2.3 3.1 2.8 1.1 0.6 2.5 0.3 3.6-0.2 1.3-0.7 1.4-2.1 1.6-3.7 0.2-1.8-0.5-3.5-0.5-5.4z"/>
				<path id="&lt;Path&gt;" class="s2" d="m429.5 722.3q0.2-1 0.4-2 0-0.3 0-0.3c-2.9 0.5-6.7 0.3-9.4 0.1 0 0-0.1 1-0.1 2.2z"/>
				<path id="&lt;Compound Path&gt;" class="s22" d="m419.7 740.7c0.1 1.5 0.3 3 1.6 3.7 1.1 0.5 2.4 0.8 3.6 0.2 1.2-0.5 2-1.9 3.1-2.8 0.8-0.7 1.7-1.5 1.8-2.8 0.1-1.6-1-2.8-1.3-4.4-0.2-1 0-2.3 0-3.4q0.1-1.4 0.2-2.8 0.4-3.2 0.9-6.4 0.1-0.4 0.1-0.4c-2.9 0.6-6.8 0.4-9.6 0.2 0 0-0.3 4.6-0.2 6.9 0.1 2.2 0.4 4.4 0.3 6.6-0.1 1.9-0.7 3.6-0.5 5.4z"/>
			</g>
		</g>
		<g id="&lt;Group&gt;">
			<path id="&lt;Path&gt;" class="s2" d="m581.6 712.1l-22.4 0.1c-2.3 0-4.3-1.7-4.7-3.9l-6.6-34.7 44.9-0.1-6.6 34.7c-0.4 2.3-2.3 3.9-4.6 3.9z"/>
			<path id="&lt;Path&gt;" class="s8" d="m557.7 682.1c2.1 0.1 1.3-5 3.7-4.9 1.5 0.1-0.8 16.8 5 17.2 0.7 0 1.3-0.2 1.7-0.7 1.1-0.6 3.2-2.4 3.2 2.7 0 5.1 3.2 0.4 3.4-3.1 0.2-2.9 1.4-2.8 1.9-2.7q0.1 0 0.1 0.1c2.4 0.9 6.1-1.2 5.9-5.9-0.3-6.7 0-11.3 0-11.3l-26.4 0.1c0 3.1-0.6 8.4 1.5 8.5z"/>
			<g id="&lt;Group&gt;">
				<path id="&lt;Path&gt;" class="s22" d="m549 696.9q-0.9 0-1.8-0.2-3.4-0.8-4.7-3.5c-3-6.5 5.1-18.8 5.4-19.3l0.4 2.2c0 0.1-7.1 10.6-4.3 16.5 0.6 1.4 1.8 2.3 3.6 2.7q0.7 0.1 1.5 0.1c10.9 0 29.5-20.3 29.7-20.6 0.8-0.9 2.2 0 1.7 0.8-0.9 0.9-19.8 21.2-31.5 21.3z"/>
			</g>
		</g>
		<g id="&lt;Group&gt;">
			<g id="&lt;Group&gt;">
				<g id="&lt;Group&gt;">
					<path id="&lt;Compound Path&gt;" class="s3" d="m144.1 605.1c-7.1 1.9-14.2 3.4-21.4 4.4-0.7 0.1-1 1-0.6 1.6q6.6 9.6 13.3 19.1c3.7 5.3 10.1 12 18.9 16.9 10.6 5.8 23.9 6.3 34.9-0.7 9.5-6.1 5.6-17.7 1.2-26-5.3-10.2-16.5-14.6-26.7-16.6-6.7-1.3-13-0.5-19.6 1.3z"/>
					<path id="&lt;Path&gt;" class="s4" d="m122.6 610.5c4.5 2.2 9.1 4.4 13.9 5.9q0.6 0.2 1.2 0.4-2.2 0.2-4.3 0.5c-1.8 0.2-3.5 0.7-5 1.6-0.6 0.3-0.2 1.2 0.3 0.9 1.6-0.9 3.3-1.4 5-1.6 2.1-0.3 4.2-0.5 6.2-0.7q0.1 0 0.2-0.1c3.5 0.8 7.1 1.4 10.6 2.2 3.8 0.9 7.4 2.2 11 3.6-3.2 3-8.4 3.3-12.5 4q-3.8 0.6-7.6 1.2c-1.9 0.3-3.9 0.6-5.2 2.2-0.4 0.5 0.4 1.1 0.8 0.6 1.5-1.9 4.7-1.9 6.9-2.3q3.9-0.6 7.8-1.2c3.8-0.6 7.9-1.3 10.8-4.1 5.2 2.2 10.2 4.7 15.2 7.3q2.5 1.2 5 2.6c-10.9 6.3-23.6 9-36.1 7.3-0.6-0.1-0.7 0.8-0.1 0.9 12.9 1.7 26-1.1 37.1-7.7 3.4 1.8 6.6 3.8 9.5 6.3 0.4 0.4 1-0.4 0.5-0.7q-1.6-1.4-3.3-2.6 0-0.1 0-0.1c-1.7-5.9-4.2-11.5-7.4-16.7-3.2-5.2-7.1-11.1-12.7-13.9-0.5-0.2-0.9 0.6-0.3 0.9 3 1.5 5.3 3.9 7.3 6.5q2.8 3.4 5.1 7.2c2.9 4.8 5.1 9.9 6.8 15.2q-2.5-1.5-5-2.9c-0.1-0.2-0.2-0.3-0.4-0.3q-1.4-0.7-2.8-1.4-2.8-1.5-5.6-2.9c-1.8-4.4-4-8.5-6.9-12.2-3.2-4.2-6.6-8.3-9.8-12.4-0.4-0.5-1.2 0.1-0.8 0.6 3.2 3.9 6.4 7.9 9.5 11.9 2.8 3.6 5 7.3 6.7 11.4q-3.4-1.7-6.8-3.2-2.1-1-4.3-1.9c-0.1-0.2-0.4-0.3-0.6-0.3-2.8-1.1-5.6-2.1-8.5-3q0 0 0 0c-2.1-2.2-2.9-5.2-4.4-7.8-1.7-2.8-4.1-4.5-6.8-6.1-0.6-0.3-1.1 0.5-0.6 0.8 1.4 0.8 2.8 1.6 4 2.6 1.2 1.1 2.2 2.4 2.9 3.8 1.1 2.1 1.9 4.4 3.3 6.3-4.5-1.2-9.1-1.7-13.6-2.9-5.5-1.6-10.7-4.1-15.9-6.5-0.5-0.3-0.8 0.6-0.3 0.8z"/>
				</g>
				<g id="&lt;Group&gt;">
					<path id="&lt;Compound Path&gt;" class="s3" d="m231.8 328.6c6.4-0.1 12.8-1.3 18.9-3.7 4.6-1.8 9-3.3 9.6-9.5 1.1-12.4-4.2-24.7-11.8-32.6-1.5-1.5-3-2.8-4.6-4-3.6-3.4-7.7-6-12.1-7.6-8.3-3.1-17.3-3-26.1-1.5-4.3 0.7-8.6 1.8-12.8 3-5.2 1.5-10.9 4-15.9 1.3-1.1-0.6-2.1 0.8-1.9 2 1.6 7.8 3.2 15.8 6.5 22.9 3.2 6.8 7.9 12.2 13.6 16.4 10.7 7.9 23.4 13.3 36.6 13.3z"/>
					<path id="&lt;Path&gt;" class="s4" d="m228.5 327.3c2.7-3.6 6.7-5.5 11.1-5.7 2.5-0.1 4.8-0.2 7.2-1.2 2.2-0.9 4.3-2.2 6.3-3.5-3.6-3.2-7.2-6.2-11.1-8.9q-0.2-0.1-0.4-0.2c-11.5 2.6-19.2 13-30.6 16.3-0.8 0.2-1.2-1.1-0.4-1.3 11-3.1 18.5-13 29.5-16-4.8-2.9-9.9-5.2-15.2-7q-2.7-0.9-5.4-1.9c-3 1.2-5.4 3.2-8.1 4.9-2.3 1.4-4.7 2.5-7.4 3-5.4 1.1-11 0.7-16.3 1.8-0.9 0.2-1.3-1.1-0.5-1.3 5.3-1.1 10.7-0.7 16-1.7 3.1-0.6 5.8-1.8 8.5-3.6 1.9-1.3 3.8-2.6 5.9-3.7-6-2-12-4-17.8-6.5-7.2 1.6-14.9 2.9-21.3-1.6-0.7-0.5 0.2-1.5 0.8-1 5.5 3.8 12.2 3 18.4 1.7q-3.3-1.5-6.5-3.2c-5.8-3.1-11.2-6.9-16-11.5-0.6-0.6 0.3-1.6 0.9-1 6.9 6.6 15.1 11.4 23.8 15.2 0.3-0.1 0.6 0.1 0.7 0.3q1.4 0.6 2.8 1.2c-0.4-2-1.1-3.9-1.9-5.8-1.8-4.1-4.5-7.9-7.2-11.5-0.5-0.7 0.7-1.5 1.2-0.8 4 5.7 8.2 11.6 9.4 18.7q1.1 0.4 2.2 0.8c4.1 1.6 8.3 2.9 12.5 4.3q0 0 0.1 0 3.4 1.1 6.7 2.3c0.3-5.3-2.5-10-5.3-14.2-3-4.7-5.7-9.3-7.1-14.7-0.2-0.9 1-1.3 1.3-0.5 0.7 3 1.9 6 3.4 8.7 1.4 2.7 3.2 5.2 4.8 7.8 2.5 4 4.5 8.5 4.2 13.4 4.7 1.8 9.2 3.8 13.5 6.5 2.6 1.7 5.1 3.6 7.6 5.6 1.9-6-1.3-12-4.1-17.2-3-5.4-5.1-10.9-5.3-17.1-0.1-0.9 1.3-1 1.3-0.1 0.1 3.4 0.7 6.7 1.9 9.9 1.3 3.5 3.4 6.7 5 10.1 2.4 4.7 4.1 10.1 2.3 15.3 2.7 2.2 5.3 4.5 7.9 6.9 0.6 0.5-0.2 1.6-0.9 1q-1.4-1.3-2.8-2.5c-3.7 2.4-7.5 4.8-12 5.1-2.5 0.2-4.8 0-7.1 1-2.2 0.8-4.1 2.3-5.5 4.2-0.5 0.7-1.5-0.1-1-0.8z"/>
				</g>
				<g id="&lt;Group&gt;">
					<path id="&lt;Compound Path&gt;" class="s3" d="m204.7 355.2c-3 5.9-6.2 11.5-10 16.8-0.3 0.5 0.1 1.3 0.7 1.4q10.4 1.4 20.7 2.7c5.7 0.8 13.9 0.6 22.4-2.3 10.2-3.4 18.5-11.9 20.6-23.3 1.7-10-8.3-14.4-16.4-16.5-9.9-2.6-19.6 2.1-27 7.6-4.9 3.6-8.2 8.2-11 13.6z"/>
					<path id="&lt;Path&gt;" class="s4" d="m195.4 372.7c4.2-1.7 8.3-3.4 12.2-5.6q0.5-0.3 1-0.6-1.2 1.6-2.3 3.1c-0.9 1.3-1.6 2.8-1.9 4.4-0.1 0.5 0.6 0.7 0.8 0.2 0.3-1.5 1-2.9 1.9-4.2 1.1-1.6 2.2-3 3.3-4.5q0.1-0.1 0.1-0.2c2.6-1.8 5.1-3.8 7.8-5.6 2.8-2 5.9-3.6 9-5.1 0 3.9-2.9 7.5-5 10.6q-1.8 2.8-3.7 5.7c-1 1.5-2 3-1.7 4.8 0.1 0.6 0.9 0.4 0.8-0.1-0.3-2.2 1.6-4.3 2.7-6q2-2.9 3.9-5.8c1.9-2.9 3.9-6 3.8-9.6 4.6-2.1 9.3-3.9 14-5.7q2.3-0.9 4.7-1.7c-2.5 11-8.3 20.9-17 28.2-0.4 0.3 0.2 0.9 0.6 0.6 8.9-7.4 14.9-17.7 17.3-29.1 3.2-1.1 6.5-2 9.8-2.4 0.6-0.1 0.4-0.9-0.1-0.8q-1.9 0.2-3.7 0.6-0.1 0-0.1 0c-4.9-2.4-10.1-4.2-15.4-5.2-5.4-1.1-11.6-2-16.8 0-0.5 0.2-0.1 0.9 0.4 0.7 2.8-1 5.7-1.1 8.7-0.9q3.9 0.3 7.8 1c4.9 1 9.6 2.6 14.1 4.7q-2.5 0.7-5 1.5c-0.1 0-0.3 0-0.4 0.2q-1.3 0.4-2.6 0.9-2.7 1-5.3 2c-4-1.6-8-2.5-12.2-2.9-4.7-0.4-9.4-0.6-14.1-1-0.5 0-0.6 0.8 0 0.9 4.5 0.3 9 0.6 13.6 0.9 4 0.3 7.7 1.2 11.5 2.5q-3.1 1.2-6.2 2.5-2 0.8-3.9 1.7c-0.2 0-0.4 0.1-0.5 0.3-2.4 1.1-4.8 2.3-7.1 3.7q0 0 0 0c-2.7 0.1-5.2-1.2-7.8-1.8-2.8-0.6-5.4 0-8.1 0.9-0.5 0.1-0.4 1 0.1 0.8 1.4-0.4 2.8-0.9 4.2-1 1.4-0.2 2.8-0.1 4.2 0.3 2.1 0.6 4.1 1.4 6.2 1.6-3.5 2.3-6.7 5-10.2 7.2-4.3 2.7-9.1 4.6-13.8 6.5-0.5 0.3-0.1 1 0.4 0.8z"/>
				</g>
				<g id="&lt;Group&gt;">
					<path id="&lt;Compound Path&gt;" fill-rule="evenodd" class="s6" d="m132.3 249.3c0.2 2 1.8 3.6 3.8 3.9 1.4 0.2 2.6-0.2 3.6-1h116.4v194.4 5.3 220.4h5.3v-36h25v36h5.4v-368.8h-4.2l-2.1-1.8-24.1 28.3v-77.8h198.3c-0.4 0.7-0.7 1.6-0.7 2.5 0 2.5 2 4.5 4.6 4.5 2.5 0 4.5-2 4.5-4.5 0-0.9-0.3-1.8-0.7-2.5h83.3l0.1-0.1c1.5-1 1.9-3 1.1-4.5l-44-25.5q-0.5-0.2-1-0.2h-30.8l-213.8-75.8c-0.6-1.5-2-2.5-3.6-2.5-1.7 0-3.1 1-3.7 2.4l-120.1 98.5c-1.8 0.8-2.9 2.7-2.6 4.8zm154.1 86h-22.5l22.5-26.4zm0 38.3h-23.2l23.2-27.4zm0 36.6h-22.1l22.1-26zm0 36.3h-22.6l22.6-26.6zm0 37.2h-23l23-27.1zm0 36.5h-22.4l22.4-26.4zm0 36.7h-22.4l22.4-26.4zm0 36.3h-23.2l23.2-27.3zm-23.1 37.8l23.1-27.2v27.2zm-1.9-32.5h22.5l-22.5 26.5zm0-36.3h21.1l-21.1 24.8zm0-36.7h22.3l-22.3 26.2zm0-36.4h22l-22 25.9zm0-37.2h22.1l-22.1 25.9zm0-36.4h21.8l-21.8 25.6zm0-36.6h22.4l-22.4 26.4zm0-38.3h22.8l-22.8 26.8zm234.9-113.4l-29.8 17.2v-17.2zm-23.4 19.6l33.6-19.3 33.5 19.3zm-43 0l31.2-18v18zm-7.5-19.6h30.8l-30.8 17.8zm-36.8 19.6l31.4-18.1v18.1zm-6.4-19.6h29.8l-29.8 17.2zm0-5.4h-5.3-9.8l-101.7-72.9q0.2-0.6 0.3-1.3 0-0.1-0.1-0.1l209.8 74.3h-93.2zm-36.1 25l30.8-17.7v17.7zm-6.4-19.6h29.7l-29.7 17.2zm-38 19.6l32.6-18.8v18.8zm-37.3 0l17.4-20.5 6.2 20.5h-23.6zm0-96.3q0.2-0.2 0.4-0.5l100.1 71.8h-25.2-5q-0.3 0-0.6 0.2l-40.9 23.6-28.8-95.1zm0 18.4l13.9 45.9h-13.9zm0 51.3h15.5l0.1 0.1-15.6 18.3zm-45.1 7.9l32.6 18.8h-32.6zm-33.7 18.8l28.4-16.4v16.4zm-45.3-2.7l117.3-96.3c0.1 1.1 0.6 2.1 1.4 2.8v94.2l-39.4-22.8q-0.3-0.2-0.6-0.2h-45.5q-0.4 0-0.7 0.3l-29.3 24c-0.7-1.1-1.8-1.9-3.2-2zm10.8 2.7l22-18v18zm27.3-19.6h30.5l-30.5 17.6z"/>
					<path id="&lt;Path&gt;" class="s9" d="m263.4 304.5h36.5c2.5 0 4.5-2 4.5-4.5v-45.5c0-2.5-2-4.5-4.5-4.5h-36.5c-2.5 0-4.5 2-4.5 4.5v45.5c0 2.5 2 4.5 4.5 4.5z"/>
					<path id="&lt;Path&gt;" class="s2" d="m275.4 298.2h29v-41.5h-29c-2.1 0-3.8 1.7-3.8 3.7v34c0 2.1 1.7 3.8 3.8 3.8z"/>
					<path id="&lt;Path&gt;" class="s9" d="m459.2 349.6h1.3v-2.7h1.6v2.7h2v-2.7h1.6v2.7h1.3c0.2 0 0.3 0.1 0.3 0.3v3.8q0 0.1 0 0.2l-1.8 3q-0.1 0.1-0.3 0.1h-0.1v0.7c0 0.5-0.5 1-1 1h-0.2c-0.3 1-0.9 1.9-1.8 2.7-0.5 0.4-0.7 1-0.6 1.7 0.2 0.7 0.7 1.2 1.4 1.4 0.5 0.1 1.1-0.1 1.5-0.4 0.4-0.3 0.7-0.9 0.7-1.4v-0.3c0-0.5 0.3-0.8 0.8-0.8 0.4 0 0.8 0.3 0.8 0.8v0.3c0 0.9-0.4 1.8-1 2.4-0.6 0.7-1.5 1-2.4 1q-0.4 0-0.7 0c-1.7-0.4-2.9-1.9-2.7-3.8 0.1-0.9 0.6-1.7 1.3-2.3q0.6-0.5 1-1.3h-0.1c-0.5 0-0.9-0.5-0.9-1v-0.7h-0.2q-0.1 0-0.2-0.1l-1.8-3q-0.1-0.1-0.1-0.2v-3.8c0-0.2 0.1-0.3 0.3-0.3z"/>
					<path id="&lt;Path&gt;" class="s6" d="m457.6 343.1h5.1v-85.8h1.5v85.8h4.7c1 0 1.9 0.9 1.9 2 0 1-0.9 1.9-1.9 1.9h-11.3c-1.1 0-2-0.9-2-1.9 0-1.1 0.9-2 2-2z"/>
				</g>
				<g id="&lt;Group&gt;">
					<path id="&lt;Path&gt;" class="s11" d="m298.5 733.7h-108.9v-142.9h108.9z"/>
					<g id="&lt;Group&gt;">
						<g id="&lt;Group&gt;">
							<path id="&lt;Path&gt;" class="s9" d="m306 607.7c0 2.3-1.9 4.2-4.1 4.2h-115.7c-2.3 0-4.1-1.9-4.1-4.2v-16.5c0-2.3 1.8-4.1 4.1-4.1h115.7c2.2 0 4.1 1.8 4.1 4.1z"/>
							<path id="&lt;Path&gt;" class="s2" d="m267.4 599.9c0 0.9-0.8 1.6-1.7 1.6h-75.2c-0.9 0-1.6-0.7-1.6-1.6v-0.9c0-0.9 0.7-1.6 1.6-1.6h75.2c0.9 0 1.7 0.7 1.7 1.6z"/>
							<g id="&lt;Group&gt;">
								<path id="&lt;Path&gt;" class="s15" d="m281.5 599.5c0 1.1-1 2-2.1 2-1.1 0-2.1-0.9-2.1-2 0-1.2 1-2.1 2.1-2.1 1.1 0 2.1 0.9 2.1 2.1z"/>
								<path id="&lt;Path&gt;" class="s3" d="m290 599.5c0 1.1-0.9 2-2 2-1.2 0-2.1-0.9-2.1-2 0-1.2 0.9-2.1 2.1-2.1 1.1 0 2 0.9 2 2.1z"/>
								<path id="&lt;Path&gt;" class="s6" d="m298.6 599.5c0 1.1-1 2-2.1 2-1.1 0-2.1-0.9-2.1-2 0-1.2 1-2.1 2.1-2.1 1.1 0 2.1 0.9 2.1 2.1z"/>
							</g>
						</g>
						<g id="&lt;Group&gt;">
							<path id="&lt;Path&gt;" class="s9" d="m306 635.6c0 2.3-1.9 4.1-4.1 4.1h-115.7c-2.3 0-4.1-1.8-4.1-4.1v-16.5c0-2.3 1.8-4.1 4.1-4.1h115.7c2.2 0 4.1 1.8 4.1 4.1z"/>
							<path id="&lt;Path&gt;" class="s2" d="m267.4 627.8c0 0.9-0.8 1.6-1.7 1.6h-75.2c-0.9 0-1.6-0.7-1.6-1.6v-0.9c0-0.9 0.7-1.6 1.6-1.6h75.2c0.9 0 1.7 0.7 1.7 1.6z"/>
							<g id="&lt;Group&gt;">
								<path id="&lt;Path&gt;" class="s3" d="m281.5 627.3c0 1.2-1 2.1-2.1 2.1-1.1 0-2.1-0.9-2.1-2.1 0-1.1 1-2 2.1-2 1.1 0 2.1 0.9 2.1 2z"/>
								<path id="&lt;Path&gt;" class="s2" d="m290 627.3c0 1.2-0.9 2.1-2 2.1-1.2 0-2.1-0.9-2.1-2.1 0-1.1 0.9-2 2.1-2 1.1 0 2 0.9 2 2z"/>
								<path id="&lt;Path&gt;" class="s15" d="m298.6 627.3c0 1.2-1 2.1-2.1 2.1-1.1 0-2.1-0.9-2.1-2.1 0-1.1 1-2 2.1-2 1.1 0 2.1 0.9 2.1 2z"/>
							</g>
						</g>
						<g id="&lt;Group&gt;">
							<path id="&lt;Path&gt;" class="s9" d="m306 663.5c0 2.3-1.9 4.1-4.1 4.1h-115.7c-2.3 0-4.1-1.8-4.1-4.1v-16.5c0-2.3 1.8-4.2 4.1-4.2h115.7c2.2 0 4.1 1.9 4.1 4.2z"/>
							<path id="&lt;Path&gt;" class="s2" d="m267.4 655.6c0 1-0.8 1.7-1.7 1.7h-75.2c-0.9 0-1.6-0.7-1.6-1.7v-0.8c0-0.9 0.7-1.6 1.6-1.6h75.2c0.9 0 1.7 0.7 1.7 1.6z"/>
							<g id="&lt;Group&gt;">
								<path id="&lt;Path&gt;" class="s12" d="m281.5 655.2c0 1.2-1 2.1-2.1 2.1-1.1 0-2.1-0.9-2.1-2.1 0-1.1 1-2 2.1-2 1.1 0 2.1 0.9 2.1 2z"/>
								<path id="&lt;Path&gt;" class="s6" d="m290 655.2c0 1.2-0.9 2.1-2 2.1-1.2 0-2.1-0.9-2.1-2.1 0-1.1 0.9-2 2.1-2 1.1 0 2 0.9 2 2z"/>
								<path id="&lt;Path&gt;" class="s15" d="m298.6 655.2c0 1.2-1 2.1-2.1 2.1-1.1 0-2.1-0.9-2.1-2.1 0-1.1 1-2 2.1-2 1.1 0 2.1 0.9 2.1 2z"/>
							</g>
						</g>
						<g id="&lt;Group&gt;">
							<path id="&lt;Path&gt;" class="s9" d="m306 691.4c0 2.3-1.9 4.1-4.1 4.1h-115.7c-2.3 0-4.1-1.8-4.1-4.1v-16.5c0-2.3 1.8-4.2 4.1-4.2h115.7c2.2 0 4.1 1.9 4.1 4.2z"/>
							<path id="&lt;Path&gt;" class="s2" d="m267.4 683.5c0 0.9-0.8 1.7-1.7 1.7h-75.2c-0.9 0-1.6-0.8-1.6-1.7v-0.8c0-0.9 0.7-1.7 1.6-1.7h75.2c0.9 0 1.7 0.8 1.7 1.7z"/>
							<g id="&lt;Group&gt;">
								<path id="&lt;Path&gt;" class="s3" d="m281.5 683.1c0 1.2-1 2.1-2.1 2.1-1.1 0-2.1-0.9-2.1-2.1 0-1.1 1-2.1 2.1-2.1 1.1 0 2.1 1 2.1 2.1z"/>
								<path id="&lt;Path&gt;" class="s15" d="m290 683.1c0 1.2-0.9 2.1-2 2.1-1.2 0-2.1-0.9-2.1-2.1 0-1.1 0.9-2.1 2.1-2.1 1.1 0 2 1 2 2.1z"/>
								<path id="&lt;Path&gt;" class="s2" d="m298.6 683.1c0 1.2-1 2.1-2.1 2.1-1.1 0-2.1-0.9-2.1-2.1 0-1.1 1-2.1 2.1-2.1 1.1 0 2.1 1 2.1 2.1z"/>
							</g>
						</g>
						<g id="&lt;Group&gt;">
							<path id="&lt;Path&gt;" class="s9" d="m306 719.3c0 2.2-1.9 4.1-4.1 4.1h-115.7c-2.3 0-4.1-1.9-4.1-4.1v-16.6c0-2.2 1.8-4.1 4.1-4.1h115.7c2.2 0 4.1 1.9 4.1 4.1z"/>
							<path id="&lt;Path&gt;" class="s2" d="m267.4 711.4c0 0.9-0.8 1.7-1.7 1.7h-75.2c-0.9 0-1.6-0.8-1.6-1.7v-0.8c0-0.9 0.7-1.7 1.6-1.7h75.2c0.9 0 1.7 0.8 1.7 1.7z"/>
							<g id="&lt;Group&gt;">
								<path id="&lt;Path&gt;" class="s12" d="m281.5 711c0 1.1-1 2.1-2.1 2.1-1.1 0-2.1-1-2.1-2.1 0-1.1 1-2.1 2.1-2.1 1.1 0 2.1 1 2.1 2.1z"/>
								<path id="&lt;Path&gt;" class="s2" d="m290 711c0 1.1-0.9 2.1-2 2.1-1.2 0-2.1-1-2.1-2.1 0-1.1 0.9-2.1 2.1-2.1 1.1 0 2 1 2 2.1z"/>
								<path id="&lt;Path&gt;" class="s3" d="m298.6 711c0 1.1-1 2.1-2.1 2.1-1.1 0-2.1-1-2.1-2.1 0-1.1 1-2.1 2.1-2.1 1.1 0 2.1 1 2.1 2.1z"/>
							</g>
						</g>
						<path id="&lt;Path&gt;" class="s6" d="m301.9 733.7c0 1.4-1.1 2.5-2.5 2.5h-110.7c-1.4 0-2.5-1.1-2.5-2.5v-1.6c0-1.4 1.1-2.5 2.5-2.5h110.7c1.4 0 2.5 1.1 2.5 2.5z"/>
					</g>
				</g>
			</g>
			<g id="&lt;Group&gt;">
				<g id="&lt;Group&gt;">
					<path id="&lt;Path&gt;" class="s32" d="m489.1 444.4h-51.8c-1.6 0-2.9-1.3-2.9-2.9v-77.7c0-1.6 1.3-2.9 2.9-2.9h51.8c1.6 0 2.9 1.3 2.9 2.9v77.7c0 1.6-1.3 2.9-2.9 2.9z"/>
				</g>
				<g id="&lt;Group&gt;">
					<g id="&lt;Group&gt;">
						<path id="&lt;Path&gt;" class="s12" d="m474.7 404.6c0-1.1 0.9-2 2-2h2.3c1.1 0 2 0.9 2 2v30.4c0 1.1-0.9 2-2 2h-2.3c-1.1 0-2-0.9-2-2z"/>
					</g>
					<g id="&lt;Group&gt;">
						<path id="&lt;Path&gt;" class="s12" d="m465 413.1c0-1.1 0.9-2 2-2h2.3c1.1 0 2 0.9 2 2v21.9c0 1.1-0.9 2-2 2h-2.3c-1.1 0-2-0.9-2-2z"/>
					</g>
					<g id="&lt;Group&gt;">
						<path id="&lt;Path&gt;" class="s12" d="m455.2 410.6c0-1.1 0.9-2 2-2h2.3c1.1 0 2 0.9 2 2v24.4c0 1.1-0.9 2-2 2h-2.3c-1.1 0-2-0.9-2-2z"/>
					</g>
					<g id="&lt;Group&gt;">
						<path id="&lt;Path&gt;" class="s12" d="m445.5 423.6c0-1.1 0.9-2 2-2h2.3c1.1 0 2 0.9 2 2v11.4c0 1.1-0.9 2-2 2h-2.3c-1.1 0-2-0.9-2-2z"/>
					</g>
				</g>
				<g id="&lt;Group&gt;">
					<path id="&lt;Path&gt;" class="s19" d="m476.5 375.6c-1.2-2.1-2.9-3.9-4.8-5.2l-2 4.1c1.1 0.8 2 1.8 2.7 3z"/>
					<path id="&lt;Path&gt;" class="s12" d="m458.2 392.6c-2.9-1.5-5.1-4.4-5.6-7.8l-4.5 0.4c0.7 5 3.9 9.3 8.2 11.5z"/>
					<path id="&lt;Path&gt;" class="s13" d="m462.4 372.3c2.1-0.1 4.1 0.3 5.8 1.2l1.9-4c-2.4-1.2-5.2-1.8-8.1-1.6-8.1 0.6-14.2 7.5-14 15.5l4.4-0.4c0-5.5 4.3-10.2 10-10.7z"/>
					<path id="&lt;Path&gt;" class="s6" d="m478.4 381.9q-0.2-2.5-1.1-4.7l-4.1 1.9q0.6 1.5 0.7 3.1c0.5 6-3.9 11.1-9.9 11.6q-2.2 0.2-4.1-0.5l-2 4.1c2 0.7 4.2 1 6.5 0.9 8.4-0.7 14.7-8 14-16.4z"/>
				</g>
			</g>
		</g>
		<g id="&lt;Group&gt;">
			<path id="&lt;Path&gt;" class="s28" d="m362 738.8l-10.7-71c-0.2-1.6-1.6-2.8-3.3-2.8h-9.5c-1.7 0-3.1 1.2-3.4 2.8l-12.1 71z"/>
			<path id="&lt;Path&gt;" class="s28" d="m372.7 744.8h-60.5c-0.4 0-0.8-0.4-0.8-0.8v-4.4c0-0.4 0.4-0.8 0.8-0.8h60.5c0.5 0 0.8 0.4 0.8 0.8v4.4c0 0.4-0.3 0.8-0.8 0.8z"/>
			<path id="&lt;Path&gt;" class="s18" d="m355.2 693.6h-24.5l1-5.5h22.7z"/>
			<path id="&lt;Path&gt;" class="s18" d="m353.4 681.7h-20.6l0.9-5.5h18.9z"/>
			<g id="&lt;Group&gt;">
				<path id="&lt;Path&gt;" class="s15" d="m323.2 739q6.5 0 13 0 10.4 0 20.8 0 2.4 0 4.8 0c0.2 0 0.2-0.3 0-0.3q-6.5 0-13.1 0-10.4 0-20.8 0-2.4 0-4.7 0c-0.3 0-0.3 0.3 0 0.3z"/>
			</g>
		</g>
		<g id="&lt;Group&gt;">
			<path id="&lt;Compound Path&gt;" fill-rule="evenodd" class="s33" d="m98.7 562.7h0.3c1.1-0.2 2-1.2 2.2-2.4q0.3-3.1 1.5-5.9c0.5-1.3 0-2.7-1.1-3.3v-0.1c-1.7-0.9-2.4-3-1.6-4.7 1-1.9 3.3-2.5 5-1.4l0.3 0.1c1.6 1 3.7 0.9 5.2-0.1 1.1-0.7 2.3-1.5 3.2-1.9 1.1-0.4 1.7-1.6 1.5-2.8l-0.1-0.4c-0.3-1.9 0.9-3.8 2.8-4.2 2-0.4 3.9 0.9 4.2 2.9l0.1 0.6c0.2 1.2 1.2 2.1 2.3 2.2 2.1 0.2 4.1 0.8 6 1.5 1 0.5 2.3 0.2 3-0.7l0.7-0.9c1.2-1.5 3.4-1.9 4.9-0.8 1.7 1.2 2 3.5 0.7 5.1l-0.6 0.8c-0.8 0.9-0.7 2.3 0 3.2q1.6 2.1 2.6 4.6c0.5 1.1 1.6 1.8 2.8 1.6l0.3-0.1c1.9-0.2 3.8 0.9 4.2 2.8 0.4 2-0.9 3.9-2.9 4.2l-0.6 0.1c-1.2 0.2-2.1 1.1-2.2 2.3-0.2 2-0.8 4-1.6 5.8-0.5 1.1-0.2 2.4 0.8 3.1l0.1 0.2c1.5 1.2 2 3.4 0.8 4.9-1.2 1.7-3.5 2-5.1 0.7l-0.2-0.2c-0.9-0.7-2.2-0.7-3.2 0q-1.9 1.4-4.1 2.4c-1.1 0.5-1.7 1.6-1.5 2.8v0.2c0.3 1.9-0.8 3.8-2.7 4.2-2 0.5-3.9-0.9-4.2-2.9l-0.1-0.4c-0.2-1.2-1.2-2.1-2.3-2.2q-2.9-0.3-5.5-1.3c-1-0.4-2.2-0.1-2.9 0.8l-0.5 0.5c-1.2 1.5-3.4 2-4.9 0.8-1.7-1.2-2-3.5-0.7-5l0.2-0.3c0.8-1 0.7-2.4-0.1-3.3q-1.6-2.1-2.8-4.6c-0.5-1.1-1.6-1.7-2.7-1.5l-0.7 0.1c-1.9 0.3-3.8-1.2-4-3.2-0.2-1.9 1.3-3.6 3.2-3.9zm22.7-17.5c-11 0.6-18.6 11.1-15.8 21.7 2.1 7.8 9.5 13.3 17.6 12.8 11-0.6 18.6-11.1 15.8-21.7-2.1-7.8-9.5-13.2-17.6-12.8z"/>
			<path id="&lt;Compound Path&gt;" fill-rule="evenodd" class="s33" d="m121 554.4c4.4-0.7 8.5 2.3 9.2 6.7 0.7 4.4-2.3 8.5-6.7 9.2-4.4 0.7-8.5-2.3-9.2-6.7-0.7-4.4 2.3-8.5 6.7-9.2zm1.8 11c1.6-0.3 2.7-1.8 2.4-3.4-0.2-1.6-1.8-2.7-3.4-2.5-1.6 0.3-2.7 1.8-2.4 3.4 0.2 1.6 1.8 2.7 3.4 2.5z"/>
		</g>
		<path id="&lt;Compound Path&gt;" fill-rule="evenodd" class="s9" d="m1031.1 568.3l0.4-2.1c0-0.3 0.4-0.6 0.7-0.5l0.8 0.1c0.4 0.1 0.8-0.1 0.9-0.5q0.4-1.2 1-2.2c0.2-0.3 0.1-0.8-0.2-1l-0.8-0.7c-0.3-0.2-0.4-0.6-0.2-0.9l1.3-1.6c0.2-0.3 0.6-0.4 0.9-0.2l1.1 0.8c0.3 0.3 0.7 0.2 1 0q0.9-0.8 2-1.4c0.4-0.2 0.5-0.5 0.4-0.9l-0.4-1.3c-0.1-0.4 0.1-0.7 0.4-0.8l2-0.7c0.4-0.1 0.7 0.1 0.8 0.5l0.4 1.2c0.1 0.3 0.5 0.6 0.9 0.5q0.9-0.1 1.9-0.2c0.4 0 0.7-0.2 0.8-0.6l0.1-1.1c0.1-0.4 0.4-0.6 0.8-0.6l2.1 0.4c0.3 0 0.6 0.4 0.5 0.7l-0.2 1.2c-0.1 0.3 0.2 0.7 0.5 0.8q1.1 0.4 2.1 1c0.3 0.2 0.8 0.1 1-0.3l0.7-0.9c0.2-0.3 0.7-0.4 0.9-0.2l1.7 1.3c0.3 0.2 0.4 0.6 0.1 0.9l-0.8 1.2c-0.3 0.3-0.2 0.7 0 1q0.7 0.8 1.2 1.6c0.2 0.3 0.6 0.5 0.9 0.4l1.2-0.4c0.4-0.1 0.7 0.1 0.8 0.4l0.7 2c0.1 0.4-0.1 0.7-0.5 0.9l-0.8 0.2c-0.4 0.2-0.6 0.5-0.6 1q0.3 1.2 0.3 2.4c0 0.4 0.3 0.7 0.6 0.8l1 0.1c0.3 0.1 0.6 0.4 0.5 0.8l-0.4 2.1c0 0.3-0.4 0.6-0.7 0.5l-0.9-0.2c-0.4 0-0.8 0.2-0.9 0.6q-0.4 1-0.9 1.9c-0.2 0.4-0.1 0.8 0.2 1l0.7 0.6c0.3 0.2 0.4 0.6 0.2 0.9l-1.3 1.7c-0.2 0.3-0.6 0.3-0.9 0.1l-0.9-0.7c-0.3-0.2-0.7-0.2-1 0.1q-1 0.8-2.1 1.5c-0.4 0.2-0.5 0.6-0.4 0.9l0.4 1.3c0.1 0.4-0.1 0.8-0.4 0.9l-2 0.6c-0.4 0.1-0.7-0.1-0.8-0.4l-0.4-1.2c-0.1-0.4-0.5-0.6-0.9-0.5q-1 0.1-2 0.1c-0.4 0-0.7 0.3-0.8 0.7l-0.1 1.1c-0.1 0.3-0.5 0.6-0.8 0.5l-2.1-0.3c-0.3-0.1-0.6-0.4-0.5-0.8l0.2-1.1c0-0.4-0.2-0.7-0.5-0.9q-1.2-0.4-2.3-1c-0.3-0.2-0.8-0.2-1 0.2l-0.6 0.7c-0.2 0.3-0.7 0.4-1 0.2l-1.6-1.3c-0.3-0.2-0.4-0.6-0.1-0.9l0.7-1.1c0.3-0.2 0.2-0.6 0-0.9q-0.6-0.8-1.2-1.8c-0.2-0.3-0.5-0.4-0.9-0.3l-1 0.3c-0.4 0.1-0.8-0.1-0.9-0.4l-0.6-2c-0.1-0.4 0.1-0.7 0.4-0.8l0.9-0.3c0.3-0.1 0.6-0.5 0.5-0.9q-0.2-1.1-0.2-2.1c0-0.4-0.3-0.8-0.6-0.8l-0.8-0.2c-0.4 0-0.6-0.4-0.6-0.7zm12.2 10.2c6.1 2.3 12.6-2.3 12.5-8.9-0.1-3.7-2.5-7.1-5.9-8.4-6.2-2.3-12.7 2.3-12.6 8.9 0.1 3.7 2.5 7.1 6 8.4z"/>
		<path id="&lt;Compound Path&gt;" fill-rule="evenodd" class="s12" d="m1066.6 594.3h0.2c1.2 0 2.1-0.7 2.4-1.8q0.7-2.8 2.2-5.3c0.7-1 0.5-2.4-0.5-3.1v-0.1c-1.4-1.1-1.7-3.1-0.7-4.6 1.1-1.5 3.3-1.7 4.7-0.5l0.3 0.2c1.3 1.1 3.2 1.3 4.8 0.6 1.1-0.5 2.3-1 3.1-1.2 1.1-0.3 1.9-1.3 1.9-2.4v-0.4c0-1.8 1.3-3.4 3.1-3.5 1.9-0.1 3.4 1.4 3.4 3.3v0.6c0 1.1 0.8 2.1 1.8 2.4q2.8 0.7 5.2 2.2c1 0.6 2.2 0.5 3-0.2l0.7-0.7c1.3-1.2 3.4-1.3 4.7-0.1 1.3 1.4 1.2 3.5-0.1 4.8l-0.7 0.6c-0.9 0.8-1.1 2-0.5 3q1.1 2.1 1.8 4.6c0.2 1 1.2 1.8 2.3 1.8h0.3c1.7 0 3.3 1.4 3.4 3.1 0.1 1.9-1.4 3.5-3.3 3.5h-0.6c-1 0-2 0.7-2.3 1.8q-0.8 2.7-2.3 5.1c-0.6 0.9-0.5 2.1 0.2 2.9l0.2 0.2c1.2 1.3 1.3 3.4 0 4.6-1.3 1.4-3.5 1.3-4.8-0.1l-0.1-0.2c-0.8-0.8-2-1-3-0.5q-1.9 1-4 1.6c-1.1 0.3-1.9 1.2-1.9 2.3v0.3c0 1.8-1.3 3.4-3.1 3.4-1.9 0.1-3.4-1.4-3.4-3.2v-0.5c0-1.1-0.8-2-1.8-2.3q-2.6-0.7-4.8-2c-0.9-0.5-2.1-0.4-2.9 0.3l-0.5 0.5c-1.3 1.2-3.3 1.2-4.6 0-1.4-1.3-1.3-3.5 0.1-4.8l0.2-0.2c0.9-0.8 1-2 0.5-3q-1.3-2.2-2-4.6c-0.2-1.1-1.2-1.8-2.3-1.8h-0.5c-1.9 0-3.4-1.6-3.3-3.5 0.1-1.8 1.7-3.1 3.5-3.1zm23.3-12.7c-10.1-1-18.6 7.4-17.6 17.5 0.8 7.5 6.8 13.6 14.3 14.3 10.1 1 18.6-7.4 17.6-17.6-0.8-7.4-6.8-13.5-14.3-14.2z"/>
	</g>
</svg>