<svg version="1.2" xmlns="http://www.w3.org/2000/svg" viewBox="0 0 998 609" width="998" height="609">
	<title>iStock-1439841519</title>
	<style>
		.s0 { fill: #96cae0 } 
		.s1 { fill: #edf7fd } 
		.s2 { fill: #b9dded } 
		.s3 { fill: #dcf1fd } 
		.s4 { fill: #083a60 } 
		.s5 { fill: #41bbf0 } 
		.s6 { fill: #78b7ce } 
		.s7 { fill: #a6e4f4 } 
		.s8 { fill: #124c82 } 
		.s9 { fill: #b3c2ce } 
		.s10 { fill: #ffffff } 
		.s11 { fill: #fad86a } 
		.s12 { fill: #dc4e4d } 
		.s13 { opacity: .3;mix-blend-mode: multiply;fill: #124c82 } 
		.s14 { fill: #205f8e } 
		.s15 { opacity: .6;mix-blend-mode: screen;fill: #083a60 } 
		.s16 { fill: #022d47 } 
		.s17 { opacity: .3;fill: #78b7ce } 
		.s18 { fill: #f7b126 } 
		.s19 { fill: #f5ae99 } 
		.s20 { fill: #e2c19a } 
		.s21 { mix-blend-mode: multiply;fill: #f0c95a } 
		.s22 { opacity: .3;mix-blend-mode: multiply;fill: #e2c19a } 
		.s23 { fill: #f2d7b1 } 
		.s24 { fill: #f0c95a } 
		.s25 { fill: #0d4570 } 
		.s26 { fill: #ce4141 } 
		.s27 { fill: #e6e7e8 } 
		.s28 { fill: #dbdbdb } 
		.s29 { fill: #e7e7e8 } 
		.s30 { opacity: .3;mix-blend-mode: multiply;fill: #f5ae99 } 
		.s31 { fill: #27b0e0 } 
		.s32 { fill: #073551 } 
		.s33 { fill: #2b84cc } 
		.s34 { fill: #c5edf9 } 
		.s35 { fill: #d7f4ff } 
		.s36 { fill: #e6f7ff } 
		.s37 { mix-blend-mode: multiply;fill: #dbeff8 } 
		.s38 { opacity: .5;mix-blend-mode: multiply;fill: #96cae0 } 
		.s39 { fill: #dbeff8 } 
		.s40 { fill: #cdedf9 } 
		.s41 { fill: #c2f2ee } 
		.s42 { fill: #69d3b5 } 
		.s43 { fill: #8bdfc8 } 
		.s44 { fill: #ace6d4 } 
		.s45 { fill: #f9e6c5 } 
		.s46 { fill: #333333 } 
	</style>
	<g id="_Artboards_">
	</g>
	<g id="Guides For Artboard">
	</g>
	<g id="Layer 2">
		<g id="&lt;Group&gt;">
			<g id="&lt;Group&gt;">
				<g id="&lt;Group&gt;">
					<path id="&lt;Path&gt;" class="s0" d="m534.4 301.4h-1.5v9h70.9l0.3-16.9-42.4-22.1c0 16.6 1.2 31.3-27.3 30z"/>
					<path id="&lt;Path&gt;" class="s1" d="m598.7 308.2h65.8v-6.8h-65.8z"/>
					<path id="&lt;Path&gt;" class="s2" d="m632.4 271.4h-63.7c-1.2 16.9 1.5 31.3 30 30h57c-22.3-1.1-24.4-14.5-23.3-30z"/>
				</g>
				<path id="&lt;Path&gt;" class="s0" d="m697.8 111h-187.5c-7 0-12.7 5.7-12.7 12.6v144.1c0 6.9 5.7 12.6 12.7 12.6h187.5c7 0 12.7-5.7 12.7-12.6v-144.1c0-6.9-5.7-12.6-12.7-12.6z"/>
				<path id="&lt;Path&gt;" class="s3" d="m700.2 111h-182.9c-8 0-14.4 6.4-14.4 14.3v140.7c0 7.9 6.4 14.3 14.4 14.3h182.9c7.9 0 14.3-6.4 14.3-14.3v-140.7c0-7.9-6.4-14.3-14.3-14.3z"/>
				<path id="&lt;Path&gt;" class="s4" d="m699.2 120.3h-182.1c-2 0-3.7 1.7-3.7 3.7v126.7c0 2 1.7 3.6 3.7 3.6h182.1c2 0 3.6-1.6 3.6-3.6v-126.7c0-2-1.6-3.7-3.6-3.7z"/>
				<path id="&lt;Path&gt;" class="s5" d="m519.5 248.3h177.3v-121.9h-177.3z"/>
				<path id="&lt;Path&gt;" class="s6" d="m610.8 262.3c-2.9 0-5.3 2.3-5.3 5.2 0 2.9 2.4 5.3 5.3 5.3 2.9 0 5.2-2.4 5.2-5.3 0-2.9-2.3-5.2-5.2-5.2z"/>
			</g>
			<path id="&lt;Path&gt;" class="s7" d="m536.5 248.3h143.2v-4.3h-143.2z"/>
			<path id="&lt;Path&gt;" class="s7" d="m519.5 134h177.3v-7.6h-177.3z"/>
			<g id="&lt;Group&gt;">
				<path id="&lt;Path&gt;" class="s4" d="m630.2 162.5h41.8c2.2 0 4 1.8 4 4v70.3c0 2.2-1.8 4-4 4h-41.8c-2.2 0-4-1.8-4-4v-70.3c0-2.2 1.8-4 4-4z"/>
				<path id="&lt;Path&gt;" class="s8" d="m630.1 162.5h41.9c2.2 0 4 1.8 4 4v3.5h-49.8v-3.5c0-2.2 1.7-4 3.9-4z"/>
				<path id="&lt;Path&gt;" class="s9" d="m668.1 176.5h-36.5v-2.2h36.5z"/>
				<path id="&lt;Path&gt;" class="s9" d="m650.3 181.6h-18.7v-2.2h18.7z"/>
				<path id="&lt;Path&gt;" class="s9" d="m665.7 186.7h-34.1v-2.2h34.1z"/>
				<path id="&lt;Path&gt;" class="s9" d="m660.1 191.7h-22.2v-2.2h22.2z"/>
				<path id="&lt;Path&gt;" class="s9" d="m665.5 196.8h-27.6v-2.2h27.6z"/>
				<path id="&lt;Path&gt;" class="s9" d="m663 201.9h-25.1v-2.2h25.1z"/>
				<path id="&lt;Path&gt;" class="s9" d="m645.6 207h-7.7v-2.2h7.7z"/>
				<path id="&lt;Path&gt;" class="s9" d="m663.2 212.1h-31.6v-2.2h31.6z"/>
				<path id="&lt;Path&gt;" class="s9" d="m645.1 217.2h-13.5v-2.2h13.5z"/>
				<path id="&lt;Path&gt;" class="s9" d="m641.1 222.3h-9.5v-2.2h9.5z"/>
				<path id="&lt;Path&gt;" class="s9" d="m665.8 227.4h-27v-2.2h27z"/>
				<path id="&lt;Path&gt;" class="s9" d="m660.1 232.5h-21.3v-2.2h21.3z"/>
			</g>
			<g id="&lt;Group&gt;">
				<path id="&lt;Path&gt;" class="s4" d="m609.6 141.1h-74.6c-2.2 0-3.9 1.8-3.9 4v70.3c0 2.1 1.7 3.9 3.9 3.9h74.6c2.2 0 3.9-1.8 3.9-3.9v-70.3c0-2.2-1.7-4-3.9-4z"/>
				<path id="&lt;Path&gt;" class="s8" d="m609.6 141.1h-74.6c-2.2 0-3.9 1.7-3.9 3.9v3.5h82.4v-3.5c0-2.2-1.7-3.9-3.9-3.9z"/>
				<g id="&lt;Group&gt;">
					<g id="&lt;Group&gt;">
						<path id="&lt;Path&gt;" class="s10" d="m573.2 170.6h-20.5c-2 0-3.6 1.6-3.6 3.6v28.3h1.1v-28.3c0-1.4 1.1-2.5 2.5-2.5h21.6v-10.2h-1.1z"/>
					</g>
					<g id="&lt;Group&gt;">
						<path id="&lt;Path&gt;" class="s10" d="m594.8 170.6h-20.5v-9.1h-1.1v10.2h21.6c1.4 0 2.6 1.1 2.6 2.5v28.3h1v-28.3c0-2-1.6-3.6-3.6-3.6z"/>
					</g>
				</g>
				<g id="&lt;Group&gt;">
					<path id="&lt;Path&gt;" class="s10" d="m573.2 203.9h1.1v-35.9h-1.1z"/>
				</g>
				<path id="&lt;Path&gt;" class="s11" d="m578.9 153.5h-10.3c-0.6 0-1.2 0.5-1.2 1.2v10.2c0 0.7 0.6 1.2 1.2 1.2h10.3c0.7 0 1.2-0.5 1.2-1.2v-10.2c0-0.7-0.5-1.2-1.2-1.2z"/>
				<path id="&lt;Path&gt;" class="s3" d="m579.3 176.4h-11.1c-0.6 0-1.1 0.5-1.1 1.2v11c0 0.7 0.5 1.2 1.1 1.2h11.1c0.6 0 1.2-0.5 1.2-1.2v-11c0-0.7-0.6-1.2-1.2-1.2z"/>
				<g id="&lt;Group&gt;">
					<path id="&lt;Path&gt;" class="s12" d="m603.4 176.4h-11c-0.7 0-1.2 0.5-1.2 1.2v11c0 0.7 0.5 1.2 1.2 1.2h11c0.7 0 1.2-0.5 1.2-1.2v-11c0-0.7-0.5-1.2-1.2-1.2z"/>
					<path id="&lt;Path&gt;" class="s12" d="m555.1 176.4h-11c-0.6 0-1.2 0.5-1.2 1.2v11c0 0.7 0.6 1.2 1.2 1.2h11c0.7 0 1.2-0.5 1.2-1.2v-11c0-0.7-0.5-1.2-1.2-1.2z"/>
				</g>
				<path id="&lt;Path&gt;" class="s12" d="m579.3 195.6h-11.1c-0.6 0-1.1 0.5-1.1 1.2v11c0 0.7 0.5 1.2 1.1 1.2h11.1c0.6 0 1.2-0.5 1.2-1.2v-11c0-0.7-0.6-1.2-1.2-1.2z"/>
				<g id="&lt;Group&gt;">
					<path id="&lt;Path&gt;" class="s3" d="m603.4 195.6h-11c-0.7 0-1.2 0.5-1.2 1.2v11c0 0.7 0.5 1.2 1.2 1.2h11c0.7 0 1.2-0.5 1.2-1.2v-11c0-0.7-0.5-1.2-1.2-1.2z"/>
					<path id="&lt;Path&gt;" class="s3" d="m555.1 195.6h-11c-0.6 0-1.2 0.5-1.2 1.2v11c0 0.7 0.6 1.2 1.2 1.2h11c0.7 0 1.2-0.5 1.2-1.2v-11c0-0.7-0.5-1.2-1.2-1.2z"/>
				</g>
			</g>
		</g>
		<g id="&lt;Group&gt;">
			<g id="&lt;Group&gt;">
				<path id="&lt;Path&gt;" class="s12" d="m340.6 287.5c-5.2 27.4-12 54.6-15.7 82.4-0.9 6.4-1.5 12.9-2.9 19.3-1.4 6.5-3.3 12.8-5.4 19.1-2 6.1-3.8 12.5-6.9 18.1-3.1 5.7-7.4 10.6-11.7 15.4-5.5 6-11.1 12-16.6 18.1-4.1 4.6-8.4 10.5-5.7 16.9 0.7 1.6 3 0.2 2.3-1.4-2.8-6.7 5.3-13.5 9.2-17.8 4.8-5.3 9.6-10.5 14.4-15.8 4-4.5 8-9.3 10.8-14.7 2.7-5.2 4.4-10.9 6.3-16.4 2-6.1 3.9-12.2 5.4-18.4 1.4-6.1 2.2-12.2 3-18.4 1.6-13.5 4.1-26.9 6.8-40.2 3.1-15.2 6.4-30.3 9.3-45.5 0.4-1.7-2.2-2.4-2.6-0.7z"/>
			</g>
			<g id="&lt;Group&gt;">
				<path id="&lt;Path&gt;" class="s12" d="m349.6 294.3c-4.1 14.6-7.4 29.5-9.9 44.5-2.4 14.9-3.9 30-6 45-3.6 26.8-9 53.9-22.9 77.5-7.1 12.1-16.4 22.9-28 30.9-1.4 1 0 3.3 1.4 2.3 47.6-33 49.5-96.4 57.1-148.1 2.5-17.3 6.1-34.5 10.9-51.4 0.5-1.6-2.1-2.3-2.6-0.7z"/>
			</g>
			<g id="&lt;Group&gt;">
				<path id="&lt;Path&gt;" class="s12" d="m506.2 305.1c-2.8 11.3-12.1 19.1-22.3 23.9-12.1 5.7-26.1 7.6-39.4 8.1-14.3 0.5-28.5-0.8-42.6-2.5-13.9-1.7-28.1-3.1-41.4-8-12.8-4.7-24.9-13.5-30.1-26.5-0.6-1.6-3.2-0.9-2.6 0.7 4.6 11.4 13.9 19.9 24.7 25.3 13.1 6.5 27.8 8.5 42.1 10.3 15.3 1.9 30.7 3.7 46.2 3.5 14.1-0.2 28.7-1.9 41.7-7.4 11.9-5 23.1-13.6 26.3-26.7 0.4-1.6-2.2-2.4-2.6-0.7z"/>
			</g>
			<path id="&lt;Path&gt;" class="s4" d="m348 406.2h-116.9c-4 0-7.2 3.3-7.2 7.3v155.1c0 4 3.2 7.2 7.2 7.2h116.9c4 0 7.2-3.2 7.2-7.2v-155.1c0-4-3.2-7.3-7.2-7.3z"/>
			<path id="&lt;Path&gt;" class="s8" d="m392.5 406.2h-59.8c-3.3 0-6 2.7-6 6.1v157.5c0 3.3 2.7 6 6 6h59.8c3.3 0 6-2.7 6-6v-157.5c0-3.4-2.7-6.1-6-6.1z"/>
			<path id="&lt;Path&gt;" class="s13" d="m337.2 491h50.9c1 0 1.8-0.8 1.8-1.8v-69.9c0-1-0.8-1.8-1.8-1.8h-50.9c-1 0-1.8 0.8-1.8 1.8v69.9c0 1 0.8 1.8 1.8 1.8z"/>
			<path id="&lt;Path&gt;" class="s14" d="m337.6 422h49.8v-1.8h-49.8z"/>
			<path id="&lt;Path&gt;" class="s14" d="m337.6 427.1h49.8v-1.7h-49.8z"/>
			<path id="&lt;Path&gt;" class="s14" d="m337.6 432.2h49.8v-1.7h-49.8z"/>
			<path id="&lt;Path&gt;" class="s14" d="m337.6 437.3h49.8v-1.7h-49.8z"/>
			<path id="&lt;Path&gt;" class="s14" d="m337.6 442.4h49.8v-1.7h-49.8z"/>
			<path id="&lt;Path&gt;" class="s14" d="m337.6 447.5h49.8v-1.7h-49.8z"/>
			<path id="&lt;Path&gt;" class="s14" d="m337.6 452.6h49.8v-1.7h-49.8z"/>
			<path id="&lt;Path&gt;" class="s14" d="m337.6 457.7h49.8v-1.7h-49.8z"/>
			<path id="&lt;Path&gt;" class="s14" d="m337.6 462.8h49.8v-1.7h-49.8z"/>
			<path id="&lt;Path&gt;" class="s14" d="m337.6 467.9h49.8v-1.7h-49.8z"/>
			<path id="&lt;Path&gt;" class="s14" d="m337.6 473h49.8v-1.7h-49.8z"/>
			<path id="&lt;Path&gt;" class="s14" d="m337.6 478.1h49.8v-1.7h-49.8z"/>
			<path id="&lt;Path&gt;" class="s14" d="m337.6 483.2h49.8v-1.7h-49.8z"/>
			<path id="&lt;Path&gt;" class="s14" d="m337.6 488.3h49.8v-1.7h-49.8z"/>
			<path id="&lt;Path&gt;" class="s4" d="m342.8 506.3c-3.1 0-5.6 2.9-5.6 6.5 0 3.6 2.5 6.5 5.6 6.5 3 0 5.5-2.9 5.5-6.5 0-3.6-2.5-6.5-5.5-6.5z"/>
			<path id="&lt;Path&gt;" class="s12" d="m342.8 508.4c-1.9 0-3.4 2-3.4 4.4 0 2.5 1.5 4.4 3.4 4.4 1.8 0 3.4-1.9 3.4-4.4 0-2.4-1.6-4.4-3.4-4.4z"/>
			<path id="&lt;Path&gt;" class="s15" d="m336.8 567.2h51.5c0.9 0 1.6-0.7 1.6-1.6v-9.9c0-0.9-0.7-1.6-1.6-1.6h-51.5c-0.9 0-1.6 0.7-1.6 1.6v9.9c0 0.9 0.7 1.6 1.6 1.6z"/>
			<path id="&lt;Path&gt;" class="s4" d="m335.2 528h15.5v-4.8h-15.5z"/>
			<path id="&lt;Path&gt;" class="s4" d="m335.2 536.3h15.5v-4.8h-15.5z"/>
			<path id="&lt;Path&gt;" class="s4" d="m335.2 544.6h15.5v-4.8h-15.5z"/>
			<path id="&lt;Path&gt;" class="s16" d="m335.2 528h12.4v-4.8h-12.4z"/>
			<path id="&lt;Path&gt;" class="s16" d="m335.2 536.3h12.4v-4.8h-12.4z"/>
			<path id="&lt;Path&gt;" class="s16" d="m335.2 544.6h12.4v-4.8h-12.4z"/>
		</g>
		<g id="&lt;Group&gt;">
			<g id="&lt;Group&gt;">
				<path id="&lt;Path&gt;" class="s0" d="m284.7 301.4h-1.5v9h70.9l0.2-16.9-42.4-22.1c0.1 16.6 1.3 31.3-27.2 30z"/>
				<path id="&lt;Path&gt;" class="s1" d="m348.9 308.2h65.8v-6.8h-65.8z"/>
				<path id="&lt;Path&gt;" class="s2" d="m382.6 271.4h-63.6c-1.2 16.9 1.4 31.3 29.9 30h57.1c-22.3-1.1-24.5-14.5-23.4-30z"/>
			</g>
			<path id="&lt;Path&gt;" class="s0" d="m447.3 111h-189c-6.6 0-11.9 5.4-11.9 11.9v145.5c0 6.6 5.3 11.9 11.9 11.9h189c6.6 0 11.9-5.3 11.9-11.9v-145.5c0-6.5-5.3-11.9-11.9-11.9z"/>
			<path id="&lt;Path&gt;" class="s3" d="m449.6 111h-184.4c-7.3 0-13.2 5.9-13.2 13.2v142.9c0 7.3 5.9 13.2 13.2 13.2h184.4c7.2 0 13.2-5.9 13.2-13.2v-142.9c0-7.3-6-13.2-13.2-13.2z"/>
			<path id="&lt;Path&gt;" class="s4" d="m449.4 120.3h-182c-2 0-3.7 1.7-3.7 3.8v126.5c0 2.1 1.7 3.7 3.7 3.7h182c2 0 3.7-1.6 3.7-3.7v-126.5c0-2.1-1.7-3.8-3.7-3.8z"/>
			<path id="&lt;Path&gt;" class="s5" d="m269.7 248.3h177.4v-121.9h-177.4z"/>
			<path id="&lt;Path&gt;" class="s7" d="m286.8 248.3h143.2v-4.3h-143.2z"/>
			<path id="&lt;Path&gt;" class="s7" d="m269.7 134h177.4v-7.6h-177.4z"/>
			<path id="&lt;Path&gt;" class="s17" d="m361 262.3c-2.9 0-5.2 2.3-5.2 5.2 0 2.9 2.3 5.3 5.2 5.3 2.9 0 5.3-2.4 5.3-5.3 0-2.9-2.4-5.2-5.3-5.2z"/>
			<path id="&lt;Path&gt;" class="s10" d="m293.6 142.4h112.9c2.2 0 3.9 1.8 3.9 4v70.3c0 2.2-1.7 4-3.9 4h-112.9c-2.2 0-4-1.8-4-4v-70.3c0-2.2 1.8-4 4-4z"/>
			<path id="&lt;Path&gt;" class="s8" d="m293.5 142.4h113c2.2 0 3.9 1.8 3.9 4v3.5h-120.8v-3.5c0-2.2 1.8-4 3.9-4z"/>
			<g id="&lt;Group&gt;">
				<path id="&lt;Path&gt;" class="s4" d="m386 162.5h41.8c2.2 0 4 1.8 4 4v70.3c0 2.2-1.8 4-4 4h-41.8c-2.2 0-4-1.8-4-4v-70.3c0-2.2 1.8-4 4-4z"/>
				<path id="&lt;Path&gt;" class="s8" d="m386 162.5h41.9c2.1 0 3.9 1.8 3.9 4v3.5h-49.8v-3.5c0-2.2 1.8-4 4-4z"/>
				<path id="&lt;Path&gt;" class="s9" d="m423.9 176.5h-36.4v-2.2h36.4z"/>
				<path id="&lt;Path&gt;" class="s9" d="m406.1 181.6h-18.6v-2.2h18.6z"/>
				<path id="&lt;Path&gt;" class="s9" d="m421.5 186.7h-34v-2.2h34z"/>
				<path id="&lt;Path&gt;" class="s9" d="m416 191.8h-22.2v-2.2h22.2z"/>
				<path id="&lt;Path&gt;" class="s9" d="m421.3 196.8h-27.5v-2.2h27.5z"/>
				<path id="&lt;Path&gt;" class="s9" d="m418.9 201.9h-25.1v-2.2h25.1z"/>
				<path id="&lt;Path&gt;" class="s9" d="m401.5 207h-7.7v-2.2h7.7z"/>
				<path id="&lt;Path&gt;" class="s9" d="m419.1 212.1h-31.6v-2.2h31.6z"/>
				<path id="&lt;Path&gt;" class="s9" d="m400.9 217.2h-13.4v-2.2h13.4z"/>
				<path id="&lt;Path&gt;" class="s9" d="m396.9 222.3h-9.4v-2.2h9.4z"/>
				<path id="&lt;Path&gt;" class="s9" d="m421.6 227.4h-27v-2.2h27z"/>
				<path id="&lt;Path&gt;" class="s9" d="m416 232.5h-21.4v-2.2h21.4z"/>
			</g>
			<path id="&lt;Path&gt;" class="s18" d="m337.5 157.9h-42.2v-2.5h42.2z"/>
			<path id="&lt;Path&gt;" class="s12" d="m310.8 162.5h-15.5v-2.5h15.5z"/>
			<path id="&lt;Path&gt;" class="s2" d="m349.7 162.5h-41v-2.5h41z"/>
			<path id="&lt;Path&gt;" class="s18" d="m319.8 167.1h-24.5v-2.5h24.5z"/>
			<path id="&lt;Path&gt;" class="s18" d="m348.2 167.1h-28.4v-2.5h28.4z"/>
			<path id="&lt;Path&gt;" class="s2" d="m342.6 171.7h-47.3v-2.5h47.3z"/>
			<path id="&lt;Path&gt;" class="s18" d="m314.4 171.7h-19.1v-2.5h19.1z"/>
			<path id="&lt;Path&gt;" class="s2" d="m342.6 182.5h-47.3v-2.4h47.3z"/>
			<path id="&lt;Path&gt;" class="s19" d="m309.1 182.5h-13.8v-2.4h13.8z"/>
			<path id="&lt;Path&gt;" class="s2" d="m357.5 187.9h-62.2v-2.5h62.2z"/>
			<path id="&lt;Path&gt;" class="s18" d="m328.9 187.9h-33.6v-2.5h33.6z"/>
			<path id="&lt;Path&gt;" class="s2" d="m363 193.3h-67.7v-2.5h67.7z"/>
			<path id="&lt;Path&gt;" class="s18" d="m314.4 193.3h-19.1v-2.5h19.1z"/>
			<path id="&lt;Path&gt;" class="s2" d="m360.4 198.6h-65.1v-2.4h65.1z"/>
			<path id="&lt;Path&gt;" class="s18" d="m318.8 198.6h-23.5v-2.4h23.5z"/>
			<path id="&lt;Path&gt;" class="s2" d="m356.8 204h-61.5v-2.5h61.5z"/>
			<path id="&lt;Path&gt;" class="s12" d="m314.4 204h-19.1v-2.5h19.1z"/>
		</g>
		<g id="&lt;Group&gt;">
			<g id="&lt;Group&gt;">
				<g id="&lt;Group&gt;">
					<path id="&lt;Compound Path&gt;" fill-rule="evenodd" class="s12" d="m268.7 281.5c0 7.1-6.3 12.8-14.1 12.8-7.8 0-14.2-5.7-14.2-12.8 0-7 6.4-12.7 14.2-12.7 7.8 0 14.1 5.7 14.1 12.7zm-5.5 0c0-3.9-3.8-7.2-8.6-7.2-4.8 0-8.7 3.3-8.7 7.2 0 4 3.9 7.3 8.7 7.3 4.8 0 8.6-3.3 8.6-7.3z"/>
				</g>
			</g>
			<g id="&lt;Group&gt;">
				<path id="&lt;Path&gt;" class="s12" d="m255.2 299.2c0 3.7 2.8 6.6 6.4 6.6h25.4c3.5 0 6.3-2.9 6.3-6.6v-40.2h-38.1z"/>
			</g>
			<g id="&lt;Group&gt;" style="opacity: .3;mix-blend-mode: multiply">
				<path id="&lt;Path&gt;" class="s12" d="m264.1 299.2v-40.2h-8.9v40.2c0 4.6 2.4 6.6 6.4 6.6h8.8c-3.5 0-6.3-2.9-6.3-6.6z"/>
			</g>
			<g id="&lt;Group&gt;">
				<path id="&lt;Path&gt;" class="s10" d="m280.3 274.7h1.1v-15.7h-1.1z"/>
			</g>
			<g id="&lt;Group&gt;">
				<path id="&lt;Path&gt;" class="s11" d="m285 274.3h-8.3c-0.6 0-1 0.4-1 1v8.4c0 0.5 0.4 1 1 1h8.3c0.6 0 1-0.5 1-1v-8.4c0-0.6-0.4-1-1-1z"/>
			</g>
		</g>
		<g id="&lt;Group&gt;">
			<g id="&lt;Group&gt;">
				<path id="&lt;Path&gt;" class="s20" d="m696.5 574.9h13.1l40-250.9h-22.3z"/>
				<path id="&lt;Path&gt;" class="s21" d="m725.7 336.8h21.9l2-12.8h-22.3z"/>
				<path id="&lt;Path&gt;" class="s20" d="m821 324l40.1 250.9h13l-30.7-250.9z"/>
				<path id="&lt;Path&gt;" class="s22" d="m821 324l2 12.8h21.9l-1.5-12.8z"/>
			</g>
			<path id="&lt;Path&gt;" class="s23" d="m150.4 324h749.4v-18.2h-749.4z"/>
			<path id="&lt;Path&gt;" class="s24" d="m121.2 324h197.6v-18.2h-197.6z"/>
			<path id="&lt;Path&gt;" class="s20" d="m121.2 324h197.6v-18.2h-197.6z"/>
			<g id="&lt;Group&gt;">
				<path id="&lt;Path&gt;" class="s24" d="m131.2 574.9h13.1l40-250.9h-22.3z"/>
				<path id="&lt;Path&gt;" class="s21" d="m160.4 336.8h21.9l2-12.8h-22.3z"/>
				<path id="&lt;Path&gt;" class="s20" d="m255.7 324l40 250.9h13.1l-30.8-250.9z"/>
				<path id="&lt;Path&gt;" class="s22" d="m255.7 324l2 12.8h21.9l-1.6-12.8z"/>
			</g>
		</g>
		<g id="&lt;Group&gt;">
			<path id="&lt;Path&gt;" class="s2" d="m477.6 289.7h-20.2c-9.3 0-16.8 7.5-16.8 16.8h53.8c0-9.3-7.6-16.8-16.8-16.8z"/>
			<path id="&lt;Path&gt;" class="s19" d="m448.9 286.6c-5.2 4.5-7.8 7.9-9.7 11.7-0.5 4.3 1.8 4.2 5 2.8 5.1-5.6 10.1-8.9 14.9-8.3 6.3 7.4 12.1 11.4 17.6 13.1l22.1-0.3 20.9-18c0 0-28.1-9.3-37.5-10.7-7.8-1.2-27.9 5.9-33.3 9.7z"/>
			<path id="&lt;Path&gt;" class="s25" d="m657.1 540.8c-5.1-4-54.2 1.2-54.2 1.2 0 0-33.1 4-38.8 5-5.6 0.9-15.3 9.1-14.4 19 1 9.9 37 3.1 37 3.1l77.6-3.1c0 0-2.1-21.2-7.2-25.2z"/>
			<path id="&lt;Path&gt;" class="s26" d="m657.1 540.8c-5.1-4-54.2 1.2-54.2 1.2 0 0-33.1 4-38.8 5-5.6 0.9-15.3 9.1-14.4 19 1 9.9 37 3.1 37 3.1l77.6-3.1c0 0-2.1-21.2-7.2-25.2z"/>
			<path id="&lt;Path&gt;" class="s27" d="m549.7 570.6c0 2.4 2 4.3 4.4 4.3h105.9c2.4 0 4.3-1.9 4.3-4.3v-4.6h-114.6z"/>
			<path id="&lt;Path&gt;" class="s28" d="m549.7 570.6c0 2.4 2 4.3 4.4 4.3h105.9c2.4 0 4.3-1.9 4.3-4.3v-4.6h-114.6z"/>
			<path id="&lt;Path&gt;" class="s12" d="m569.6 540.8c-5.1-4-57.1 3.2-57.1 3.2 0 0-30.2 2-35.8 3-5.7 0.9-15.3 9.1-14.4 19 0.9 9.9 36.9 3.1 36.9 3.1l77.7-3.1c0 0-2.2-21.2-7.3-25.2z"/>
			<path id="&lt;Path&gt;" class="s29" d="m462.3 570.6c0 2.4 1.9 4.3 4.3 4.3h105.9c2.4 0 4.4-1.9 4.4-4.3v-4.6h-114.6z"/>
			<g id="&lt;Group&gt;">
				<path id="&lt;Path&gt;" class="s10" d="m513.9 541.3c-8.7 1.5-13.1 4.4-13.4 8.9 0 0.6 0.4 1.1 1 1.1q0 0.1 0.1 0.1c0.5 0 1-0.5 1-1 0.3-3.3 4.2-5.7 11.7-7 0.5-0.1 0.9-0.7 0.8-1.3-0.1-0.6-0.6-0.9-1.2-0.8z"/>
			</g>
			<g id="&lt;Group&gt;">
				<path id="&lt;Path&gt;" class="s10" d="m506.8 541.3c-8.7 1.5-13.1 4.4-13.4 8.9-0.1 0.6 0.4 1.1 1 1.1q0 0.1 0 0.1c0.6 0 1.1-0.5 1.1-1 0.2-3.3 4.2-5.7 11.6-7 0.6-0.1 1-0.7 0.9-1.3-0.1-0.6-0.7-0.9-1.2-0.8z"/>
			</g>
			<g id="&lt;Group&gt;">
				<path id="&lt;Path&gt;" class="s10" d="m499.6 541.3c-8.6 1.5-13 4.4-13.3 8.9-0.1 0.6 0.4 1.1 0.9 1.1q0.1 0.1 0.1 0.1c0.6 0 1-0.5 1.1-1 0.2-3.3 4.1-5.7 11.6-7 0.6-0.1 1-0.7 0.9-1.3-0.1-0.6-0.7-0.9-1.3-0.8z"/>
			</g>
			<g id="&lt;Group&gt;">
				<path id="&lt;Path&gt;" class="s10" d="m492.5 541.3c-8.7 1.5-13 4.4-13.4 8.9 0 0.6 0.4 1.1 1 1.1q0.1 0.1 0.1 0.1c0.5 0 1-0.5 1.1-1 0.2-3.3 4.1-5.7 11.6-7 0.6-0.1 0.9-0.7 0.8-1.3-0.1-0.6-0.6-0.9-1.2-0.8z"/>
			</g>
			<path id="&lt;Path&gt;" class="s19" d="m680.2 214.9h49.5v-71.4h-49.5z"/>
			<path id="&lt;Path&gt;" class="s30" d="m680.2 214.9h12.2l0.4-48.9c0 0-2.7 12.5-12.6 25.4z"/>
			<path id="&lt;Path&gt;" class="s31" d="m664.6 378.2h-125.4l-16.6 13.7 63.3 149.3 55.4 3-55.4-122 105.6-3.3z"/>
			<path id="&lt;Path&gt;" class="s5" d="m589.9 378.2h-117.5c-3.3 0-6.6 0.6-9.5 2.1-9.6 4.7-13.6 15.5-10.2 25.1l59.8 138.7h58.3l-55.4-122 101.3-3.2z"/>
			<path id="&lt;Path&gt;" class="s0" d="m650.9 534.6h22.3v-67.5h-22.3z"/>
			<path id="&lt;Path&gt;" class="s6" d="m650.9 534.6h11.1v-67.5h-11.1z"/>
			<path id="&lt;Path&gt;" class="s32" d="m649.1 467.3h25.8c1.2 0 2.2-1 2.2-2.3v-11c0-1.3-1-2.3-2.2-2.3h-25.8c-1.2 0-2.2 1-2.2 2.3v11c0 1.3 1 2.3 2.2 2.3z"/>
			<path id="&lt;Path&gt;" class="s4" d="m520.6 443.8c0 8.6 7 15.6 15.6 15.6h222.2c8.6 0 15.6-7 15.6-15.6v-7.5h-253.4z"/>
			<path id="&lt;Path&gt;" class="s19" d="m644.7 150.3c-1.8 3.6 15.2 3.2 16.3 3.6 1.1 0.3-2.9-28.3-2.9-28.3 0 0-11.6 21-13.4 24.7z"/>
			<path id="&lt;Path&gt;" class="s30" d="m644.7 150.3c-1.8 3.6 15.2 3.2 16.3 3.6 1.1 0.3-2.9-28.3-2.9-28.3 0 0-11.6 21-13.4 24.7z"/>
			<path id="&lt;Path&gt;" class="s19" d="m714.5 76.2c-36.4 0-62.2 13.1-62.2 49.6 0 36.4-0.9 84.1 27.7 65.9 8.5-5.4 14-18.9 20.4-32.1 3.1-6.5 37.4 2.1 37.4-8.1 0-36.5 13.2-75.3-23.3-75.3z"/>
			<path id="&lt;Path&gt;" class="s4" d="m705.8 67.3c-23.1 0-41 12.4-51.3 31.3-13.6 25 6.3-0.8 25.7 12.4 9.1 6.3-4.7 22.3 2.7 32.1 13.5-26.8 21.1-14.1 18-2.1-2.1 7.9-8.1 12.8-8.1 12.8 0 0 4.4 18.9 18.7 19.3 14.2 0.3 30.5-8.4 39-29.6 16-40.1-8.2-76.2-44.7-76.2z"/>
			<path id="&lt;Path&gt;" class="s33" d="m762.7 207.3l-32.5-2.8-49.6 1.3-31.3 2.4c-9 0.7-17.1 5.4-22.2 12.8l-60 85.5-41.6-19.3c-15.4-6.2-31.3 4.6-29.1 17.9l77.4 48 42.2-46.6-26.1 71.7 27.9 44.2 145.1 4.6 20.1-195.2c1.2-12.4-7.9-23.4-20.3-24.5z"/>
			<path id="&lt;Path&gt;" class="s34" d="m668.2 240l-51.5 178.9h153.1l54.8-190.2h-141.3c-7 0-13.1 4.6-15.1 11.3z"/>
			<path id="&lt;Path&gt;" class="s35" d="m834.4 228.7h-116.8c-9.1 0-17.2 6.1-19.8 14.9l-50.4 175.3h153.1l49-170.2c2.8-10-4.7-20-15.1-20z"/>
			<path id="&lt;Path&gt;" class="s36" d="m647.3 447.1h144c5.1 0 9.2-4.1 9.2-9.2v-19h-153.2z"/>
			<path id="&lt;Path&gt;" class="s34" d="m510.3 427.9v10.2c0 5 4 9 9 9h128.1v-28.2h-128.1c-5 0-9 4-9 9z"/>
			<path id="&lt;Path&gt;" class="s35" d="m662.1 549.3h106v-5.5c0-4.5-3.4-8.1-7.9-8.4l-98.1-5.9z"/>
			<path id="&lt;Path&gt;" class="s34" d="m556.1 549.3h106v-19.8l-98.1 5.9c-4.4 0.3-7.9 3.9-7.9 8.4z"/>
			<path id="&lt;Path&gt;" class="s37" d="m662.1 549.3h106v-3l-106-1.4z"/>
			<path id="&lt;Path&gt;" class="s38" d="m556.1 549.3h106v-4.4l-106 1.4z"/>
			<g id="&lt;Group&gt;">
				<g id="&lt;Group&gt;">
					<path id="&lt;Path&gt;" class="s4" d="m766.2 548c-7.4 0-13.5 6-13.5 13.5 0 7.4 6.1 13.4 13.5 13.4 7.5 0 13.5-6 13.5-13.4 0-7.5-6-13.5-13.5-13.5z"/>
					<path id="&lt;Path&gt;" class="s39" d="m766.2 545.8c-8.6 0-15.6 7-15.6 15.7h31.2c0-8.7-7-15.7-15.6-15.7z"/>
				</g>
				<g id="&lt;Group&gt;">
					<path id="&lt;Path&gt;" class="s4" d="m662.8 548c-7.4 0-13.4 6-13.4 13.5 0 7.4 6 13.4 13.4 13.4 7.5 0 13.5-6 13.5-13.4 0-7.5-6-13.5-13.5-13.5z"/>
					<path id="&lt;Path&gt;" class="s39" d="m662.8 545.8c-8.6 0-15.6 7-15.6 15.7h31.3c0-8.7-7-15.7-15.7-15.7z"/>
				</g>
				<g id="&lt;Group&gt;">
					<path id="&lt;Path&gt;" class="s4" d="m554.2 548c-7.5 0-13.5 6-13.5 13.5 0 7.4 6 13.4 13.5 13.4 7.4 0 13.4-6 13.4-13.4 0-7.5-6-13.5-13.4-13.5z"/>
					<path id="&lt;Path&gt;" class="s39" d="m554.2 545.8c-8.7 0-15.7 7-15.7 15.7h31.3c0-8.7-7-15.7-15.6-15.7z"/>
				</g>
			</g>
			<path id="&lt;Path&gt;" class="s4" d="m562.4 449.5h15v-83.4h-15z"/>
			<path id="&lt;Path&gt;" class="s32" d="m562.4 374.8h15v-8.7h-15z"/>
			<path id="&lt;Path&gt;" class="s1" d="m622.6 343.2h-23.9c-4.9 0-9 4-9 9v6.8c0 4.9 4.1 9 9 9h23.9c4.9 0 9-4.1 9-9v-6.8c0-5-4.1-9-9-9z"/>
			<path id="&lt;Path&gt;" class="s40" d="m614.3 343.2h-107.9c-5.5 0-10 4.5-10 10v4.8c0 5.5 4.5 10 10 10h107.9c5.5 0 10-4.5 10-10v-4.8c0-5.5-4.5-10-10-10z"/>
		</g>
		<g id="&lt;Group&gt;">
			<g id="&lt;Group&gt;">
				<g id="&lt;Group&gt;">
					<path id="&lt;Path&gt;" class="s41" d="m151.3 511.5c52.7-89.2 61.3-162.6 15-219.9-42.7 69.4-54.5 185.4-15 219.9z"/>
				</g>
				<g id="&lt;Group&gt;">
					<path id="&lt;Path&gt;" class="s42" d="m151.3 511.5c52.7-89.2 61.3-162.6 15-219.9-42.7 69.4-54.5 185.4-15 219.9z"/>
				</g>
				<g id="&lt;Group&gt;">
					<path id="&lt;Path&gt;" class="s10" d="m198.3 463.8c-0.5 0-12.8-1.1-21.8 6.2-0.4 0.4-0.5 1.1-0.2 1.5 0.2 0.3 0.5 0.4 0.8 0.4q0.4 0 0.6-0.2c8.4-6.8 20.3-5.8 20.5-5.8 0.5 0.1 1-0.3 1-0.9 0.1-0.6-0.3-1.1-0.9-1.2z"/>
				</g>
				<g id="&lt;Group&gt;">
					<path id="&lt;Path&gt;" class="s10" d="m167.3 302.1c-0.5-0.1-1 0.4-1 1-0.2 5-5.6 124-1 151.9 0 0.5 0.5 0.8 0.9 0.8q0.1 0 0.2 0c0.6-0.1 0.9-0.6 0.8-1.2-4.5-27.7 1-150.2 1.1-151.4 0-0.6-0.4-1.1-1-1.1z"/>
				</g>
				<g id="&lt;Group&gt;">
					<path id="&lt;Path&gt;" class="s10" d="m182.4 337.2l-17.2 16.8c-0.4 0.4-0.4 1.1 0 1.5 0.1 0.2 0.4 0.4 0.7 0.4q0.4 0 0.7-0.3l17.2-16.9c0.4-0.4 0.4-1 0.1-1.5-0.4-0.4-1.1-0.4-1.5 0z"/>
				</g>
				<g id="&lt;Group&gt;">
					<path id="&lt;Path&gt;" class="s10" d="m185.2 371.3l-20.7 20.9c-0.4 0.4-0.4 1.1 0 1.5 0.2 0.2 0.4 0.4 0.7 0.4q0.4 0 0.7-0.3l20.7-21c0.4-0.4 0.4-1.1 0.1-1.5-0.4-0.4-1.1-0.5-1.5 0z"/>
				</g>
				<g id="&lt;Group&gt;">
					<path id="&lt;Path&gt;" class="s43" d="m149.5 507c68.6-37 103.7-81 62.9-142.5-44.5 73.6-66.2 75.2-62.9 142.5z"/>
				</g>
				<g id="&lt;Group&gt;">
					<path id="&lt;Path&gt;" class="s10" d="m211.7 388c-0.6 0-1 0.4-1.1 1-1.2 13.1-10.2 34-26.6 62.3-15.1 26.2-31.3 49.2-31.5 49.4-0.3 0.5-0.2 1.1 0.2 1.5q0.3 0.2 0.5 0.2c0.4 0 0.7-0.1 0.9-0.4 0.2-0.3 16.5-23.3 31.6-49.6 16.6-28.5 25.6-49.8 26.9-63.2 0-0.6-0.4-1.1-0.9-1.2z"/>
				</g>
				<g id="&lt;Group&gt;">
					<path id="&lt;Path&gt;" class="s10" d="m211.2 441.8c-0.5-0.1-14.5-1.6-25.4 7.7-0.5 0.3-0.5 1-0.2 1.5 0.2 0.2 0.4 0.3 0.7 0.4q0.4 0 0.7-0.3c10.3-8.7 23.9-7.2 24-7.2 0.5 0.1 1-0.4 1.1-0.9 0.1-0.6-0.3-1.1-0.9-1.2z"/>
				</g>
				<g id="&lt;Group&gt;">
					<path id="&lt;Path&gt;" class="s10" d="m220 412.9c-0.5-0.1-12-1.8-18.2 4.7-0.4 0.4-0.4 1.1 0 1.5q0.2 0.3 0.6 0.3c0.3 0 0.6-0.1 0.8-0.3 5.4-5.8 16.4-4.1 16.5-4.1 0.5 0.1 1.1-0.3 1.1-0.9 0.1-0.6-0.2-1.1-0.8-1.2z"/>
				</g>
				<g id="&lt;Group&gt;">
					<path id="&lt;Path&gt;" class="s44" d="m149 510.1c40.7-95.2 0.8-130.3-52.7-181.1-26.9 81.6 9.1 152.1 52.7 181.1z"/>
				</g>
				<g id="&lt;Group&gt;">
					<path id="&lt;Path&gt;" class="s10" d="m102.5 351.7c-0.4-0.4-1-0.4-1.4 0-0.4 0.3-0.5 1-0.1 1.5 27 31.7 47.2 148.7 47.4 149.9 0.1 0.6 0.6 1 1.2 0.9q0 0 0 0c0.6-0.1 0.9-0.6 0.8-1.2 0-0.3-5.1-30-13.5-63.2-11.3-44.8-22.9-74.3-34.4-87.9z"/>
				</g>
				<g id="&lt;Group&gt;">
					<path id="&lt;Path&gt;" class="s10" d="m100.1 391.8c-0.6-0.1-1.1 0.3-1.2 0.8-0.1 0.6 0.3 1.2 0.9 1.3 8 1.5 26.8 16.8 26.9 16.9q0.4 0.3 0.8 0.2 0.4 0 0.6-0.4c0.4-0.4 0.3-1.1-0.1-1.4-0.8-0.7-19.4-15.9-27.9-17.4z"/>
				</g>
				<g id="&lt;Group&gt;">
					<path id="&lt;Path&gt;" class="s10" d="m111.2 424.4c-0.5-0.2-1.1 0.1-1.2 0.6-0.2 0.6 0.1 1.2 0.6 1.4 11.6 4.3 24.6 14.9 24.8 15q0.3 0.3 0.7 0.2 0.4 0 0.7-0.4c0.3-0.4 0.2-1.1-0.2-1.5-0.6-0.4-13.4-10.9-25.4-15.3z"/>
				</g>
				<g id="&lt;Group&gt;">
					<path id="&lt;Path&gt;" class="s10" d="m114 452.7c-0.6-0.2-1.1 0.1-1.3 0.7-0.1 0.6 0.2 1.2 0.7 1.3 7.6 2.3 28.8 17.1 29 17.2q0.3 0.2 0.7 0.2c0.2-0.1 0.5-0.2 0.7-0.5 0.3-0.5 0.1-1.1-0.3-1.5-0.9-0.6-21.7-15-29.5-17.4z"/>
				</g>
				<g id="&lt;Group&gt;">
					<path id="&lt;Path&gt;" class="s10" d="m148.6 354c-0.3-0.4-1-0.4-1.4 0.1-0.4 0.4-0.3 1 0.1 1.5l16.5 17.2q0.3 0.3 0.7 0.3 0.4 0 0.7-0.3c0.4-0.5 0.4-1.1 0-1.5z"/>
				</g>
				<g id="&lt;Group&gt;">
					<path id="&lt;Path&gt;" class="s10" d="m193.4 414c-0.2-0.5-0.7-0.8-1.3-0.6-0.5 0.1-0.8 0.8-0.6 1.3 2 6.9 2.6 18.5 2.6 18.6 0 0.5 0.3 0.9 0.7 1q0.1 0 0.3 0c0.6 0 1-0.5 1-1.1-0.1-0.5-0.6-12-2.7-19.2z"/>
				</g>
				<g id="&lt;Group&gt;">
					<path id="&lt;Path&gt;" class="s10" d="m178.1 443.3c-0.1-0.5-0.6-0.9-1.1-0.8-0.6 0.2-0.9 0.7-0.8 1.3 1.3 7.1 0.6 18.7 0.6 18.8-0.1 0.5 0.2 0.9 0.6 1q0.1 0.1 0.3 0.1c0.6 0 1-0.5 1.1-1 0-0.5 0.7-12-0.7-19.4z"/>
				</g>
				<g id="&lt;Group&gt;">
					<path id="&lt;Path&gt;" class="s10" d="m145.1 395.1c-6.2 5.4-13.6 28.1-14 29-0.1 0.6 0.1 1.2 0.7 1.4q0.2 0.1 0.4 0c0.4 0 0.7-0.3 0.8-0.7 0.1-0.2 7.6-23 13.4-28.1 0.4-0.4 0.4-1 0.1-1.5-0.4-0.5-1-0.5-1.4-0.1z"/>
				</g>
				<g id="&lt;Group&gt;">
					<path id="&lt;Path&gt;" class="s10" d="m151.4 422.6c-5.9 6.9-12.1 31.2-12.4 32.3-0.1 0.5 0.2 1.1 0.8 1.3q0.2 0 0.4 0c0.3 0 0.7-0.3 0.8-0.8 0-0.2 6.3-24.8 11.9-31.3 0.4-0.5 0.3-1.1-0.1-1.5-0.4-0.4-1-0.4-1.4 0z"/>
				</g>
				<g id="&lt;Group&gt;">
					<path id="&lt;Path&gt;" class="s10" d="m130 371.3c-5.8 4.3-8.6 20.7-8.7 21.4-0.1 0.6 0.2 1.1 0.8 1.3q0.2 0 0.3 0c0.4-0.1 0.8-0.4 0.9-0.9 0-0.2 2.7-16.2 7.8-20 0.5-0.4 0.6-1 0.3-1.5-0.4-0.5-1-0.6-1.4-0.3z"/>
				</g>
			</g>
			<g id="&lt;Group&gt;">
				<path id="&lt;Path&gt;" class="s45" d="m128.8 574.9h46.8l7.3-56h-61.4z"/>
			</g>
			<g id="&lt;Group&gt;" style="mix-blend-mode: multiply">
				<path id="&lt;Path&gt;" class="s23" d="m128.8 574.9h46.8l7.3-56h-61.4z"/>
			</g>
			<g id="&lt;Group&gt;" style="opacity: .4;mix-blend-mode: multiply">
				<path id="&lt;Path&gt;" class="s45" d="m121.7 520.3l7.1 54.6h2.4l-4.1-49.6 55.8-5z"/>
			</g>
			<g id="&lt;Group&gt;">
				<path id="&lt;Path&gt;" class="s45" d="m187.9 498.6h-71.3c-1 0-1.8 1.4-1.6 2.8l2 14.3c0.4 2.6 2 4.6 3.9 4.6h62.6c1.9 0 3.6-2 3.9-4.6l2-14.3c0.2-1.4-0.5-2.8-1.5-2.8z"/>
			</g>
		</g>
		<path id="&lt;Path&gt;" class="s46" d="m59.9 582.6h880c2.1 0 3.8-1.7 3.8-3.8 0-2.1-1.7-3.9-3.8-3.9h-880c-2.1 0-3.8 1.8-3.8 3.9 0 2.1 1.7 3.8 3.8 3.8z"/>
		<path id="&lt;Path&gt;" class="s12" d="m390.9 166.3c0-0.9 0.7-1.6 1.6-1.6 0.9 0 1.6 0.7 1.6 1.6 0 0.9-0.7 1.6-1.6 1.6-0.9 0-1.6-0.7-1.6-1.6z"/>
		<path id="&lt;Path&gt;" class="s19" d="m385.8 166.3c0-0.9 0.7-1.6 1.6-1.6 0.9 0 1.6 0.7 1.6 1.6 0 0.9-0.7 1.6-1.6 1.6-0.9 0-1.6-0.7-1.6-1.6z"/>
		<path id="&lt;Path&gt;" class="s27" d="m396 166.3c0-0.9 0.7-1.6 1.6-1.6 0.9 0 1.6 0.7 1.6 1.6 0 0.9-0.7 1.6-1.6 1.6-0.9 0-1.6-0.7-1.6-1.6z"/>
		<path id="&lt;Path&gt;" class="s12" d="m298.3 146.4c0-0.9 0.8-1.6 1.6-1.6 0.9 0 1.7 0.7 1.7 1.6 0 0.9-0.8 1.6-1.7 1.6-0.8 0-1.6-0.7-1.6-1.6z"/>
		<path id="&lt;Path&gt;" class="s19" d="m293.2 146.4c0-0.9 0.8-1.6 1.6-1.6 0.9 0 1.7 0.7 1.7 1.6 0 0.9-0.8 1.6-1.7 1.6-0.8 0-1.6-0.7-1.6-1.6z"/>
		<path id="&lt;Path&gt;" class="s27" d="m303.4 146.4c0-0.9 0.7-1.6 1.6-1.6 0.9 0 1.6 0.7 1.6 1.6 0 0.9-0.7 1.6-1.6 1.6-0.9 0-1.6-0.7-1.6-1.6z"/>
		<g id="&lt;Group&gt;">
			<path id="&lt;Path&gt;" class="s12" d="m539.6 144.8c0-0.9 0.8-1.6 1.6-1.6 0.9 0 1.7 0.7 1.7 1.6 0 0.9-0.8 1.6-1.7 1.6-0.8 0-1.6-0.7-1.6-1.6z"/>
			<path id="&lt;Path&gt;" class="s19" d="m534.5 144.8c0-0.9 0.8-1.6 1.7-1.6 0.8 0 1.6 0.7 1.6 1.6 0 0.9-0.8 1.6-1.6 1.6-0.9 0-1.7-0.7-1.7-1.6z"/>
			<path id="&lt;Path&gt;" class="s27" d="m544.7 144.8c0-0.9 0.7-1.6 1.6-1.6 0.9 0 1.6 0.7 1.6 1.6 0 0.9-0.7 1.6-1.6 1.6-0.9 0-1.6-0.7-1.6-1.6z"/>
		</g>
		<g id="&lt;Group&gt;">
			<path id="&lt;Path&gt;" class="s12" d="m634.8 166.5c0-0.9 0.7-1.6 1.6-1.6 0.9 0 1.6 0.7 1.6 1.6 0 0.9-0.7 1.6-1.6 1.6-0.9 0-1.6-0.7-1.6-1.6z"/>
			<path id="&lt;Path&gt;" class="s19" d="m629.7 166.5c0-0.9 0.7-1.6 1.6-1.6 0.9 0 1.6 0.7 1.6 1.6 0 0.9-0.7 1.6-1.6 1.6-0.9 0-1.6-0.7-1.6-1.6z"/>
			<path id="&lt;Path&gt;" class="s27" d="m639.8 166.5c0-0.9 0.8-1.6 1.7-1.6 0.8 0 1.6 0.7 1.6 1.6 0 0.9-0.8 1.6-1.6 1.6-0.9 0-1.7-0.7-1.7-1.6z"/>
		</g>
	</g>
</svg>